<ttFont>
<head>
    <!-- Most of this table will be recalculated by the compiler -->
    <tableVersion value="1.0"/>
    <fontRevision value="3.0"/>
    <checkSumAdjustment value="0x9a0cc90a"/>
    <magicNumber value="0x5f0f3cf5"/>
    <flags value="00000000 00000111"/>
    <unitsPerEm value="2000"/>
    <created value="Tue Dec  4 23:15:01 2018"/>
    <modified value="Fri Jan 11 21:56:47 2019"/>
    <xMin value="-315"/>
    <yMin value="-460"/>
    <xMax value="2421"/>
    <yMax value="2118"/>
    <macStyle value="00000000 00000000"/>
    <lowestRecPPEM value="6"/>
    <fontDirectionHint value="2"/>
    <indexToLocFormat value="0"/>
    <glyphDataFormat value="0"/>
  </head>
    <TTGlyph name="A" xMin="37" yMin="0" xMax="1249" yMax="1480">
      <contour>
        <pt x="37" y="0" on="1"/>
        <pt x="600" y="1480" on="1"/>
        <pt x="686" y="1480" on="1"/>
        <pt x="1249" y="0" on="1"/>
        <pt x="1174" y="0" on="1"/>
        <pt x="630" y="1440" on="1"/>
        <pt x="654" y="1440" on="1"/>
        <pt x="110" y="0" on="1"/>
      </contour>
      <contour>
        <pt x="284" y="528" on="1"/>
        <pt x="304" y="594" on="1"/>
        <pt x="982" y="594" on="1"/>
        <pt x="1002" y="528" on="1"/>
      </contour>
    </TTGlyph>
    <TTGlyph name="AE" xMin="37" yMin="0" xMax="1684" yMax="1480">
      <contour>
        <pt x="37" y="0" on="1"/>
        <pt x="611" y="1480" on="1"/>
        <pt x="859" y="1480" on="1"/>
        <pt x="857" y="1414" on="1"/>
        <pt x="655" y="1414" on="1"/>
        <pt x="110" y="0" on="1"/>
      </contour>
      <contour>
        <pt x="290" y="528" on="1"/>
        <pt x="310" y="594" on="1"/>
        <pt x="919" y="594" on="1"/>
        <pt x="919" y="528" on="1"/>
      </contour>
      <contour>
        <pt x="918" y="0" on="1"/>
        <pt x="824" y="1480" on="1"/>
        <pt x="1674" y="1480" on="1"/>
        <pt x="1674" y="1414" on="1"/>
        <pt x="895" y="1414" on="1"/>
        <pt x="983" y="66" on="1"/>
        <pt x="1684" y="66" on="1"/>
        <pt x="1684" y="0" on="1"/>
      </contour>
      <contour>
        <pt x="921" y="728" on="1"/>
        <pt x="921" y="794" on="1"/>
        <pt x="1579" y="794" on="1"/>
        <pt x="1579" y="728" on="1"/>
      </contour>
    </TTGlyph>
    <TTGlyph name="AEacute" xMin="37" yMin="0" xMax="1684" yMax="1888">
      <component glyphName="AE" x="0" y="0" flags="0x204"/>
      <component glyphName="glyph00861" x="260" y="0" flags="0x4"/>
    </TTGlyph>
    <TTGlyph name="Aacute" xMin="37" yMin="0" xMax="1249" yMax="1888">
      <component glyphName="A" x="0" y="0" flags="0x204"/>
      <component glyphName="glyph00861" x="44" y="0" flags="0x4"/>
    </TTGlyph>
    <TTGlyph name="Abreve" xMin="37" yMin="0" xMax="1249" yMax="1860">
      <component glyphName="A" x="0" y="0" flags="0x204"/>
      <component glyphName="glyph00868" x="44" y="0" flags="0x4"/>
    </TTGlyph>
    <TTGlyph name="Acircumflex" xMin="37" yMin="0" xMax="1249" yMax="1888">
      <component glyphName="A" x="0" y="0" flags="0x204"/>
      <component glyphName="glyph00865" x="44" y="0" flags="0x4"/>
    </TTGlyph>
    <TTGlyph name="Adieresis" xMin="37" yMin="0" xMax="1249" yMax="1816">
      <component glyphName="A" x="0" y="0" flags="0x204"/>
      <component glyphName="glyph00855" x="44" y="0" flags="0x4"/>
    </TTGlyph>
    <TTGlyph name="Agrave" xMin="37" yMin="0" xMax="1249" yMax="1888">
      <component glyphName="A" x="0" y="0" flags="0x204"/>
      <component glyphName="glyph00860" x="44" y="0" flags="0x4"/>
    </TTGlyph>
    <TTGlyph name="Amacron" xMin="37" yMin="0" xMax="1249" yMax="1782">
      <component glyphName="A" x="0" y="0" flags="0x204"/>
      <component glyphName="glyph00875" x="44" y="0" flags="0x4"/>
    </TTGlyph>
    <TTGlyph name="Aogonek" xMin="37" yMin="-400" xMax="1374" yMax="1480">
      <component glyphName="A" x="0" y="0" flags="0x204"/>
      <component glyphName="glyph00887" x="649" y="0" flags="0x4"/>
    </TTGlyph>
    <TTGlyph name="Aring" xMin="37" yMin="0" xMax="1249" yMax="1799">
      <component glyphName="A" x="0" y="0" flags="0x204"/>
      <component glyphName="glyph00869" x="147" y="-180" flags="0x4"/>
    </TTGlyph>
    <TTGlyph name="Aringacute" xMin="37" yMin="0" xMax="1249" yMax="1908">
      <component glyphName="A" x="0" y="0" flags="0x204"/>
      <component glyphName="glyph00870" x="147" y="-180" flags="0x4"/>
    </TTGlyph>
    <TTGlyph name="Atilde" xMin="37" yMin="0" xMax="1249" yMax="1830">
      <component glyphName="A" x="0" y="0" flags="0x204"/>
      <component glyphName="glyph00871" x="44" y="0" flags="0x4"/>
    </TTGlyph>
    <TTGlyph name="B" xMin="190" yMin="-10" xMax="1132" yMax="1494">
      <contour>
        <pt x="525" y="-10" on="1"/>
        <pt x="467" y="-10" on="0"/>
        <pt x="361" y="-6" on="0"/>
        <pt x="252" y="3" on="0"/>
        <pt x="190" y="10" on="1"/>
        <pt x="190" y="1460" on="1"/>
        <pt x="275" y="1477" on="0"/>
        <pt x="445" y="1494" on="0"/>
        <pt x="557" y="1494" on="1"/>
        <pt x="838" y="1494" on="0"/>
        <pt x="1089" y="1304" on="0"/>
        <pt x="1089" y="1110" on="1"/>
        <pt x="1089" y="1023" on="0"/>
        <pt x="1027" y="874" on="0"/>
        <pt x="885" y="773" on="0"/>
        <pt x="765" y="756" on="1"/>
        <pt x="768" y="771" on="1"/>
        <pt x="960" y="751" on="0"/>
        <pt x="1132" y="547" on="0"/>
        <pt x="1132" y="395" on="1"/>
        <pt x="1132" y="262" on="0"/>
        <pt x="1010" y="82" on="0"/>
        <pt x="743" y="-10" on="0"/>
      </contour>
      <contour>
        <pt x="527" y="56" on="1"/>
        <pt x="728" y="56" on="0"/>
        <pt x="962" y="131" on="0"/>
        <pt x="1062" y="281" on="0"/>
        <pt x="1062" y="395" on="1"/>
        <pt x="1062" y="565" on="0"/>
        <pt x="847" y="728" on="0"/>
        <pt x="620" y="728" on="1"/>
        <pt x="242" y="728" on="1"/>
        <pt x="242" y="794" on="1"/>
        <pt x="593" y="794" on="1"/>
        <pt x="823" y="794" on="0"/>
        <pt x="1020" y="952" on="0"/>
        <pt x="1020" y="1110" on="1"/>
        <pt x="1020" y="1280" on="0"/>
        <pt x="807" y="1428" on="0"/>
        <pt x="556" y="1428" on="1"/>
        <pt x="460" y="1428" on="0"/>
        <pt x="320" y="1416" on="0"/>
        <pt x="258" y="1405" on="1"/>
        <pt x="258" y="72" on="1"/>
        <pt x="321" y="63" on="0"/>
        <pt x="451" y="56" on="0"/>
      </contour>
    </TTGlyph>
    <TTGlyph name="C" xMin="118" yMin="-18" xMax="1065" yMax="1498">
      <contour>
        <pt x="729" y="-18" on="1"/>
        <pt x="549" y="-18" on="0"/>
        <pt x="273" y="123" on="0"/>
        <pt x="118" y="454" on="0"/>
        <pt x="118" y="738" on="1"/>
        <pt x="118" y="1013" on="0"/>
        <pt x="270" y="1347" on="0"/>
        <pt x="552" y="1498" on="0"/>
        <pt x="745" y="1498" on="1"/>
        <pt x="831" y="1498" on="0"/>
        <pt x="987" y="1474" on="0"/>
        <pt x="1065" y="1451" on="1"/>
        <pt x="1065" y="1383" on="1"/>
        <pt x="983" y="1409" on="0"/>
        <pt x="823" y="1432" on="0"/>
        <pt x="740" y="1432" on="1"/>
        <pt x="567" y="1432" on="0"/>
        <pt x="320" y="1300" on="0"/>
        <pt x="190" y="998" on="0"/>
        <pt x="190" y="742" on="1"/>
        <pt x="190" y="476" on="0"/>
        <pt x="324" y="173" on="0"/>
        <pt x="566" y="48" on="0"/>
        <pt x="729" y="48" on="1"/>
        <pt x="815" y="48" on="0"/>
        <pt x="971" y="75" on="0"/>
        <pt x="1065" y="108" on="1"/>
        <pt x="1065" y="40" on="1"/>
        <pt x="989" y="12" on="0"/>
        <pt x="824" y="-18" on="0"/>
      </contour>
    </TTGlyph>
    <TTGlyph name="Cacute" xMin="118" yMin="-18" xMax="1065" yMax="1888">
      <component glyphName="C" x="0" y="0" flags="0x204"/>
      <component glyphName="glyph00861" x="74" y="0" flags="0x4"/>
    </TTGlyph>
    <TTGlyph name="Ccaron" xMin="118" yMin="-18" xMax="1065" yMax="1888">
      <component glyphName="C" x="0" y="0" flags="0x204"/>
      <component glyphName="glyph00866" x="74" y="0" flags="0x4"/>
    </TTGlyph>
    <TTGlyph name="Ccedilla" xMin="118" yMin="-400" xMax="1065" yMax="1498">
      <component glyphName="C" x="0" y="0" flags="0x204"/>
      <component glyphName="glyph00886" x="89" y="0" flags="0x4"/>
    </TTGlyph>
    <TTGlyph name="Ccircumflex" xMin="118" yMin="-18" xMax="1065" yMax="1888">
      <component glyphName="C" x="0" y="0" flags="0x204"/>
      <component glyphName="glyph00865" x="74" y="0" flags="0x4"/>
    </TTGlyph>
    <TTGlyph name="Cdotaccent" xMin="118" yMin="-18" xMax="1065" yMax="1816">
      <component glyphName="C" x="0" y="0" flags="0x204"/>
      <component glyphName="glyph00858" x="74" y="0" flags="0x4"/>
    </TTGlyph>
    <TTGlyph name="D" xMin="190" yMin="-10" xMax="1225" yMax="1494">
      <contour>
        <pt x="508" y="-10" on="1"/>
        <pt x="429" y="-10" on="0"/>
        <pt x="287" y="-1" on="0"/>
        <pt x="190" y="10" on="1"/>
        <pt x="190" y="1461" on="1"/>
        <pt x="273" y="1477" on="0"/>
        <pt x="448" y="1494" on="0"/>
        <pt x="529" y="1494" on="1"/>
        <pt x="873" y="1494" on="0"/>
        <pt x="1225" y="1123" on="0"/>
        <pt x="1225" y="740" on="1"/>
        <pt x="1225" y="352" on="0"/>
        <pt x="861" y="-10" on="0"/>
      </contour>
      <contour>
        <pt x="510" y="56" on="1"/>
        <pt x="832" y="56" on="0"/>
        <pt x="1153" y="379" on="0"/>
        <pt x="1153" y="740" on="1"/>
        <pt x="1153" y="1097" on="0"/>
        <pt x="842" y="1428" on="0"/>
        <pt x="524" y="1428" on="1"/>
        <pt x="461" y="1428" on="0"/>
        <pt x="329" y="1417" on="0"/>
        <pt x="258" y="1406" on="1"/>
        <pt x="258" y="72" on="1"/>
        <pt x="315" y="64" on="0"/>
        <pt x="434" y="56" on="0"/>
      </contour>
    </TTGlyph>
    <TTGlyph name="Dcaron" xMin="190" yMin="-10" xMax="1225" yMax="1888">
      <component glyphName="D" x="0" y="0" flags="0x204"/>
      <component glyphName="glyph00866" x="11" y="0" flags="0x4"/>
    </TTGlyph>
    <TTGlyph name="Dcroat" xMin="2" yMin="-10" xMax="1225" yMax="1494">
      <component glyphName="Eth" x="0" y="0" flags="0x204"/>
    </TTGlyph>
    <TTGlyph name="Delta" xMin="37" yMin="0" xMax="1249" yMax="1480">
      <component glyphName="uni0394" x="0" y="0" flags="0x204"/>
    </TTGlyph>
    <TTGlyph name="E" xMin="190" yMin="0" xMax="1044" yMax="1480">
      <contour>
        <pt x="190" y="0" on="1"/>
        <pt x="190" y="1480" on="1"/>
        <pt x="1034" y="1480" on="1"/>
        <pt x="1034" y="1414" on="1"/>
        <pt x="258" y="1414" on="1"/>
        <pt x="258" y="66" on="1"/>
        <pt x="1044" y="66" on="1"/>
        <pt x="1044" y="0" on="1"/>
      </contour>
      <contour>
        <pt x="240" y="728" on="1"/>
        <pt x="240" y="794" on="1"/>
        <pt x="939" y="794" on="1"/>
        <pt x="939" y="728" on="1"/>
      </contour>
    </TTGlyph>
    <TTGlyph name="Eacute" xMin="190" yMin="0" xMax="1044" yMax="1888">
      <component glyphName="E" x="0" y="0" flags="0x204"/>
      <component glyphName="glyph00861" x="34" y="0" flags="0x4"/>
    </TTGlyph>
    <TTGlyph name="Ebreve" xMin="190" yMin="0" xMax="1044" yMax="1860">
      <component glyphName="E" x="0" y="0" flags="0x204"/>
      <component glyphName="glyph00868" x="34" y="0" flags="0x4"/>
    </TTGlyph>
    <TTGlyph name="Ecaron" xMin="190" yMin="0" xMax="1044" yMax="1888">
      <component glyphName="E" x="0" y="0" flags="0x204"/>
      <component glyphName="glyph00866" x="34" y="0" flags="0x4"/>
    </TTGlyph>
    <TTGlyph name="Ecircumflex" xMin="190" yMin="0" xMax="1044" yMax="1888">
      <component glyphName="E" x="0" y="0" flags="0x204"/>
      <component glyphName="glyph00865" x="34" y="0" flags="0x4"/>
    </TTGlyph>
    <TTGlyph name="Edieresis" xMin="190" yMin="0" xMax="1044" yMax="1816">
      <component glyphName="E" x="0" y="0" flags="0x204"/>
      <component glyphName="glyph00855" x="34" y="0" flags="0x4"/>
    </TTGlyph>
    <TTGlyph name="Edotaccent" xMin="190" yMin="0" xMax="1044" yMax="1816">
      <component glyphName="E" x="0" y="0" flags="0x204"/>
      <component glyphName="glyph00858" x="34" y="0" flags="0x4"/>
    </TTGlyph>
    <TTGlyph name="Egrave" xMin="190" yMin="0" xMax="1044" yMax="1888">
      <component glyphName="E" x="0" y="0" flags="0x204"/>
      <component glyphName="glyph00860" x="34" y="0" flags="0x4"/>
    </TTGlyph>
    <TTGlyph name="Emacron" xMin="190" yMin="0" xMax="1044" yMax="1782">
      <component glyphName="E" x="0" y="0" flags="0x204"/>
      <component glyphName="glyph00875" x="34" y="0" flags="0x4"/>
    </TTGlyph>
    <TTGlyph name="Eng" xMin="190" yMin="-460" xMax="1237" yMax="1480">
      <contour>
        <pt x="1175" y="-21" on="1"/>
        <pt x="224" y="1420" on="1"/>
        <pt x="256" y="1420" on="1"/>
        <pt x="256" y="0" on="1"/>
        <pt x="190" y="0" on="1"/>
        <pt x="190" y="1480" on="1"/>
        <pt x="265" y="1480" on="1"/>
        <pt x="1216" y="39" on="1"/>
      </contour>
      <contour>
        <pt x="1027" y="-460" on="1"/>
        <pt x="978" y="-425" on="1"/>
        <pt x="1078" y="-288" on="0"/>
        <pt x="1171" y="-14" on="0"/>
        <pt x="1171" y="166" on="1"/>
        <pt x="1171" y="1480" on="1"/>
        <pt x="1237" y="1480" on="1"/>
        <pt x="1237" y="173" on="1"/>
        <pt x="1237" y="43" on="0"/>
        <pt x="1192" y="-170" on="0"/>
        <pt x="1100" y="-361" on="0"/>
      </contour>
    </TTGlyph>
    <TTGlyph name="Eogonek" xMin="190" yMin="-400" xMax="1169" yMax="1480">
      <component glyphName="E" x="0" y="0" flags="0x204"/>
      <component glyphName="glyph00887" x="444" y="0" flags="0x4"/>
    </TTGlyph>
    <TTGlyph name="Eth" xMin="2" yMin="-10" xMax="1225" yMax="1494">
      <component glyphName="D" x="0" y="0" flags="0x204"/>
      <component glyphName="glyph00927" x="-260" y="-318" flags="0x4"/>
    </TTGlyph>
    <TTGlyph name="Euro" xMin="80" yMin="-18" xMax="1201" yMax="1498">
      <contour>
        <pt x="865" y="-18" on="1"/>
        <pt x="685" y="-18" on="0"/>
        <pt x="409" y="123" on="0"/>
        <pt x="254" y="454" on="0"/>
        <pt x="254" y="738" on="1"/>
        <pt x="254" y="1013" on="0"/>
        <pt x="406" y="1347" on="0"/>
        <pt x="688" y="1498" on="0"/>
        <pt x="881" y="1498" on="1"/>
        <pt x="967" y="1498" on="0"/>
        <pt x="1123" y="1474" on="0"/>
        <pt x="1201" y="1451" on="1"/>
        <pt x="1201" y="1383" on="1"/>
        <pt x="1119" y="1409" on="0"/>
        <pt x="959" y="1432" on="0"/>
        <pt x="876" y="1432" on="1"/>
        <pt x="703" y="1432" on="0"/>
        <pt x="456" y="1300" on="0"/>
        <pt x="326" y="998" on="0"/>
        <pt x="326" y="742" on="1"/>
        <pt x="326" y="476" on="0"/>
        <pt x="460" y="173" on="0"/>
        <pt x="702" y="48" on="0"/>
        <pt x="865" y="48" on="1"/>
        <pt x="951" y="48" on="0"/>
        <pt x="1107" y="75" on="0"/>
        <pt x="1201" y="108" on="1"/>
        <pt x="1201" y="40" on="1"/>
        <pt x="1125" y="12" on="0"/>
        <pt x="960" y="-18" on="0"/>
      </contour>
      <contour>
        <pt x="80" y="546" on="1"/>
        <pt x="80" y="610" on="1"/>
        <pt x="1031" y="610" on="1"/>
        <pt x="1031" y="546" on="1"/>
      </contour>
      <contour>
        <pt x="80" y="890" on="1"/>
        <pt x="80" y="954" on="1"/>
        <pt x="1031" y="954" on="1"/>
        <pt x="1031" y="890" on="1"/>
      </contour>
    </TTGlyph>
    <TTGlyph name="F" xMin="190" yMin="0" xMax="1024" yMax="1480">
      <contour>
        <pt x="190" y="0" on="1"/>
        <pt x="190" y="1480" on="1"/>
        <pt x="1024" y="1480" on="1"/>
        <pt x="1024" y="1414" on="1"/>
        <pt x="258" y="1414" on="1"/>
        <pt x="258" y="0" on="1"/>
      </contour>
      <contour>
        <pt x="250" y="728" on="1"/>
        <pt x="250" y="794" on="1"/>
        <pt x="929" y="794" on="1"/>
        <pt x="929" y="728" on="1"/>
      </contour>
    </TTGlyph>
    <TTGlyph name="G" xMin="118" yMin="-10" xMax="1136" yMax="1498">
      <contour>
        <pt x="827" y="-10" on="1"/>
        <pt x="481" y="-10" on="0"/>
        <pt x="118" y="341" on="0"/>
        <pt x="118" y="738" on="1"/>
        <pt x="118" y="1015" on="0"/>
        <pt x="286" y="1348" on="0"/>
        <pt x="584" y="1498" on="0"/>
        <pt x="777" y="1498" on="1"/>
        <pt x="860" y="1498" on="0"/>
        <pt x="1023" y="1474" on="0"/>
        <pt x="1107" y="1451" on="1"/>
        <pt x="1107" y="1383" on="1"/>
        <pt x="1010" y="1412" on="0"/>
        <pt x="851" y="1432" on="0"/>
        <pt x="776" y="1432" on="1"/>
        <pt x="602" y="1432" on="0"/>
        <pt x="338" y="1301" on="0"/>
        <pt x="190" y="998" on="0"/>
        <pt x="190" y="740" on="1"/>
        <pt x="190" y="494" on="0"/>
        <pt x="333" y="193" on="0"/>
        <pt x="617" y="56" on="0"/>
        <pt x="827" y="56" on="1"/>
        <pt x="904" y="56" on="0"/>
        <pt x="1032" y="68" on="0"/>
        <pt x="1090" y="80" on="1"/>
        <pt x="1068" y="45" on="1"/>
        <pt x="1068" y="720" on="1"/>
        <pt x="1136" y="720" on="1"/>
        <pt x="1136" y="17" on="1"/>
        <pt x="1043" y="1" on="0"/>
        <pt x="903" y="-10" on="0"/>
      </contour>
    </TTGlyph>
    <TTGlyph name="Gbreve" xMin="118" yMin="-10" xMax="1136" yMax="1860">
      <component glyphName="G" x="0" y="0" flags="0x204"/>
      <component glyphName="glyph00868" x="109" y="0" flags="0x4"/>
    </TTGlyph>
    <TTGlyph name="Gcaron" xMin="118" yMin="-10" xMax="1136" yMax="1888">
      <component glyphName="G" x="0" y="0" flags="0x204"/>
      <component glyphName="glyph00866" x="109" y="0" flags="0x4"/>
    </TTGlyph>
    <TTGlyph name="Gcircumflex" xMin="118" yMin="-10" xMax="1136" yMax="1888">
      <component glyphName="G" x="0" y="0" flags="0x204"/>
      <component glyphName="glyph00865" x="109" y="0" flags="0x4"/>
    </TTGlyph>
    <TTGlyph name="Gdotaccent" xMin="118" yMin="-10" xMax="1136" yMax="1816">
      <component glyphName="G" x="0" y="0" flags="0x204"/>
      <component glyphName="glyph00858" x="109" y="0" flags="0x4"/>
    </TTGlyph>
    <TTGlyph name="H" xMin="190" yMin="0" xMax="1208" yMax="1480">
      <contour>
        <pt x="190" y="0" on="1"/>
        <pt x="190" y="1480" on="1"/>
        <pt x="258" y="1480" on="1"/>
        <pt x="258" y="794" on="1"/>
        <pt x="1140" y="794" on="1"/>
        <pt x="1140" y="1480" on="1"/>
        <pt x="1208" y="1480" on="1"/>
        <pt x="1208" y="0" on="1"/>
        <pt x="1140" y="0" on="1"/>
        <pt x="1140" y="728" on="1"/>
        <pt x="258" y="728" on="1"/>
        <pt x="258" y="0" on="1"/>
      </contour>
    </TTGlyph>
    <TTGlyph name="Hbar" xMin="2" yMin="0" xMax="1396" yMax="1480">
      <component glyphName="H" x="0" y="0" flags="0x204"/>
      <component glyphName="glyph00929" x="-9" y="60" flags="0x4"/>
    </TTGlyph>
    <TTGlyph name="Hcircumflex" xMin="190" yMin="0" xMax="1208" yMax="1888">
      <component glyphName="H" x="0" y="0" flags="0x204"/>
      <component glyphName="glyph00865" x="99" y="0" flags="0x4"/>
    </TTGlyph>
    <TTGlyph name="I" xMin="190" yMin="0" xMax="258" yMax="1480">
      <contour>
        <pt x="190" y="0" on="1"/>
        <pt x="190" y="1480" on="1"/>
        <pt x="258" y="1480" on="1"/>
        <pt x="258" y="0" on="1"/>
      </contour>
    </TTGlyph>
    <TTGlyph name="Iacute" xMin="190" yMin="0" xMax="446" yMax="1888">
      <component glyphName="I" x="0" y="0" flags="0x204"/>
      <component glyphName="glyph00861" x="-376" y="0" flags="0x4"/>
    </TTGlyph>
    <TTGlyph name="Ibreve" xMin="-58" yMin="0" xMax="506" yMax="1860">
      <component glyphName="I" x="0" y="0" flags="0x204"/>
      <component glyphName="glyph00868" x="-376" y="0" flags="0x4"/>
    </TTGlyph>
    <TTGlyph name="Icircumflex" xMin="-54" yMin="0" xMax="502" yMax="1888">
      <component glyphName="I" x="0" y="0" flags="0x204"/>
      <component glyphName="glyph00865" x="-376" y="0" flags="0x4"/>
    </TTGlyph>
    <TTGlyph name="Idieresis" xMin="-58" yMin="0" xMax="506" yMax="1816">
      <component glyphName="I" x="0" y="0" flags="0x204"/>
      <component glyphName="glyph00855" x="-376" y="0" flags="0x4"/>
    </TTGlyph>
    <TTGlyph name="Idotaccent" xMin="162" yMin="0" xMax="286" yMax="1816">
      <component glyphName="I" x="0" y="0" flags="0x204"/>
      <component glyphName="glyph00858" x="-376" y="0" flags="0x4"/>
    </TTGlyph>
    <TTGlyph name="Igrave" xMin="2" yMin="0" xMax="258" yMax="1888">
      <component glyphName="I" x="0" y="0" flags="0x204"/>
      <component glyphName="glyph00860" x="-376" y="0" flags="0x4"/>
    </TTGlyph>
    <TTGlyph name="Imacron" xMin="-46" yMin="0" xMax="494" yMax="1782">
      <component glyphName="I" x="0" y="0" flags="0x204"/>
      <component glyphName="glyph00875" x="-376" y="0" flags="0x4"/>
    </TTGlyph>
    <TTGlyph name="Iogonek" xMin="7" yMin="-400" xMax="383" yMax="1480">
      <component glyphName="I" x="0" y="0" flags="0x204"/>
      <component glyphName="glyph00887" x="-342" y="0" flags="0x4"/>
    </TTGlyph>
    <TTGlyph name="Itilde" xMin="-75" yMin="0" xMax="523" yMax="1830">
      <component glyphName="I" x="0" y="0" flags="0x204"/>
      <component glyphName="glyph00871" x="-376" y="0" flags="0x4"/>
    </TTGlyph>
    <TTGlyph name="J" xMin="-1" yMin="-340" xMax="258" yMax="1480">
      <contour>
        <pt x="48" y="-340" on="1"/>
        <pt x="-1" y="-305" on="1"/>
        <pt x="65" y="-213" on="0"/>
        <pt x="150" y="-40" on="0"/>
        <pt x="190" y="158" on="0"/>
        <pt x="190" y="286" on="1"/>
        <pt x="190" y="1480" on="1"/>
        <pt x="258" y="1480" on="1"/>
        <pt x="258" y="253" on="1"/>
        <pt x="258" y="132" on="0"/>
        <pt x="213" y="-62" on="0"/>
        <pt x="121" y="-241" on="0"/>
      </contour>
    </TTGlyph>
    <TTGlyph name="Jcircumflex" xMin="-54" yMin="-340" xMax="502" yMax="1888">
      <component glyphName="J" x="0" y="0" flags="0x204"/>
      <component glyphName="glyph00865" x="-376" y="0" flags="0x4"/>
    </TTGlyph>
    <TTGlyph name="K" xMin="190" yMin="0" xMax="1193" yMax="1480">
      <contour>
        <pt x="1108" y="0" on="1"/>
        <pt x="488" y="758" on="1"/>
        <pt x="1068" y="1480" on="1"/>
        <pt x="1151" y="1480" on="1"/>
        <pt x="561" y="750" on="1"/>
        <pt x="561" y="774" on="1"/>
        <pt x="1193" y="0" on="1"/>
      </contour>
      <contour>
        <pt x="190" y="0" on="1"/>
        <pt x="190" y="1480" on="1"/>
        <pt x="258" y="1480" on="1"/>
        <pt x="258" y="0" on="1"/>
      </contour>
      <contour>
        <pt x="242" y="728" on="1"/>
        <pt x="242" y="793" on="1"/>
        <pt x="532" y="793" on="1"/>
        <pt x="532" y="728" on="1"/>
      </contour>
    </TTGlyph>
    <TTGlyph name="L" xMin="190" yMin="0" xMax="1014" yMax="1480">
      <contour>
        <pt x="190" y="0" on="1"/>
        <pt x="190" y="1480" on="1"/>
        <pt x="258" y="1480" on="1"/>
        <pt x="258" y="66" on="1"/>
        <pt x="1014" y="66" on="1"/>
        <pt x="1014" y="0" on="1"/>
      </contour>
    </TTGlyph>
    <TTGlyph name="Lacute" xMin="190" yMin="0" xMax="1014" yMax="1888">
      <component glyphName="L" x="0" y="0" flags="0x204"/>
      <component glyphName="glyph00861" x="-376" y="0" flags="0x4"/>
    </TTGlyph>
    <TTGlyph name="Lcaron" xMin="190" yMin="0" xMax="1014" yMax="1616">
      <component glyphName="L" x="0" y="0" flags="0x204"/>
      <component glyphName="glyph00864" x="66" y="0" flags="0x4"/>
    </TTGlyph>
    <TTGlyph name="Ldot" xMin="190" yMin="0" xMax="1014" yMax="1480">
      <component glyphName="L" x="0" y="0" flags="0x204"/>
      <component glyphName="glyph00603" x="524" y="214" flags="0x4"/>
    </TTGlyph>
    <TTGlyph name="Lslash" xMin="9" yMin="0" xMax="1014" yMax="1480">
      <component glyphName="L" x="0" y="0" flags="0x204"/>
      <component glyphName="glyph00930" x="-362" y="0" flags="0x4"/>
    </TTGlyph>
    <TTGlyph name="M" xMin="194" yMin="0" xMax="1498" yMax="1480">
      <contour>
        <pt x="194" y="0" on="1"/>
        <pt x="194" y="1480" on="1"/>
        <pt x="269" y="1480" on="1"/>
        <pt x="864" y="232" on="1"/>
        <pt x="832" y="232" on="1"/>
        <pt x="1423" y="1480" on="1"/>
        <pt x="1498" y="1480" on="1"/>
        <pt x="1498" y="0" on="1"/>
        <pt x="1432" y="0" on="1"/>
        <pt x="1432" y="1422" on="1"/>
        <pt x="1468" y="1422" on="1"/>
        <pt x="884" y="200" on="1"/>
        <pt x="808" y="200" on="1"/>
        <pt x="222" y="1422" on="1"/>
        <pt x="260" y="1422" on="1"/>
        <pt x="260" y="0" on="1"/>
      </contour>
    </TTGlyph>
    <TTGlyph name="N" xMin="190" yMin="0" xMax="1237" yMax="1480">
      <contour>
        <pt x="190" y="0" on="1"/>
        <pt x="190" y="1480" on="1"/>
        <pt x="265" y="1480" on="1"/>
        <pt x="1202" y="60" on="1"/>
        <pt x="1171" y="60" on="1"/>
        <pt x="1171" y="1480" on="1"/>
        <pt x="1237" y="1480" on="1"/>
        <pt x="1237" y="0" on="1"/>
        <pt x="1162" y="0" on="1"/>
        <pt x="225" y="1420" on="1"/>
        <pt x="256" y="1420" on="1"/>
        <pt x="256" y="0" on="1"/>
      </contour>
    </TTGlyph>
    <TTGlyph name="Nacute" xMin="190" yMin="0" xMax="1237" yMax="1888">
      <component glyphName="N" x="0" y="0" flags="0x204"/>
      <component glyphName="glyph00861" x="114" y="0" flags="0x4"/>
    </TTGlyph>
    <TTGlyph name="Ncaron" xMin="190" yMin="0" xMax="1237" yMax="1888">
      <component glyphName="N" x="0" y="0" flags="0x204"/>
      <component glyphName="glyph00866" x="114" y="0" flags="0x4"/>
    </TTGlyph>
    <TTGlyph name="Ntilde" xMin="190" yMin="0" xMax="1237" yMax="1830">
      <component glyphName="N" x="0" y="0" flags="0x204"/>
      <component glyphName="glyph00871" x="114" y="0" flags="0x4"/>
    </TTGlyph>
    <TTGlyph name="O" xMin="118" yMin="-18" xMax="1250" yMax="1498">
      <contour>
        <pt x="684" y="-18" on="1"/>
        <pt x="515" y="-18" on="0"/>
        <pt x="260" y="134" on="0"/>
        <pt x="118" y="468" on="0"/>
        <pt x="118" y="740" on="1"/>
        <pt x="118" y="1013" on="0"/>
        <pt x="261" y="1346" on="0"/>
        <pt x="516" y="1498" on="0"/>
        <pt x="684" y="1498" on="1"/>
        <pt x="854" y="1498" on="0"/>
        <pt x="1108" y="1346" on="0"/>
        <pt x="1250" y="1013" on="0"/>
        <pt x="1250" y="740" on="1"/>
        <pt x="1250" y="468" on="0"/>
        <pt x="1107" y="134" on="0"/>
        <pt x="852" y="-18" on="0"/>
      </contour>
      <contour>
        <pt x="684" y="49" on="1"/>
        <pt x="831" y="49" on="0"/>
        <pt x="1054" y="179" on="0"/>
        <pt x="1178" y="480" on="0"/>
        <pt x="1178" y="736" on="1"/>
        <pt x="1178" y="996" on="0"/>
        <pt x="1054" y="1300" on="0"/>
        <pt x="831" y="1431" on="0"/>
        <pt x="684" y="1431" on="1"/>
        <pt x="537" y="1431" on="0"/>
        <pt x="315" y="1301" on="0"/>
        <pt x="190" y="1000" on="0"/>
        <pt x="190" y="744" on="1"/>
        <pt x="190" y="484" on="0"/>
        <pt x="315" y="180" on="0"/>
        <pt x="537" y="49" on="0"/>
      </contour>
    </TTGlyph>
    <TTGlyph name="OE" xMin="118" yMin="-10" xMax="1875" yMax="1494">
      <contour>
        <pt x="818" y="-10" on="1"/>
        <pt x="478" y="-10" on="0"/>
        <pt x="118" y="352" on="0"/>
        <pt x="118" y="740" on="1"/>
        <pt x="118" y="1123" on="0"/>
        <pt x="466" y="1494" on="0"/>
        <pt x="800" y="1494" on="1"/>
        <pt x="884" y="1494" on="0"/>
        <pt x="1039" y="1480" on="0"/>
        <pt x="1103" y="1480" on="1"/>
        <pt x="1865" y="1480" on="1"/>
        <pt x="1865" y="1414" on="1"/>
        <pt x="1121" y="1414" on="1"/>
        <pt x="1121" y="66" on="1"/>
        <pt x="1875" y="66" on="1"/>
        <pt x="1875" y="0" on="1"/>
        <pt x="1116" y="0" on="1"/>
        <pt x="1057" y="0" on="0"/>
        <pt x="900" y="-10" on="0"/>
      </contour>
      <contour>
        <pt x="816" y="56" on="1"/>
        <pt x="892" y="56" on="0"/>
        <pt x="1007" y="61" on="0"/>
        <pt x="1053" y="67" on="1"/>
        <pt x="1053" y="1413" on="1"/>
        <pt x="992" y="1421" on="0"/>
        <pt x="873" y="1428" on="0"/>
        <pt x="805" y="1428" on="1"/>
        <pt x="498" y="1428" on="0"/>
        <pt x="190" y="1097" on="0"/>
        <pt x="190" y="740" on="1"/>
        <pt x="190" y="379" on="0"/>
        <pt x="507" y="56" on="0"/>
      </contour>
      <contour>
        <pt x="1113" y="728" on="1"/>
        <pt x="1113" y="794" on="1"/>
        <pt x="1770" y="794" on="1"/>
        <pt x="1770" y="728" on="1"/>
      </contour>
    </TTGlyph>
    <TTGlyph name="Oacute" xMin="118" yMin="-18" xMax="1250" yMax="1888">
      <component glyphName="O" x="0" y="0" flags="0x204"/>
      <component glyphName="glyph00861" x="84" y="0" flags="0x4"/>
    </TTGlyph>
    <TTGlyph name="Obreve" xMin="118" yMin="-18" xMax="1250" yMax="1860">
      <component glyphName="O" x="0" y="0" flags="0x204"/>
      <component glyphName="glyph00868" x="84" y="0" flags="0x4"/>
    </TTGlyph>
    <TTGlyph name="Ocircumflex" xMin="118" yMin="-18" xMax="1250" yMax="1888">
      <component glyphName="O" x="0" y="0" flags="0x204"/>
      <component glyphName="glyph00865" x="84" y="0" flags="0x4"/>
    </TTGlyph>
    <TTGlyph name="Odieresis" xMin="118" yMin="-18" xMax="1250" yMax="1816">
      <component glyphName="O" x="0" y="0" flags="0x204"/>
      <component glyphName="glyph00855" x="84" y="0" flags="0x4"/>
    </TTGlyph>
    <TTGlyph name="Ograve" xMin="118" yMin="-18" xMax="1250" yMax="1888">
      <component glyphName="O" x="0" y="0" flags="0x204"/>
      <component glyphName="glyph00860" x="84" y="0" flags="0x4"/>
    </TTGlyph>
    <TTGlyph name="Ohorn" xMin="118" yMin="-18" xMax="1250" yMax="1776">
      <contour>
        <pt x="684" y="-18" on="1"/>
        <pt x="516" y="-18" on="0"/>
        <pt x="261" y="134" on="0"/>
        <pt x="118" y="468" on="0"/>
        <pt x="118" y="740" on="1"/>
        <pt x="118" y="1013" on="0"/>
        <pt x="261" y="1346" on="0"/>
        <pt x="516" y="1498" on="0"/>
        <pt x="684" y="1498" on="1"/>
        <pt x="770" y="1498" on="0"/>
        <pt x="897" y="1474" on="0"/>
        <pt x="985" y="1474" on="1"/>
        <pt x="1076" y="1474" on="0"/>
        <pt x="1184" y="1552" on="0"/>
        <pt x="1184" y="1634" on="1"/>
        <pt x="1184" y="1676" on="0"/>
        <pt x="1170" y="1742" on="0"/>
        <pt x="1159" y="1776" on="1"/>
        <pt x="1225" y="1776" on="1"/>
        <pt x="1238" y="1742" on="0"/>
        <pt x="1250" y="1677" on="0"/>
        <pt x="1250" y="1632" on="1"/>
        <pt x="1250" y="1526" on="0"/>
        <pt x="1107" y="1407" on="0"/>
        <pt x="981" y="1407" on="1"/>
        <pt x="984" y="1421" on="1"/>
        <pt x="1108" y="1345" on="0"/>
        <pt x="1250" y="1013" on="0"/>
        <pt x="1250" y="740" on="1"/>
        <pt x="1250" y="465" on="0"/>
        <pt x="1107" y="131" on="0"/>
        <pt x="853" y="-18" on="0"/>
      </contour>
      <contour>
        <pt x="684" y="49" on="1"/>
        <pt x="831" y="49" on="0"/>
        <pt x="1054" y="179" on="0"/>
        <pt x="1178" y="480" on="0"/>
        <pt x="1178" y="736" on="1"/>
        <pt x="1178" y="996" on="0"/>
        <pt x="1054" y="1300" on="0"/>
        <pt x="831" y="1431" on="0"/>
        <pt x="684" y="1431" on="1"/>
        <pt x="537" y="1431" on="0"/>
        <pt x="315" y="1301" on="0"/>
        <pt x="190" y="1000" on="0"/>
        <pt x="190" y="744" on="1"/>
        <pt x="190" y="484" on="0"/>
        <pt x="315" y="180" on="0"/>
        <pt x="537" y="49" on="0"/>
      </contour>
    </TTGlyph>
    <TTGlyph name="Ohungarumlaut" xMin="118" yMin="-18" xMax="1250" yMax="1888">
      <component glyphName="O" x="0" y="0" flags="0x204"/>
      <component glyphName="glyph00863" x="84" y="0" flags="0x4"/>
    </TTGlyph>
    <TTGlyph name="Omacron" xMin="118" yMin="-18" xMax="1250" yMax="1782">
      <component glyphName="O" x="0" y="0" flags="0x204"/>
      <component glyphName="glyph00875" x="84" y="0" flags="0x4"/>
    </TTGlyph>
    <TTGlyph name="Omega" xMin="118" yMin="0" xMax="1250" yMax="1498">
      <component glyphName="uni03A9" x="0" y="0" flags="0x204"/>
    </TTGlyph>
    <TTGlyph name="Oslash" xMin="110" yMin="-18" xMax="1255" yMax="1498">
      <component glyphName="O" x="0" y="0" flags="0x204"/>
      <component glyphName="glyph00953" x="-16" y="0" flags="0x4"/>
    </TTGlyph>
    <TTGlyph name="Oslashacute" xMin="110" yMin="-18" xMax="1255" yMax="1888">
      <component glyphName="Oslash" x="0" y="0" flags="0x204"/>
      <component glyphName="glyph00861" x="80" y="0" flags="0x4"/>
    </TTGlyph>
    <TTGlyph name="Otilde" xMin="118" yMin="-18" xMax="1250" yMax="1830">
      <component glyphName="O" x="0" y="0" flags="0x204"/>
      <component glyphName="glyph00871" x="84" y="0" flags="0x4"/>
    </TTGlyph>
    <TTGlyph name="P" xMin="190" yMin="0" xMax="1085" yMax="1494">
      <contour>
        <pt x="190" y="0" on="1"/>
        <pt x="190" y="1461" on="1"/>
        <pt x="275" y="1477" on="0"/>
        <pt x="439" y="1494" on="0"/>
        <pt x="530" y="1494" on="1"/>
        <pt x="802" y="1494" on="0"/>
        <pt x="1085" y="1259" on="0"/>
        <pt x="1085" y="1007" on="1"/>
        <pt x="1085" y="770" on="0"/>
        <pt x="799" y="518" on="0"/>
        <pt x="482" y="518" on="1"/>
        <pt x="423" y="518" on="0"/>
        <pt x="317" y="523" on="0"/>
        <pt x="258" y="529" on="1"/>
        <pt x="258" y="0" on="1"/>
      </contour>
      <contour>
        <pt x="485" y="584" on="1"/>
        <pt x="765" y="584" on="0"/>
        <pt x="1013" y="794" on="0"/>
        <pt x="1013" y="1004" on="1"/>
        <pt x="1013" y="1226" on="0"/>
        <pt x="773" y="1428" on="0"/>
        <pt x="530" y="1428" on="1"/>
        <pt x="454" y="1428" on="0"/>
        <pt x="320" y="1417" on="0"/>
        <pt x="258" y="1406" on="1"/>
        <pt x="258" y="598" on="1"/>
        <pt x="313" y="591" on="0"/>
        <pt x="423" y="584" on="0"/>
      </contour>
    </TTGlyph>
    <TTGlyph name="Q" xMin="118" yMin="-180" xMax="1250" yMax="1498">
      <contour>
        <pt x="1213" y="-180" on="1"/>
        <pt x="897" y="-148" on="0"/>
        <pt x="473" y="-23" on="0"/>
        <pt x="225" y="188" on="0"/>
        <pt x="118" y="510" on="0"/>
        <pt x="118" y="740" on="1"/>
        <pt x="118" y="1013" on="0"/>
        <pt x="261" y="1346" on="0"/>
        <pt x="516" y="1498" on="0"/>
        <pt x="684" y="1498" on="1"/>
        <pt x="852" y="1498" on="0"/>
        <pt x="1107" y="1349" on="0"/>
        <pt x="1250" y="1016" on="0"/>
        <pt x="1250" y="740" on="1"/>
        <pt x="1250" y="492" on="0"/>
        <pt x="1125" y="156" on="0"/>
        <pt x="880" y="-14" on="0"/>
        <pt x="700" y="-14" on="1"/>
        <pt x="652" y="-14" on="0"/>
        <pt x="600" y="-8" on="1"/>
        <pt x="595" y="16" on="1"/>
        <pt x="678" y="-21" on="0"/>
        <pt x="889" y="-73" on="0"/>
        <pt x="1116" y="-105" on="0"/>
        <pt x="1223" y="-114" on="1"/>
      </contour>
      <contour>
        <pt x="684" y="49" on="1"/>
        <pt x="831" y="49" on="0"/>
        <pt x="1054" y="179" on="0"/>
        <pt x="1178" y="480" on="0"/>
        <pt x="1178" y="736" on="1"/>
        <pt x="1178" y="996" on="0"/>
        <pt x="1054" y="1300" on="0"/>
        <pt x="831" y="1431" on="0"/>
        <pt x="684" y="1431" on="1"/>
        <pt x="537" y="1431" on="0"/>
        <pt x="315" y="1301" on="0"/>
        <pt x="190" y="1000" on="0"/>
        <pt x="190" y="744" on="1"/>
        <pt x="190" y="484" on="0"/>
        <pt x="315" y="180" on="0"/>
        <pt x="537" y="49" on="0"/>
      </contour>
    </TTGlyph>
    <TTGlyph name="R" xMin="190" yMin="0" xMax="1197" yMax="1494">
      <contour>
        <pt x="190" y="0" on="1"/>
        <pt x="190" y="1461" on="1"/>
        <pt x="266" y="1475" on="0"/>
        <pt x="434" y="1494" on="0"/>
        <pt x="545" y="1494" on="1"/>
        <pt x="822" y="1494" on="0"/>
        <pt x="1087" y="1292" on="0"/>
        <pt x="1087" y="1077" on="1"/>
        <pt x="1087" y="936" on="0"/>
        <pt x="956" y="746" on="0"/>
        <pt x="692" y="651" on="0"/>
        <pt x="491" y="651" on="1"/>
        <pt x="419" y="651" on="0"/>
        <pt x="314" y="657" on="0"/>
        <pt x="258" y="661" on="1"/>
        <pt x="258" y="0" on="1"/>
      </contour>
      <contour>
        <pt x="1110" y="0" on="1"/>
        <pt x="561" y="703" on="1"/>
        <pt x="646" y="703" on="1"/>
        <pt x="1197" y="0" on="1"/>
      </contour>
      <contour>
        <pt x="489" y="716" on="1"/>
        <pt x="771" y="716" on="0"/>
        <pt x="1019" y="894" on="0"/>
        <pt x="1019" y="1075" on="1"/>
        <pt x="1019" y="1264" on="0"/>
        <pt x="795" y="1428" on="0"/>
        <pt x="541" y="1428" on="1"/>
        <pt x="452" y="1428" on="0"/>
        <pt x="324" y="1415" on="0"/>
        <pt x="258" y="1404" on="1"/>
        <pt x="258" y="726" on="1"/>
        <pt x="324" y="721" on="0"/>
        <pt x="419" y="716" on="0"/>
      </contour>
    </TTGlyph>
    <TTGlyph name="Racute" xMin="190" yMin="0" xMax="1197" yMax="1888">
      <component glyphName="R" x="0" y="0" flags="0x204"/>
      <component glyphName="glyph00861" x="2" y="0" flags="0x4"/>
    </TTGlyph>
    <TTGlyph name="Rcaron" xMin="190" yMin="0" xMax="1197" yMax="1888">
      <component glyphName="R" x="0" y="0" flags="0x204"/>
      <component glyphName="glyph00866" x="2" y="0" flags="0x4"/>
    </TTGlyph>
    <TTGlyph name="S" xMin="85" yMin="-18" xMax="925" yMax="1498">
      <contour>
        <pt x="438" y="-18" on="1"/>
        <pt x="361" y="-18" on="0"/>
        <pt x="184" y="10" on="0"/>
        <pt x="101" y="39" on="1"/>
        <pt x="101" y="107" on="1"/>
        <pt x="194" y="76" on="0"/>
        <pt x="365" y="48" on="0"/>
        <pt x="442" y="48" on="1"/>
        <pt x="646" y="48" on="0"/>
        <pt x="853" y="214" on="0"/>
        <pt x="853" y="377" on="1"/>
        <pt x="853" y="515" on="0"/>
        <pt x="694" y="659" on="0"/>
        <pt x="514" y="706" on="1"/>
        <pt x="452" y="722" on="1"/>
        <pt x="267" y="770" on="0"/>
        <pt x="85" y="958" on="0"/>
        <pt x="85" y="1112" on="1"/>
        <pt x="85" y="1291" on="0"/>
        <pt x="326" y="1498" on="0"/>
        <pt x="561" y="1498" on="1"/>
        <pt x="638" y="1498" on="0"/>
        <pt x="799" y="1476" on="0"/>
        <pt x="867" y="1453" on="1"/>
        <pt x="867" y="1385" on="1"/>
        <pt x="788" y="1410" on="0"/>
        <pt x="635" y="1432" on="0"/>
        <pt x="557" y="1432" on="1"/>
        <pt x="424" y="1432" on="0"/>
        <pt x="246" y="1359" on="0"/>
        <pt x="157" y="1218" on="0"/>
        <pt x="157" y="1116" on="1"/>
        <pt x="157" y="982" on="0"/>
        <pt x="303" y="836" on="0"/>
        <pt x="477" y="790" on="1"/>
        <pt x="539" y="774" on="1"/>
        <pt x="739" y="723" on="0"/>
        <pt x="925" y="535" on="0"/>
        <pt x="925" y="380" on="1"/>
        <pt x="925" y="251" on="0"/>
        <pt x="811" y="74" on="0"/>
        <pt x="594" y="-18" on="0"/>
      </contour>
    </TTGlyph>
    <TTGlyph name="Sacute" xMin="85" yMin="-18" xMax="925" yMax="1888">
      <component glyphName="S" x="0" y="0" flags="0x204"/>
      <component glyphName="glyph00861" x="-88" y="0" flags="0x4"/>
    </TTGlyph>
    <TTGlyph name="Scaron" xMin="85" yMin="-18" xMax="925" yMax="1888">
      <component glyphName="S" x="0" y="0" flags="0x204"/>
      <component glyphName="glyph00866" x="-88" y="0" flags="0x4"/>
    </TTGlyph>
    <TTGlyph name="Scedilla" xMin="85" yMin="-400" xMax="925" yMax="1498">
      <component glyphName="S" x="0" y="0" flags="0x204"/>
      <component glyphName="glyph00886" x="-88" y="0" flags="0x4"/>
    </TTGlyph>
    <TTGlyph name="Scircumflex" xMin="85" yMin="-18" xMax="925" yMax="1888">
      <component glyphName="S" x="0" y="0" flags="0x204"/>
      <component glyphName="glyph00865" x="-88" y="0" flags="0x4"/>
    </TTGlyph>
    <TTGlyph name="T" xMin="14" yMin="0" xMax="1098" yMax="1480">
      <contour>
        <pt x="522" y="0" on="1"/>
        <pt x="522" y="1414" on="1"/>
        <pt x="14" y="1414" on="1"/>
        <pt x="14" y="1480" on="1"/>
        <pt x="1098" y="1480" on="1"/>
        <pt x="1098" y="1414" on="1"/>
        <pt x="590" y="1414" on="1"/>
        <pt x="590" y="0" on="1"/>
      </contour>
    </TTGlyph>
    <TTGlyph name="Tbar" xMin="14" yMin="0" xMax="1098" yMax="1480">
      <component glyphName="T" x="0" y="0" flags="0x204"/>
      <component glyphName="glyph00928" x="-44" y="-280" flags="0x4"/>
    </TTGlyph>
    <TTGlyph name="Tcaron" xMin="14" yMin="0" xMax="1098" yMax="1888">
      <component glyphName="T" x="0" y="0" flags="0x204"/>
      <component glyphName="glyph00866" x="-44" y="0" flags="0x4"/>
    </TTGlyph>
    <TTGlyph name="Thorn" xMin="190" yMin="0" xMax="1085" yMax="1481">
      <contour>
        <pt x="190" y="0" on="1"/>
        <pt x="190" y="1481" on="1"/>
        <pt x="258" y="1481" on="1"/>
        <pt x="258" y="1226" on="1"/>
        <pt x="311" y="1235" on="0"/>
        <pt x="446" y="1248" on="0"/>
        <pt x="530" y="1248" on="1"/>
        <pt x="802" y="1248" on="0"/>
        <pt x="1085" y="1013" on="0"/>
        <pt x="1085" y="761" on="1"/>
        <pt x="1085" y="524" on="0"/>
        <pt x="799" y="272" on="0"/>
        <pt x="482" y="272" on="1"/>
        <pt x="423" y="272" on="0"/>
        <pt x="317" y="277" on="0"/>
        <pt x="258" y="283" on="1"/>
        <pt x="258" y="0" on="1"/>
      </contour>
      <contour>
        <pt x="485" y="338" on="1"/>
        <pt x="765" y="338" on="0"/>
        <pt x="1013" y="548" on="0"/>
        <pt x="1013" y="758" on="1"/>
        <pt x="1013" y="980" on="0"/>
        <pt x="773" y="1182" on="0"/>
        <pt x="530" y="1182" on="1"/>
        <pt x="454" y="1182" on="0"/>
        <pt x="320" y="1171" on="0"/>
        <pt x="258" y="1160" on="1"/>
        <pt x="258" y="352" on="1"/>
        <pt x="313" y="345" on="0"/>
        <pt x="423" y="338" on="0"/>
      </contour>
    </TTGlyph>
    <TTGlyph name="U" xMin="182" yMin="-18" xMax="1190" yMax="1480">
      <contour>
        <pt x="687" y="-18" on="1"/>
        <pt x="427" y="-18" on="0"/>
        <pt x="182" y="245" on="0"/>
        <pt x="182" y="529" on="1"/>
        <pt x="182" y="1480" on="1"/>
        <pt x="250" y="1480" on="1"/>
        <pt x="250" y="519" on="1"/>
        <pt x="250" y="275" on="0"/>
        <pt x="458" y="48" on="0"/>
        <pt x="687" y="48" on="1"/>
        <pt x="916" y="48" on="0"/>
        <pt x="1124" y="275" on="0"/>
        <pt x="1124" y="519" on="1"/>
        <pt x="1124" y="1480" on="1"/>
        <pt x="1190" y="1480" on="1"/>
        <pt x="1190" y="529" on="1"/>
        <pt x="1190" y="245" on="0"/>
        <pt x="947" y="-18" on="0"/>
      </contour>
    </TTGlyph>
    <TTGlyph name="Uacute" xMin="182" yMin="-18" xMax="1190" yMax="1888">
      <component glyphName="U" x="0" y="0" flags="0x204"/>
      <component glyphName="glyph00861" x="87" y="0" flags="0x4"/>
    </TTGlyph>
    <TTGlyph name="Ubreve" xMin="182" yMin="-18" xMax="1190" yMax="1860">
      <component glyphName="U" x="0" y="0" flags="0x204"/>
      <component glyphName="glyph00868" x="87" y="0" flags="0x4"/>
    </TTGlyph>
    <TTGlyph name="Ucircumflex" xMin="182" yMin="-18" xMax="1190" yMax="1888">
      <component glyphName="U" x="0" y="0" flags="0x204"/>
      <component glyphName="glyph00865" x="87" y="0" flags="0x4"/>
    </TTGlyph>
    <TTGlyph name="Udieresis" xMin="182" yMin="-18" xMax="1190" yMax="1816">
      <component glyphName="U" x="0" y="0" flags="0x204"/>
      <component glyphName="glyph00855" x="87" y="0" flags="0x4"/>
    </TTGlyph>
    <TTGlyph name="Ugrave" xMin="182" yMin="-18" xMax="1190" yMax="1888">
      <component glyphName="U" x="0" y="0" flags="0x204"/>
      <component glyphName="glyph00860" x="87" y="0" flags="0x4"/>
    </TTGlyph>
    <TTGlyph name="Uhorn" xMin="182" yMin="-18" xMax="1422" yMax="1776">
      <contour>
        <pt x="687" y="-18" on="1"/>
        <pt x="427" y="-18" on="0"/>
        <pt x="182" y="245" on="0"/>
        <pt x="182" y="529" on="1"/>
        <pt x="182" y="1480" on="1"/>
        <pt x="250" y="1480" on="1"/>
        <pt x="250" y="519" on="1"/>
        <pt x="250" y="275" on="0"/>
        <pt x="458" y="48" on="0"/>
        <pt x="687" y="48" on="1"/>
        <pt x="916" y="48" on="0"/>
        <pt x="1124" y="275" on="0"/>
        <pt x="1124" y="519" on="1"/>
        <pt x="1124" y="1480" on="1"/>
        <pt x="1157" y="1480" on="1"/>
        <pt x="1248" y="1480" on="0"/>
        <pt x="1356" y="1552" on="0"/>
        <pt x="1356" y="1634" on="1"/>
        <pt x="1356" y="1676" on="0"/>
        <pt x="1342" y="1742" on="0"/>
        <pt x="1331" y="1776" on="1"/>
        <pt x="1397" y="1776" on="1"/>
        <pt x="1410" y="1742" on="0"/>
        <pt x="1422" y="1677" on="0"/>
        <pt x="1422" y="1632" on="1"/>
        <pt x="1422" y="1532" on="0"/>
        <pt x="1297" y="1422" on="0"/>
        <pt x="1190" y="1417" on="1"/>
        <pt x="1190" y="529" on="1"/>
        <pt x="1190" y="245" on="0"/>
        <pt x="947" y="-18" on="0"/>
      </contour>
    </TTGlyph>
    <TTGlyph name="Uhungarumlaut" xMin="182" yMin="-18" xMax="1190" yMax="1888">
      <component glyphName="U" x="0" y="0" flags="0x204"/>
      <component glyphName="glyph00863" x="87" y="0" flags="0x4"/>
    </TTGlyph>
    <TTGlyph name="Umacron" xMin="182" yMin="-18" xMax="1190" yMax="1782">
      <component glyphName="U" x="0" y="0" flags="0x204"/>
      <component glyphName="glyph00875" x="87" y="0" flags="0x4"/>
    </TTGlyph>
    <TTGlyph name="Uogonek" xMin="182" yMin="-398" xMax="1190" yMax="1480">
      <contour>
        <pt x="780" y="-398" on="1"/>
        <pt x="678" y="-398" on="0"/>
        <pt x="571" y="-309" on="0"/>
        <pt x="571" y="-225" on="1"/>
        <pt x="571" y="-163" on="0"/>
        <pt x="641" y="-48" on="0"/>
        <pt x="725" y="-5" on="1"/>
        <pt x="732" y="-18" on="1"/>
        <pt x="687" y="-18" on="1"/>
        <pt x="427" y="-18" on="0"/>
        <pt x="182" y="245" on="0"/>
        <pt x="182" y="529" on="1"/>
        <pt x="182" y="1480" on="1"/>
        <pt x="250" y="1480" on="1"/>
        <pt x="250" y="519" on="1"/>
        <pt x="250" y="275" on="0"/>
        <pt x="458" y="48" on="0"/>
        <pt x="687" y="48" on="1"/>
        <pt x="916" y="48" on="0"/>
        <pt x="1124" y="275" on="0"/>
        <pt x="1124" y="519" on="1"/>
        <pt x="1124" y="1480" on="1"/>
        <pt x="1190" y="1480" on="1"/>
        <pt x="1190" y="529" on="1"/>
        <pt x="1190" y="316" on="0"/>
        <pt x="1048" y="52" on="0"/>
        <pt x="882" y="5" on="1"/>
        <pt x="786" y="-23" on="0"/>
        <pt x="674" y="-97" on="0"/>
        <pt x="627" y="-180" on="0"/>
        <pt x="627" y="-224" on="1"/>
        <pt x="627" y="-285" on="0"/>
        <pt x="704" y="-346" on="0"/>
        <pt x="777" y="-346" on="1"/>
        <pt x="816" y="-346" on="0"/>
        <pt x="895" y="-327" on="0"/>
        <pt x="947" y="-305" on="1"/>
        <pt x="947" y="-359" on="1"/>
        <pt x="905" y="-378" on="0"/>
        <pt x="821" y="-398" on="0"/>
      </contour>
    </TTGlyph>
    <TTGlyph name="Uring" xMin="182" yMin="-18" xMax="1190" yMax="1979">
      <component glyphName="U" x="0" y="0" flags="0x204"/>
      <component glyphName="glyph00869" x="87" y="0" flags="0x4"/>
    </TTGlyph>
    <TTGlyph name="Utilde" xMin="182" yMin="-18" xMax="1190" yMax="1830">
      <component glyphName="U" x="0" y="0" flags="0x204"/>
      <component glyphName="glyph00871" x="87" y="0" flags="0x4"/>
    </TTGlyph>
    <TTGlyph name="V" xMin="17" yMin="0" xMax="1229" yMax="1480">
      <contour>
        <pt x="576" y="0" on="1"/>
        <pt x="17" y="1480" on="1"/>
        <pt x="92" y="1480" on="1"/>
        <pt x="633" y="40" on="1"/>
        <pt x="617" y="40" on="1"/>
        <pt x="1158" y="1480" on="1"/>
        <pt x="1229" y="1480" on="1"/>
        <pt x="670" y="0" on="1"/>
      </contour>
    </TTGlyph>
    <TTGlyph name="W" xMin="69" yMin="0" xMax="1951" yMax="1480">
      <contour>
        <pt x="502" y="0" on="1"/>
        <pt x="69" y="1480" on="1"/>
        <pt x="142" y="1480" on="1"/>
        <pt x="558" y="40" on="1"/>
        <pt x="542" y="40" on="1"/>
        <pt x="964" y="1480" on="1"/>
        <pt x="1058" y="1480" on="1"/>
        <pt x="1481" y="40" on="1"/>
        <pt x="1465" y="40" on="1"/>
        <pt x="1882" y="1480" on="1"/>
        <pt x="1951" y="1480" on="1"/>
        <pt x="1519" y="0" on="1"/>
        <pt x="1425" y="0" on="1"/>
        <pt x="1002" y="1432" on="1"/>
        <pt x="1019" y="1432" on="1"/>
        <pt x="596" y="0" on="1"/>
      </contour>
    </TTGlyph>
    <TTGlyph name="Wacute" xMin="69" yMin="0" xMax="1951" yMax="1888">
      <component glyphName="W" x="0" y="0" flags="0x204"/>
      <component glyphName="glyph00861" x="412" y="0" flags="0x4"/>
    </TTGlyph>
    <TTGlyph name="Wcircumflex" xMin="69" yMin="0" xMax="1951" yMax="1888">
      <component glyphName="W" x="0" y="0" flags="0x204"/>
      <component glyphName="glyph00865" x="412" y="0" flags="0x4"/>
    </TTGlyph>
    <TTGlyph name="Wdieresis" xMin="69" yMin="0" xMax="1951" yMax="1816">
      <component glyphName="W" x="0" y="0" flags="0x204"/>
      <component glyphName="glyph00855" x="412" y="0" flags="0x4"/>
    </TTGlyph>
    <TTGlyph name="Wgrave" xMin="69" yMin="0" xMax="1951" yMax="1888">
      <component glyphName="W" x="0" y="0" flags="0x204"/>
      <component glyphName="glyph00860" x="412" y="0" flags="0x4"/>
    </TTGlyph>
    <TTGlyph name="X" xMin="35" yMin="0" xMax="1186" yMax="1480">
      <contour>
        <pt x="1100" y="0" on="1"/>
        <pt x="610" y="688" on="1"/>
        <pt x="569" y="747" on="1"/>
        <pt x="45" y="1480" on="1"/>
        <pt x="130" y="1480" on="1"/>
        <pt x="611" y="806" on="1"/>
        <pt x="652" y="748" on="1"/>
        <pt x="1186" y="0" on="1"/>
      </contour>
      <contour>
        <pt x="35" y="0" on="1"/>
        <pt x="569" y="747" on="1"/>
        <pt x="611" y="806" on="1"/>
        <pt x="1093" y="1480" on="1"/>
        <pt x="1176" y="1480" on="1"/>
        <pt x="652" y="748" on="1"/>
        <pt x="610" y="688" on="1"/>
        <pt x="119" y="0" on="1"/>
      </contour>
    </TTGlyph>
    <TTGlyph name="Y" xMin="-19" yMin="0" xMax="1123" yMax="1480">
      <contour>
        <pt x="522" y="0" on="1"/>
        <pt x="522" y="707" on="1"/>
        <pt x="540" y="652" on="1"/>
        <pt x="-19" y="1480" on="1"/>
        <pt x="64" y="1480" on="1"/>
        <pt x="574" y="720" on="1"/>
        <pt x="540" y="720" on="1"/>
        <pt x="1043" y="1480" on="1"/>
        <pt x="1123" y="1480" on="1"/>
        <pt x="572" y="652" on="1"/>
        <pt x="590" y="707" on="1"/>
        <pt x="590" y="0" on="1"/>
      </contour>
    </TTGlyph>
    <TTGlyph name="Yacute" xMin="-19" yMin="0" xMax="1123" yMax="1888">
      <component glyphName="Y" x="0" y="0" flags="0x204"/>
      <component glyphName="glyph00861" x="-44" y="0" flags="0x4"/>
    </TTGlyph>
    <TTGlyph name="Ycircumflex" xMin="-19" yMin="0" xMax="1123" yMax="1888">
      <component glyphName="Y" x="0" y="0" flags="0x204"/>
      <component glyphName="glyph00865" x="-44" y="0" flags="0x4"/>
    </TTGlyph>
    <TTGlyph name="Ydieresis" xMin="-19" yMin="0" xMax="1123" yMax="1816">
      <component glyphName="Y" x="0" y="0" flags="0x204"/>
      <component glyphName="glyph00855" x="-44" y="0" flags="0x4"/>
    </TTGlyph>
    <TTGlyph name="Ygrave" xMin="-19" yMin="0" xMax="1123" yMax="1888">
      <component glyphName="Y" x="0" y="0" flags="0x204"/>
      <component glyphName="glyph00860" x="-44" y="0" flags="0x4"/>
    </TTGlyph>
    <TTGlyph name="Z" xMin="63" yMin="0" xMax="1040" yMax="1480">
      <contour>
        <pt x="63" y="0" on="1"/>
        <pt x="63" y="40" on="1"/>
        <pt x="950" y="1441" on="1"/>
        <pt x="964" y="1416" on="1"/>
        <pt x="75" y="1416" on="1"/>
        <pt x="75" y="1480" on="1"/>
        <pt x="1028" y="1480" on="1"/>
        <pt x="1028" y="1440" on="1"/>
        <pt x="141" y="39" on="1"/>
        <pt x="127" y="64" on="1"/>
        <pt x="1040" y="64" on="1"/>
        <pt x="1040" y="0" on="1"/>
      </contour>
    </TTGlyph>
    <TTGlyph name="Zacute" xMin="63" yMin="0" xMax="1040" yMax="1888">
      <component glyphName="Z" x="0" y="0" flags="0x204"/>
      <component glyphName="glyph00861" x="-48" y="0" flags="0x4"/>
    </TTGlyph>
    <TTGlyph name="Zcaron" xMin="63" yMin="0" xMax="1040" yMax="1888">
      <component glyphName="Z" x="0" y="0" flags="0x204"/>
      <component glyphName="glyph00866" x="-48" y="0" flags="0x4"/>
    </TTGlyph>
    <TTGlyph name="Zdotaccent" xMin="63" yMin="0" xMax="1040" yMax="1816">
      <component glyphName="Z" x="0" y="0" flags="0x204"/>
      <component glyphName="glyph00858" x="-48" y="0" flags="0x4"/>
    </TTGlyph>
    <TTGlyph name="a" xMin="39" yMin="0" xMax="1082" yMax="1190">
      <contour>
        <pt x="39" y="0" on="1"/>
        <pt x="515" y="1190" on="1"/>
        <pt x="604" y="1190" on="1"/>
        <pt x="1082" y="0" on="1"/>
        <pt x="1008" y="0" on="1"/>
        <pt x="549" y="1153" on="1"/>
        <pt x="569" y="1153" on="1"/>
        <pt x="110" y="0" on="1"/>
      </contour>
      <contour>
        <pt x="252" y="416" on="1"/>
        <pt x="271" y="480" on="1"/>
        <pt x="849" y="480" on="1"/>
        <pt x="867" y="416" on="1"/>
      </contour>
    </TTGlyph>
    <TTGlyph name="aacute" xMin="39" yMin="0" xMax="1082" yMax="1598">
      <component glyphName="a" x="0" y="0" flags="0x204"/>
      <component glyphName="acutecomb" x="-39" y="-290" flags="0x4"/>
    </TTGlyph>
    <TTGlyph name="abreve" xMin="39" yMin="0" xMax="1082" yMax="1570">
      <component glyphName="a" x="0" y="0" flags="0x204"/>
      <component glyphName="uni0306" x="-39" y="-290" flags="0x4"/>
    </TTGlyph>
    <TTGlyph name="acircumflex" xMin="39" yMin="0" xMax="1082" yMax="1598">
      <component glyphName="a" x="0" y="0" flags="0x204"/>
      <component glyphName="uni0302" x="-39" y="-290" flags="0x4"/>
    </TTGlyph>
    <TTGlyph name="acute" xMin="568" yMin="1264" xMax="854" yMax="1616">
      <component glyphName="glyph00826" x="0" y="0" flags="0x4"/>
    </TTGlyph>
    <TTGlyph name="acutecomb" xMin="568" yMin="1616" xMax="822" yMax="1888">
      <component glyphName="glyph00861" x="0" y="0" flags="0x204"/>
    </TTGlyph>
    <TTGlyph name="adieresis" xMin="39" yMin="0" xMax="1082" yMax="1526">
      <component glyphName="a" x="0" y="0" flags="0x204"/>
      <component glyphName="uni0308" x="-39" y="-290" flags="0x4"/>
    </TTGlyph>
    <TTGlyph name="ae" xMin="39" yMin="0" xMax="1455" yMax="1190">
      <contour>
        <pt x="39" y="0" on="1"/>
        <pt x="524" y="1190" on="1"/>
        <pt x="747" y="1190" on="1"/>
        <pt x="747" y="1126" on="1"/>
        <pt x="568" y="1126" on="1"/>
        <pt x="110" y="0" on="1"/>
      </contour>
      <contour>
        <pt x="257" y="416" on="1"/>
        <pt x="276" y="480" on="1"/>
        <pt x="797" y="480" on="1"/>
        <pt x="797" y="416" on="1"/>
      </contour>
      <contour>
        <pt x="793" y="0" on="1"/>
        <pt x="712" y="1190" on="1"/>
        <pt x="1447" y="1190" on="1"/>
        <pt x="1447" y="1126" on="1"/>
        <pt x="783" y="1126" on="1"/>
        <pt x="857" y="64" on="1"/>
        <pt x="1455" y="64" on="1"/>
        <pt x="1455" y="0" on="1"/>
      </contour>
      <contour>
        <pt x="801" y="579" on="1"/>
        <pt x="801" y="643" on="1"/>
        <pt x="1365" y="643" on="1"/>
        <pt x="1365" y="579" on="1"/>
      </contour>
    </TTGlyph>
    <TTGlyph name="aeacute" xMin="39" yMin="0" xMax="1455" yMax="1598">
      <component glyphName="ae" x="0" y="0" flags="0x204"/>
      <component glyphName="acutecomb" x="148" y="-290" flags="0x4"/>
    </TTGlyph>
    <TTGlyph name="agrave" xMin="39" yMin="0" xMax="1082" yMax="1598">
      <component glyphName="a" x="0" y="0" flags="0x204"/>
      <component glyphName="gravecomb" x="-39" y="-290" flags="0x4"/>
    </TTGlyph>
    <TTGlyph name="amacron" xMin="39" yMin="0" xMax="1082" yMax="1492">
      <component glyphName="a" x="0" y="0" flags="0x204"/>
      <component glyphName="uni0304" x="-39" y="-290" flags="0x4"/>
    </TTGlyph>
    <TTGlyph name="ampersand" xMin="104" yMin="-16" xMax="1204" yMax="1204">
      <contour>
        <pt x="1164" y="-16" on="1"/>
        <pt x="505" y="485" on="1"/>
        <pt x="407" y="560" on="0"/>
        <pt x="292" y="684" on="0"/>
        <pt x="243" y="806" on="0"/>
        <pt x="243" y="877" on="1"/>
        <pt x="243" y="1034" on="0"/>
        <pt x="447" y="1204" on="0"/>
        <pt x="653" y="1204" on="1"/>
        <pt x="709" y="1204" on="0"/>
        <pt x="810" y="1192" on="0"/>
        <pt x="853" y="1181" on="1"/>
        <pt x="853" y="1115" on="1"/>
        <pt x="804" y="1127" on="0"/>
        <pt x="705" y="1139" on="0"/>
        <pt x="652" y="1139" on="1"/>
        <pt x="476" y="1139" on="0"/>
        <pt x="315" y="1004" on="0"/>
        <pt x="315" y="876" on="1"/>
        <pt x="315" y="817" on="0"/>
        <pt x="354" y="715" on="0"/>
        <pt x="454" y="607" on="0"/>
        <pt x="545" y="537" on="1"/>
        <pt x="1204" y="36" on="1"/>
      </contour>
      <contour>
        <pt x="544" y="-14" on="1"/>
        <pt x="324" y="-14" on="0"/>
        <pt x="104" y="173" on="0"/>
        <pt x="104" y="323" on="1"/>
        <pt x="104" y="437" on="0"/>
        <pt x="224" y="608" on="0"/>
        <pt x="337" y="658" on="1"/>
        <pt x="375" y="608" on="1"/>
        <pt x="273" y="564" on="0"/>
        <pt x="175" y="424" on="0"/>
        <pt x="175" y="330" on="1"/>
        <pt x="175" y="205" on="0"/>
        <pt x="354" y="49" on="0"/>
        <pt x="548" y="49" on="1"/>
        <pt x="734" y="49" on="0"/>
        <pt x="940" y="217" on="0"/>
        <pt x="940" y="395" on="1"/>
        <pt x="940" y="505" on="0"/>
        <pt x="901" y="617" on="1"/>
        <pt x="967" y="617" on="1"/>
        <pt x="986" y="563" on="0"/>
        <pt x="1003" y="449" on="0"/>
        <pt x="1003" y="395" on="1"/>
        <pt x="1003" y="194" on="0"/>
        <pt x="762" y="-14" on="0"/>
      </contour>
    </TTGlyph>
    <TTGlyph name="aogonek" xMin="39" yMin="0" xMax="1082" yMax="1190">
      <component glyphName="a" x="0" y="0" flags="0x204"/>
      <component glyphName="uni0328" x="193" y="0" flags="0x4"/>
    </TTGlyph>
    <TTGlyph name="approxequal" xMin="167" yMin="490" xMax="895" yMax="1030">
      <contour>
        <pt x="703" y="852" on="1"/>
        <pt x="637" y="852" on="0"/>
        <pt x="520" y="910" on="0"/>
        <pt x="413" y="968" on="0"/>
        <pt x="361" y="968" on="1"/>
        <pt x="304" y="968" on="0"/>
        <pt x="208" y="914" on="0"/>
        <pt x="167" y="860" on="1"/>
        <pt x="167" y="940" on="1"/>
        <pt x="235" y="1030" on="0"/>
        <pt x="359" y="1030" on="1"/>
        <pt x="425" y="1030" on="0"/>
        <pt x="542" y="972" on="0"/>
        <pt x="649" y="914" on="0"/>
        <pt x="701" y="914" on="1"/>
        <pt x="758" y="914" on="0"/>
        <pt x="855" y="968" on="0"/>
        <pt x="895" y="1022" on="1"/>
        <pt x="895" y="942" on="1"/>
        <pt x="827" y="852" on="0"/>
      </contour>
      <contour>
        <pt x="703" y="490" on="1"/>
        <pt x="637" y="490" on="0"/>
        <pt x="520" y="548" on="0"/>
        <pt x="413" y="606" on="0"/>
        <pt x="361" y="606" on="1"/>
        <pt x="304" y="606" on="0"/>
        <pt x="208" y="552" on="0"/>
        <pt x="167" y="498" on="1"/>
        <pt x="167" y="578" on="1"/>
        <pt x="235" y="668" on="0"/>
        <pt x="359" y="668" on="1"/>
        <pt x="425" y="668" on="0"/>
        <pt x="542" y="610" on="0"/>
        <pt x="649" y="552" on="0"/>
        <pt x="701" y="552" on="1"/>
        <pt x="758" y="552" on="0"/>
        <pt x="855" y="606" on="0"/>
        <pt x="895" y="660" on="1"/>
        <pt x="895" y="580" on="1"/>
        <pt x="827" y="490" on="0"/>
      </contour>
    </TTGlyph>
    <TTGlyph name="aring" xMin="39" yMin="0" xMax="1082" yMax="1689">
      <component glyphName="a" x="0" y="0" flags="0x204"/>
      <component glyphName="uni030A" x="-39" y="-290" flags="0x4"/>
    </TTGlyph>
    <TTGlyph name="aringacute" xMin="39" yMin="0" xMax="1082" yMax="1798">
      <component glyphName="a" x="0" y="0" flags="0x204"/>
      <component glyphName="glyph00926" x="-39" y="-290" flags="0x4"/>
    </TTGlyph>
    <TTGlyph name="arrowdown" xMin="167" yMin="200" xMax="1179" yMax="1322">
      <contour>
        <pt x="673" y="200" on="1"/>
        <pt x="167" y="706" on="1"/>
        <pt x="211" y="750" on="1"/>
        <pt x="639" y="322" on="1"/>
        <pt x="639" y="1322" on="1"/>
        <pt x="707" y="1322" on="1"/>
        <pt x="707" y="322" on="1"/>
        <pt x="1135" y="750" on="1"/>
        <pt x="1179" y="706" on="1"/>
      </contour>
    </TTGlyph>
    <TTGlyph name="arrowleft" xMin="167" yMin="254" xMax="1289" yMax="1266">
      <contour>
        <pt x="673" y="254" on="1"/>
        <pt x="167" y="760" on="1"/>
        <pt x="673" y="1266" on="1"/>
        <pt x="717" y="1222" on="1"/>
        <pt x="289" y="794" on="1"/>
        <pt x="1289" y="794" on="1"/>
        <pt x="1289" y="726" on="1"/>
        <pt x="289" y="726" on="1"/>
        <pt x="717" y="298" on="1"/>
      </contour>
    </TTGlyph>
    <TTGlyph name="arrowright" xMin="167" yMin="254" xMax="1289" yMax="1266">
      <contour>
        <pt x="783" y="254" on="1"/>
        <pt x="739" y="298" on="1"/>
        <pt x="1167" y="726" on="1"/>
        <pt x="167" y="726" on="1"/>
        <pt x="167" y="794" on="1"/>
        <pt x="1167" y="794" on="1"/>
        <pt x="739" y="1222" on="1"/>
        <pt x="783" y="1266" on="1"/>
        <pt x="1289" y="760" on="1"/>
      </contour>
    </TTGlyph>
    <TTGlyph name="arrowup" xMin="167" yMin="200" xMax="1179" yMax="1322">
      <contour>
        <pt x="639" y="200" on="1"/>
        <pt x="639" y="1200" on="1"/>
        <pt x="211" y="772" on="1"/>
        <pt x="167" y="816" on="1"/>
        <pt x="673" y="1322" on="1"/>
        <pt x="1179" y="816" on="1"/>
        <pt x="1135" y="772" on="1"/>
        <pt x="707" y="1200" on="1"/>
        <pt x="707" y="200" on="1"/>
      </contour>
    </TTGlyph>
    <TTGlyph name="asciicircum" xMin="114" yMin="740" xMax="986" yMax="1480">
      <contour>
        <pt x="114" y="740" on="1"/>
        <pt x="502" y="1480" on="1"/>
        <pt x="596" y="1480" on="1"/>
        <pt x="986" y="740" on="1"/>
        <pt x="907" y="740" on="1"/>
        <pt x="546" y="1436" on="1"/>
        <pt x="554" y="1436" on="1"/>
        <pt x="193" y="740" on="1"/>
      </contour>
    </TTGlyph>
    <TTGlyph name="asciitilde" xMin="167" yMin="664" xMax="895" yMax="844">
      <contour>
        <pt x="703" y="664" on="1"/>
        <pt x="651" y="664" on="0"/>
        <pt x="556" y="705" on="0"/>
        <pt x="512" y="727" on="1"/>
        <pt x="472" y="747" on="0"/>
        <pt x="398" y="780" on="0"/>
        <pt x="361" y="780" on="1"/>
        <pt x="304" y="780" on="0"/>
        <pt x="208" y="726" on="0"/>
        <pt x="167" y="672" on="1"/>
        <pt x="167" y="754" on="1"/>
        <pt x="235" y="844" on="0"/>
        <pt x="359" y="844" on="1"/>
        <pt x="412" y="844" on="0"/>
        <pt x="507" y="804" on="0"/>
        <pt x="550" y="781" on="1"/>
        <pt x="590" y="761" on="0"/>
        <pt x="664" y="728" on="0"/>
        <pt x="701" y="728" on="1"/>
        <pt x="758" y="728" on="0"/>
        <pt x="855" y="782" on="0"/>
        <pt x="895" y="836" on="1"/>
        <pt x="895" y="754" on="1"/>
        <pt x="827" y="664" on="0"/>
      </contour>
    </TTGlyph>
    <TTGlyph name="asterisk" xMin="30" yMin="869" xMax="838" yMax="1616">
      <contour>
        <pt x="460" y="1208" on="1"/>
        <pt x="592" y="1052" on="1"/>
        <pt x="699" y="907" on="1"/>
        <pt x="647" y="869" on="1"/>
        <pt x="540" y="1014" on="1"/>
        <pt x="434" y="1188" on="1"/>
        <pt x="328" y="1014" on="1"/>
        <pt x="221" y="869" on="1"/>
        <pt x="169" y="907" on="1"/>
        <pt x="276" y="1052" on="1"/>
        <pt x="408" y="1208" on="1"/>
        <pt x="210" y="1256" on="1"/>
        <pt x="30" y="1314" on="1"/>
        <pt x="50" y="1374" on="1"/>
        <pt x="228" y="1316" on="1"/>
        <pt x="418" y="1238" on="1"/>
        <pt x="402" y="1442" on="1"/>
        <pt x="402" y="1616" on="1"/>
        <pt x="466" y="1616" on="1"/>
        <pt x="466" y="1442" on="1"/>
        <pt x="450" y="1238" on="1"/>
        <pt x="640" y="1316" on="1"/>
        <pt x="818" y="1374" on="1"/>
        <pt x="838" y="1314" on="1"/>
        <pt x="658" y="1256" on="1"/>
      </contour>
    </TTGlyph>
    <TTGlyph name="at" xMin="118" yMin="-460" xMax="1697" yMax="1498">
      <contour>
        <pt x="955" y="-460" on="1"/>
        <pt x="684" y="-459" on="0"/>
        <pt x="310" y="-256" on="0"/>
        <pt x="118" y="177" on="0"/>
        <pt x="118" y="520" on="1"/>
        <pt x="118" y="861" on="0"/>
        <pt x="305" y="1293" on="0"/>
        <pt x="661" y="1498" on="0"/>
        <pt x="913" y="1498" on="1"/>
        <pt x="1296" y="1498" on="0"/>
        <pt x="1697" y="1047" on="0"/>
        <pt x="1697" y="574" on="1"/>
        <pt x="1697" y="361" on="0"/>
        <pt x="1615" y="102" on="0"/>
        <pt x="1478" y="-16" on="0"/>
        <pt x="1395" y="-16" on="1"/>
        <pt x="1313" y="-16" on="0"/>
        <pt x="1217" y="62" on="0"/>
        <pt x="1203" y="126" on="1"/>
        <pt x="1194" y="126" on="1"/>
        <pt x="1136" y="60" on="0"/>
        <pt x="962" y="-16" on="0"/>
        <pt x="862" y="-16" on="1"/>
        <pt x="718" y="-16" on="0"/>
        <pt x="548" y="131" on="0"/>
        <pt x="548" y="267" on="1"/>
        <pt x="548" y="402" on="0"/>
        <pt x="717" y="551" on="0"/>
        <pt x="897" y="573" on="1"/>
        <pt x="1234" y="614" on="1"/>
        <pt x="1234" y="548" on="1"/>
        <pt x="896" y="507" on="1"/>
        <pt x="753" y="490" on="0"/>
        <pt x="622" y="376" on="0"/>
        <pt x="622" y="273" on="1"/>
        <pt x="622" y="164" on="0"/>
        <pt x="744" y="50" on="0"/>
        <pt x="865" y="50" on="1"/>
        <pt x="953" y="50" on="0"/>
        <pt x="1127" y="129" on="0"/>
        <pt x="1195" y="220" on="1"/>
        <pt x="1195" y="749" on="1"/>
        <pt x="1195" y="861" on="0"/>
        <pt x="1125" y="982" on="0"/>
        <pt x="994" y="1030" on="0"/>
        <pt x="900" y="1030" on="1"/>
        <pt x="841" y="1030" on="0"/>
        <pt x="690" y="1007" on="0"/>
        <pt x="612" y="979" on="1"/>
        <pt x="612" y="1047" on="1"/>
        <pt x="674" y="1071" on="0"/>
        <pt x="831" y="1096" on="0"/>
        <pt x="900" y="1096" on="1"/>
        <pt x="1015" y="1096" on="0"/>
        <pt x="1177" y="1032" on="0"/>
        <pt x="1263" y="881" on="0"/>
        <pt x="1263" y="749" on="1"/>
        <pt x="1263" y="226" on="1"/>
        <pt x="1263" y="131" on="0"/>
        <pt x="1329" y="48" on="0"/>
        <pt x="1399" y="48" on="1"/>
        <pt x="1458" y="48" on="0"/>
        <pt x="1563" y="147" on="0"/>
        <pt x="1629" y="373" on="0"/>
        <pt x="1629" y="565" on="1"/>
        <pt x="1629" y="871" on="0"/>
        <pt x="1466" y="1253" on="0"/>
        <pt x="1147" y="1432" on="0"/>
        <pt x="913" y="1432" on="1"/>
        <pt x="683" y="1432" on="0"/>
        <pt x="360" y="1248" on="0"/>
        <pt x="190" y="848" on="0"/>
        <pt x="190" y="524" on="1"/>
        <pt x="190" y="194" on="0"/>
        <pt x="364" y="-210" on="0"/>
        <pt x="705" y="-394" on="0"/>
        <pt x="955" y="-394" on="1"/>
        <pt x="1049" y="-394" on="0"/>
        <pt x="1224" y="-365" on="0"/>
        <pt x="1318" y="-336" on="1"/>
        <pt x="1318" y="-404" on="1"/>
        <pt x="1239" y="-429" on="0"/>
        <pt x="1053" y="-460" on="0"/>
      </contour>
    </TTGlyph>
    <TTGlyph name="atilde" xMin="39" yMin="0" xMax="1082" yMax="1540">
      <component glyphName="a" x="0" y="0" flags="0x204"/>
      <component glyphName="tildecomb" x="-39" y="-290" flags="0x4"/>
    </TTGlyph>
    <TTGlyph name="b" xMin="192" yMin="-8" xMax="1004" yMax="1202">
      <contour>
        <pt x="483" y="-8" on="1"/>
        <pt x="433" y="-8" on="0"/>
        <pt x="339" y="-5" on="0"/>
        <pt x="245" y="2" on="0"/>
        <pt x="192" y="8" on="1"/>
        <pt x="192" y="1173" on="1"/>
        <pt x="241" y="1183" on="0"/>
        <pt x="342" y="1195" on="0"/>
        <pt x="450" y="1202" on="0"/>
        <pt x="509" y="1202" on="1"/>
        <pt x="751" y="1202" on="0"/>
        <pt x="967" y="1047" on="0"/>
        <pt x="967" y="891" on="1"/>
        <pt x="967" y="788" on="0"/>
        <pt x="845" y="628" on="0"/>
        <pt x="695" y="610" on="1"/>
        <pt x="698" y="622" on="1"/>
        <pt x="853" y="605" on="0"/>
        <pt x="1004" y="445" on="0"/>
        <pt x="1004" y="318" on="1"/>
        <pt x="1004" y="212" on="0"/>
        <pt x="899" y="66" on="0"/>
        <pt x="670" y="-8" on="0"/>
      </contour>
      <contour>
        <pt x="486" y="53" on="1"/>
        <pt x="655" y="53" on="0"/>
        <pt x="851" y="113" on="0"/>
        <pt x="936" y="232" on="0"/>
        <pt x="936" y="320" on="1"/>
        <pt x="936" y="449" on="0"/>
        <pt x="760" y="581" on="0"/>
        <pt x="564" y="581" on="1"/>
        <pt x="245" y="581" on="1"/>
        <pt x="245" y="644" on="1"/>
        <pt x="540" y="644" on="1"/>
        <pt x="743" y="644" on="0"/>
        <pt x="900" y="774" on="0"/>
        <pt x="900" y="889" on="1"/>
        <pt x="900" y="1022" on="0"/>
        <pt x="720" y="1139" on="0"/>
        <pt x="510" y="1139" on="1"/>
        <pt x="437" y="1139" on="0"/>
        <pt x="312" y="1129" on="0"/>
        <pt x="260" y="1120" on="1"/>
        <pt x="260" y="66" on="1"/>
        <pt x="313" y="59" on="0"/>
        <pt x="422" y="53" on="0"/>
      </contour>
    </TTGlyph>
    <TTGlyph name="backslash" xMin="0" yMin="-240" xMax="521" yMax="1616">
      <contour>
        <pt x="450" y="-240" on="1"/>
        <pt x="0" y="1616" on="1"/>
        <pt x="71" y="1616" on="1"/>
        <pt x="521" y="-240" on="1"/>
      </contour>
    </TTGlyph>
    <TTGlyph name="bar" xMin="190" yMin="-440" xMax="258" yMax="1616">
      <contour>
        <pt x="190" y="-440" on="1"/>
        <pt x="190" y="1616" on="1"/>
        <pt x="258" y="1616" on="1"/>
        <pt x="258" y="-440" on="1"/>
      </contour>
    </TTGlyph>
    <TTGlyph name="braceleft" xMin="51" yMin="-260" xMax="676" yMax="1500">
      <contour>
        <pt x="556" y="-260" on="1"/>
        <pt x="412" y="-260" on="0"/>
        <pt x="250" y="-104" on="0"/>
        <pt x="250" y="41" on="1"/>
        <pt x="250" y="434" on="1"/>
        <pt x="250" y="533" on="0"/>
        <pt x="158" y="620" on="0"/>
        <pt x="66" y="620" on="1"/>
        <pt x="51" y="620" on="1"/>
        <pt x="51" y="684" on="1"/>
        <pt x="66" y="684" on="1"/>
        <pt x="158" y="684" on="0"/>
        <pt x="250" y="771" on="0"/>
        <pt x="250" y="870" on="1"/>
        <pt x="250" y="1199" on="1"/>
        <pt x="250" y="1345" on="0"/>
        <pt x="412" y="1500" on="0"/>
        <pt x="556" y="1500" on="1"/>
        <pt x="589" y="1500" on="0"/>
        <pt x="654" y="1495" on="0"/>
        <pt x="676" y="1490" on="1"/>
        <pt x="676" y="1434" on="1"/>
        <pt x="552" y="1434" on="1"/>
        <pt x="442" y="1434" on="0"/>
        <pt x="318" y="1321" on="0"/>
        <pt x="318" y="1206" on="1"/>
        <pt x="318" y="880" on="1"/>
        <pt x="318" y="778" on="0"/>
        <pt x="248" y="666" on="0"/>
        <pt x="174" y="646" on="1"/>
        <pt x="174" y="658" on="1"/>
        <pt x="248" y="639" on="0"/>
        <pt x="318" y="526" on="0"/>
        <pt x="318" y="424" on="1"/>
        <pt x="318" y="34" on="1"/>
        <pt x="318" y="-81" on="0"/>
        <pt x="442" y="-194" on="0"/>
        <pt x="552" y="-194" on="1"/>
        <pt x="676" y="-194" on="1"/>
        <pt x="676" y="-250" on="1"/>
        <pt x="654" y="-254" on="0"/>
        <pt x="589" y="-260" on="0"/>
      </contour>
    </TTGlyph>
    <TTGlyph name="braceright" xMin="-40" yMin="-260" xMax="585" yMax="1500">
      <contour>
        <pt x="80" y="-260" on="1"/>
        <pt x="47" y="-260" on="0"/>
        <pt x="-17" y="-254" on="0"/>
        <pt x="-40" y="-250" on="1"/>
        <pt x="-40" y="-194" on="1"/>
        <pt x="84" y="-194" on="1"/>
        <pt x="194" y="-194" on="0"/>
        <pt x="318" y="-81" on="0"/>
        <pt x="318" y="34" on="1"/>
        <pt x="318" y="424" on="1"/>
        <pt x="318" y="526" on="0"/>
        <pt x="389" y="639" on="0"/>
        <pt x="462" y="658" on="1"/>
        <pt x="462" y="646" on="1"/>
        <pt x="389" y="666" on="0"/>
        <pt x="318" y="778" on="0"/>
        <pt x="318" y="880" on="1"/>
        <pt x="318" y="1206" on="1"/>
        <pt x="318" y="1321" on="0"/>
        <pt x="194" y="1434" on="0"/>
        <pt x="84" y="1434" on="1"/>
        <pt x="-40" y="1434" on="1"/>
        <pt x="-40" y="1490" on="1"/>
        <pt x="-17" y="1495" on="0"/>
        <pt x="47" y="1500" on="0"/>
        <pt x="80" y="1500" on="1"/>
        <pt x="224" y="1500" on="0"/>
        <pt x="386" y="1345" on="0"/>
        <pt x="386" y="1199" on="1"/>
        <pt x="386" y="870" on="1"/>
        <pt x="386" y="771" on="0"/>
        <pt x="479" y="684" on="0"/>
        <pt x="570" y="684" on="1"/>
        <pt x="585" y="684" on="1"/>
        <pt x="585" y="620" on="1"/>
        <pt x="570" y="620" on="1"/>
        <pt x="479" y="620" on="0"/>
        <pt x="386" y="533" on="0"/>
        <pt x="386" y="434" on="1"/>
        <pt x="386" y="41" on="1"/>
        <pt x="386" y="-104" on="0"/>
        <pt x="224" y="-260" on="0"/>
      </contour>
    </TTGlyph>
    <TTGlyph name="bracketleft" xMin="210" yMin="-250" xMax="591" yMax="1490">
      <contour>
        <pt x="210" y="-250" on="1"/>
        <pt x="210" y="1490" on="1"/>
        <pt x="591" y="1490" on="1"/>
        <pt x="591" y="1426" on="1"/>
        <pt x="278" y="1426" on="1"/>
        <pt x="278" y="-186" on="1"/>
        <pt x="591" y="-186" on="1"/>
        <pt x="591" y="-250" on="1"/>
      </contour>
    </TTGlyph>
    <TTGlyph name="bracketright" xMin="-40" yMin="-240" xMax="341" yMax="1480">
      <contour>
        <pt x="-40" y="-240" on="1"/>
        <pt x="-40" y="-176" on="1"/>
        <pt x="273" y="-176" on="1"/>
        <pt x="273" y="1416" on="1"/>
        <pt x="-40" y="1416" on="1"/>
        <pt x="-40" y="1480" on="1"/>
        <pt x="341" y="1480" on="1"/>
        <pt x="341" y="-240" on="1"/>
      </contour>
    </TTGlyph>
    <TTGlyph name="breve" xMin="338" yMin="1276" xMax="862" yMax="1588">
      <component glyphName="glyph00831" x="0" y="0" flags="0x4"/>
    </TTGlyph>
    <TTGlyph name="brokenbar" xMin="190" yMin="-440" xMax="258" yMax="1616">
      <contour>
        <pt x="190" y="836" on="1"/>
        <pt x="190" y="1616" on="1"/>
        <pt x="258" y="1616" on="1"/>
        <pt x="258" y="836" on="1"/>
      </contour>
      <contour>
        <pt x="190" y="-440" on="1"/>
        <pt x="190" y="340" on="1"/>
        <pt x="258" y="340" on="1"/>
        <pt x="258" y="-440" on="1"/>
      </contour>
    </TTGlyph>
    <TTGlyph name="bullet" xMin="141" yMin="360" xMax="541" yMax="760">
      <contour>
        <pt x="341" y="360" on="1"/>
        <pt x="285" y="360" on="0"/>
        <pt x="194" y="412" on="0"/>
        <pt x="141" y="502" on="0"/>
        <pt x="141" y="560" on="1"/>
        <pt x="141" y="618" on="0"/>
        <pt x="194" y="708" on="0"/>
        <pt x="285" y="760" on="0"/>
        <pt x="341" y="760" on="1"/>
        <pt x="397" y="760" on="0"/>
        <pt x="488" y="708" on="0"/>
        <pt x="541" y="618" on="0"/>
        <pt x="541" y="560" on="1"/>
        <pt x="541" y="502" on="0"/>
        <pt x="488" y="412" on="0"/>
        <pt x="397" y="360" on="0"/>
      </contour>
    </TTGlyph>
    <TTGlyph name="c" xMin="108" yMin="-14" xMax="923" yMax="1204">
      <contour>
        <pt x="636" y="-14" on="1"/>
        <pt x="479" y="-14" on="0"/>
        <pt x="242" y="100" on="0"/>
        <pt x="108" y="366" on="0"/>
        <pt x="108" y="594" on="1"/>
        <pt x="108" y="813" on="0"/>
        <pt x="239" y="1081" on="0"/>
        <pt x="483" y="1204" on="0"/>
        <pt x="650" y="1204" on="1"/>
        <pt x="723" y="1204" on="0"/>
        <pt x="859" y="1187" on="0"/>
        <pt x="923" y="1168" on="1"/>
        <pt x="923" y="1100" on="1"/>
        <pt x="853" y="1120" on="0"/>
        <pt x="718" y="1138" on="0"/>
        <pt x="648" y="1138" on="1"/>
        <pt x="499" y="1138" on="0"/>
        <pt x="290" y="1033" on="0"/>
        <pt x="180" y="796" on="0"/>
        <pt x="180" y="596" on="1"/>
        <pt x="180" y="388" on="0"/>
        <pt x="293" y="150" on="0"/>
        <pt x="498" y="52" on="0"/>
        <pt x="637" y="52" on="1"/>
        <pt x="710" y="52" on="0"/>
        <pt x="843" y="74" on="0"/>
        <pt x="923" y="100" on="1"/>
        <pt x="923" y="32" on="1"/>
        <pt x="859" y="10" on="0"/>
        <pt x="716" y="-14" on="0"/>
      </contour>
    </TTGlyph>
    <TTGlyph name="cacute" xMin="108" yMin="-14" xMax="923" yMax="1598">
      <component glyphName="c" x="0" y="0" flags="0x204"/>
      <component glyphName="acutecomb" x="-13" y="-290" flags="0x4"/>
    </TTGlyph>
    <TTGlyph name="caron" xMin="340" yMin="1264" xMax="860" yMax="1616">
      <component glyphName="glyph00830" x="0" y="0" flags="0x4"/>
    </TTGlyph>
    <TTGlyph name="ccaron" xMin="108" yMin="-14" xMax="923" yMax="1598">
      <component glyphName="c" x="0" y="0" flags="0x204"/>
      <component glyphName="uni030C" x="-13" y="-290" flags="0x4"/>
    </TTGlyph>
    <TTGlyph name="ccedilla" xMin="108" yMin="-400" xMax="923" yMax="1204">
      <component glyphName="c" x="0" y="0" flags="0x204"/>
      <component glyphName="uni0327" x="0" y="0" flags="0x4"/>
    </TTGlyph>
    <TTGlyph name="ccircumflex" xMin="108" yMin="-14" xMax="923" yMax="1598">
      <component glyphName="c" x="0" y="0" flags="0x204"/>
      <component glyphName="uni0302" x="-13" y="-290" flags="0x4"/>
    </TTGlyph>
    <TTGlyph name="cdotaccent" xMin="108" yMin="-14" xMax="923" yMax="1526">
      <component glyphName="c" x="0" y="0" flags="0x204"/>
      <component glyphName="uni0307" x="-13" y="-290" flags="0x4"/>
    </TTGlyph>
    <TTGlyph name="cedilla" xMin="445" yMin="-400" xMax="784" yMax="20">
      <component glyphName="glyph00838" x="0" y="0" flags="0x4"/>
    </TTGlyph>
    <TTGlyph name="cent" xMin="108" yMin="-240" xMax="793" yMax="1320">
      <contour>
        <pt x="538" y="-18" on="1"/>
        <pt x="332" y="-18" on="0"/>
        <pt x="108" y="241" on="0"/>
        <pt x="108" y="540" on="1"/>
        <pt x="108" y="839" on="0"/>
        <pt x="352" y="1096" on="0"/>
        <pt x="584" y="1096" on="1"/>
        <pt x="692" y="1096" on="0"/>
        <pt x="793" y="1067" on="1"/>
        <pt x="793" y="999" on="1"/>
        <pt x="738" y="1015" on="0"/>
        <pt x="632" y="1030" on="0"/>
        <pt x="581" y="1030" on="1"/>
        <pt x="447" y="1030" on="0"/>
        <pt x="268" y="937" on="0"/>
        <pt x="180" y="725" on="0"/>
        <pt x="180" y="544" on="1"/>
        <pt x="180" y="361" on="0"/>
        <pt x="263" y="143" on="0"/>
        <pt x="426" y="48" on="0"/>
        <pt x="545" y="48" on="1"/>
        <pt x="598" y="48" on="0"/>
        <pt x="720" y="71" on="0"/>
        <pt x="793" y="97" on="1"/>
        <pt x="793" y="29" on="1"/>
        <pt x="728" y="5" on="0"/>
        <pt x="600" y="-18" on="0"/>
      </contour>
      <contour>
        <pt x="506" y="-240" on="1"/>
        <pt x="506" y="0" on="1"/>
        <pt x="570" y="0" on="1"/>
        <pt x="570" y="-240" on="1"/>
      </contour>
      <contour>
        <pt x="506" y="1080" on="1"/>
        <pt x="506" y="1320" on="1"/>
        <pt x="570" y="1320" on="1"/>
        <pt x="570" y="1080" on="1"/>
      </contour>
    </TTGlyph>
    <TTGlyph name="circumflex" xMin="344" yMin="1264" xMax="856" yMax="1616">
      <component glyphName="glyph00829" x="0" y="0" flags="0x4"/>
    </TTGlyph>
    <TTGlyph name="colon" xMin="141" yMin="-10" xMax="265" yMax="1090">
      <component glyphName="period" x="0" y="0" flags="0x204"/>
      <component glyphName="period" x="0" y="974" flags="0x4"/>
    </TTGlyph>
    <TTGlyph name="colonmonetary" xMin="118" yMin="-240" xMax="1065" yMax="1720">
      <contour>
        <pt x="729" y="-18" on="1"/>
        <pt x="538" y="-18" on="0"/>
        <pt x="264" y="133" on="0"/>
        <pt x="118" y="465" on="0"/>
        <pt x="118" y="738" on="1"/>
        <pt x="118" y="1012" on="0"/>
        <pt x="268" y="1346" on="0"/>
        <pt x="548" y="1498" on="0"/>
        <pt x="743" y="1498" on="1"/>
        <pt x="906" y="1498" on="0"/>
        <pt x="1065" y="1451" on="1"/>
        <pt x="1065" y="1383" on="1"/>
        <pt x="979" y="1410" on="0"/>
        <pt x="818" y="1432" on="0"/>
        <pt x="740" y="1432" on="1"/>
        <pt x="567" y="1432" on="0"/>
        <pt x="321" y="1301" on="0"/>
        <pt x="190" y="999" on="0"/>
        <pt x="190" y="742" on="1"/>
        <pt x="190" y="483" on="0"/>
        <pt x="318" y="180" on="0"/>
        <pt x="559" y="48" on="0"/>
        <pt x="729" y="48" on="1"/>
        <pt x="809" y="48" on="0"/>
        <pt x="967" y="73" on="0"/>
        <pt x="1065" y="107" on="1"/>
        <pt x="1065" y="39" on="1"/>
        <pt x="984" y="10" on="0"/>
        <pt x="817" y="-18" on="0"/>
      </contour>
      <contour>
        <pt x="318" y="158" on="1"/>
        <pt x="193" y="-240" on="1"/>
        <pt x="128" y="-240" on="1"/>
        <pt x="272" y="220" on="1"/>
      </contour>
      <contour>
        <pt x="539" y="35" on="1"/>
        <pt x="453" y="-240" on="1"/>
        <pt x="388" y="-240" on="1"/>
        <pt x="480" y="54" on="1"/>
      </contour>
      <contour>
        <pt x="656" y="1452" on="1"/>
        <pt x="740" y="1720" on="1"/>
        <pt x="805" y="1720" on="1"/>
        <pt x="721" y="1452" on="1"/>
      </contour>
      <contour>
        <pt x="916" y="1452" on="1"/>
        <pt x="1000" y="1720" on="1"/>
        <pt x="1065" y="1720" on="1"/>
        <pt x="981" y="1452" on="1"/>
      </contour>
    </TTGlyph>
    <TTGlyph name="comma" xMin="141" yMin="-300" xMax="265" yMax="116">
      <contour>
        <pt x="153" y="-300" on="1"/>
        <pt x="180" y="-214" on="0"/>
        <pt x="211" y="-64" on="0"/>
        <pt x="211" y="12" on="1"/>
        <pt x="215" y="-10" on="1"/>
        <pt x="203" y="-10" on="1"/>
        <pt x="176" y="-10" on="0"/>
        <pt x="141" y="26" on="0"/>
        <pt x="141" y="54" on="1"/>
        <pt x="141" y="81" on="0"/>
        <pt x="174" y="116" on="0"/>
        <pt x="201" y="116" on="1"/>
        <pt x="230" y="116" on="0"/>
        <pt x="265" y="77" on="0"/>
        <pt x="265" y="32" on="1"/>
        <pt x="265" y="-61" on="0"/>
        <pt x="226" y="-229" on="0"/>
        <pt x="197" y="-300" on="1"/>
      </contour>
    </TTGlyph>
    <TTGlyph name="copyright" xMin="118" yMin="-22" xMax="1606" yMax="1502">
      <contour>
        <pt x="862" y="-22" on="1"/>
        <pt x="639" y="-22" on="0"/>
        <pt x="304" y="168" on="0"/>
        <pt x="118" y="511" on="0"/>
        <pt x="118" y="740" on="1"/>
        <pt x="118" y="969" on="0"/>
        <pt x="304" y="1312" on="0"/>
        <pt x="639" y="1502" on="0"/>
        <pt x="862" y="1502" on="1"/>
        <pt x="1085" y="1502" on="0"/>
        <pt x="1420" y="1312" on="0"/>
        <pt x="1606" y="969" on="0"/>
        <pt x="1606" y="740" on="1"/>
        <pt x="1606" y="511" on="0"/>
        <pt x="1420" y="168" on="0"/>
        <pt x="1085" y="-22" on="0"/>
      </contour>
      <contour>
        <pt x="896" y="324" on="1"/>
        <pt x="724" y="324" on="0"/>
        <pt x="512" y="530" on="0"/>
        <pt x="512" y="734" on="1"/>
        <pt x="512" y="931" on="0"/>
        <pt x="724" y="1144" on="0"/>
        <pt x="922" y="1144" on="1"/>
        <pt x="973" y="1144" on="0"/>
        <pt x="1066" y="1131" on="0"/>
        <pt x="1114" y="1116" on="1"/>
        <pt x="1114" y="1050" on="1"/>
        <pt x="1068" y="1064" on="0"/>
        <pt x="977" y="1078" on="0"/>
        <pt x="924" y="1078" on="1"/>
        <pt x="761" y="1078" on="0"/>
        <pt x="584" y="912" on="0"/>
        <pt x="584" y="738" on="1"/>
        <pt x="584" y="560" on="0"/>
        <pt x="755" y="390" on="0"/>
        <pt x="902" y="390" on="1"/>
        <pt x="946" y="390" on="0"/>
        <pt x="1053" y="408" on="0"/>
        <pt x="1114" y="432" on="1"/>
        <pt x="1114" y="366" on="1"/>
        <pt x="1063" y="344" on="0"/>
        <pt x="955" y="324" on="0"/>
      </contour>
      <contour>
        <pt x="862" y="46" on="1"/>
        <pt x="1065" y="46" on="0"/>
        <pt x="1369" y="219" on="0"/>
        <pt x="1538" y="531" on="0"/>
        <pt x="1538" y="740" on="1"/>
        <pt x="1538" y="949" on="0"/>
        <pt x="1369" y="1261" on="0"/>
        <pt x="1065" y="1434" on="0"/>
        <pt x="862" y="1434" on="1"/>
        <pt x="659" y="1434" on="0"/>
        <pt x="355" y="1261" on="0"/>
        <pt x="186" y="949" on="0"/>
        <pt x="186" y="740" on="1"/>
        <pt x="186" y="531" on="0"/>
        <pt x="355" y="219" on="0"/>
        <pt x="659" y="46" on="0"/>
      </contour>
    </TTGlyph>
    <TTGlyph name="currency" xMin="108" yMin="300" xMax="992" yMax="1180">
      <contour>
        <pt x="326" y="940" on="1"/>
        <pt x="210" y="1028" on="1"/>
        <pt x="108" y="1124" on="1"/>
        <pt x="164" y="1180" on="1"/>
        <pt x="260" y="1080" on="1"/>
        <pt x="350" y="962" on="1"/>
      </contour>
      <contour>
        <pt x="774" y="940" on="1"/>
        <pt x="750" y="962" on="1"/>
        <pt x="840" y="1080" on="1"/>
        <pt x="936" y="1180" on="1"/>
        <pt x="992" y="1124" on="1"/>
        <pt x="890" y="1028" on="1"/>
      </contour>
      <contour>
        <pt x="934" y="300" on="1"/>
        <pt x="838" y="400" on="1"/>
        <pt x="760" y="504" on="1"/>
        <pt x="784" y="530" on="1"/>
        <pt x="890" y="452" on="1"/>
        <pt x="990" y="356" on="1"/>
      </contour>
      <contour>
        <pt x="166" y="300" on="1"/>
        <pt x="110" y="356" on="1"/>
        <pt x="210" y="452" on="1"/>
        <pt x="316" y="530" on="1"/>
        <pt x="340" y="504" on="1"/>
        <pt x="262" y="400" on="1"/>
      </contour>
      <contour>
        <pt x="550" y="411" on="1"/>
        <pt x="456" y="411" on="0"/>
        <pt x="316" y="493" on="0"/>
        <pt x="239" y="641" on="0"/>
        <pt x="239" y="740" on="1"/>
        <pt x="239" y="838" on="0"/>
        <pt x="316" y="985" on="0"/>
        <pt x="456" y="1067" on="0"/>
        <pt x="550" y="1067" on="1"/>
        <pt x="643" y="1067" on="0"/>
        <pt x="783" y="985" on="0"/>
        <pt x="861" y="838" on="0"/>
        <pt x="861" y="740" on="1"/>
        <pt x="861" y="641" on="0"/>
        <pt x="783" y="493" on="0"/>
        <pt x="643" y="411" on="0"/>
      </contour>
      <contour>
        <pt x="550" y="473" on="1"/>
        <pt x="661" y="473" on="0"/>
        <pt x="799" y="613" on="0"/>
        <pt x="799" y="740" on="1"/>
        <pt x="799" y="857" on="0"/>
        <pt x="672" y="1007" on="0"/>
        <pt x="552" y="1007" on="1"/>
        <pt x="440" y="1007" on="0"/>
        <pt x="301" y="866" on="0"/>
        <pt x="301" y="740" on="1"/>
        <pt x="301" y="614" on="0"/>
        <pt x="439" y="473" on="0"/>
      </contour>
    </TTGlyph>
    <TTGlyph name="d" xMin="192" yMin="-8" xMax="1085" yMax="1202">
      <contour>
        <pt x="464" y="-8" on="1"/>
        <pt x="398" y="-8" on="0"/>
        <pt x="267" y="-1" on="0"/>
        <pt x="192" y="8" on="1"/>
        <pt x="192" y="1174" on="1"/>
        <pt x="263" y="1188" on="0"/>
        <pt x="416" y="1202" on="0"/>
        <pt x="486" y="1202" on="1"/>
        <pt x="782" y="1202" on="0"/>
        <pt x="1085" y="903" on="0"/>
        <pt x="1085" y="594" on="1"/>
        <pt x="1085" y="282" on="0"/>
        <pt x="769" y="-8" on="0"/>
      </contour>
      <contour>
        <pt x="473" y="56" on="1"/>
        <pt x="743" y="56" on="0"/>
        <pt x="1013" y="311" on="0"/>
        <pt x="1013" y="595" on="1"/>
        <pt x="1013" y="876" on="0"/>
        <pt x="752" y="1138" on="0"/>
        <pt x="484" y="1138" on="1"/>
        <pt x="427" y="1138" on="0"/>
        <pt x="308" y="1127" on="0"/>
        <pt x="260" y="1119" on="1"/>
        <pt x="260" y="68" on="1"/>
        <pt x="308" y="61" on="0"/>
        <pt x="413" y="56" on="0"/>
      </contour>
    </TTGlyph>
    <TTGlyph name="dagger" xMin="85" yMin="160" xMax="869" yMax="1616">
      <contour>
        <pt x="455" y="160" on="1"/>
        <pt x="443" y="380" on="1"/>
        <pt x="443" y="1002" on="1"/>
        <pt x="455" y="1224" on="1"/>
        <pt x="235" y="1212" on="1"/>
        <pt x="85" y="1212" on="1"/>
        <pt x="85" y="1276" on="1"/>
        <pt x="235" y="1276" on="1"/>
        <pt x="455" y="1264" on="1"/>
        <pt x="443" y="1486" on="1"/>
        <pt x="443" y="1616" on="1"/>
        <pt x="511" y="1616" on="1"/>
        <pt x="511" y="1486" on="1"/>
        <pt x="499" y="1264" on="1"/>
        <pt x="719" y="1276" on="1"/>
        <pt x="869" y="1276" on="1"/>
        <pt x="869" y="1212" on="1"/>
        <pt x="719" y="1212" on="1"/>
        <pt x="499" y="1224" on="1"/>
        <pt x="511" y="1002" on="1"/>
        <pt x="511" y="380" on="1"/>
        <pt x="499" y="160" on="1"/>
      </contour>
    </TTGlyph>
    <TTGlyph name="daggerdbl" xMin="85" yMin="160" xMax="869" yMax="1616">
      <contour>
        <pt x="441" y="160" on="1"/>
        <pt x="441" y="290" on="1"/>
        <pt x="453" y="510" on="1"/>
        <pt x="175" y="500" on="1"/>
        <pt x="85" y="500" on="1"/>
        <pt x="85" y="564" on="1"/>
        <pt x="175" y="564" on="1"/>
        <pt x="453" y="554" on="1"/>
        <pt x="441" y="794" on="1"/>
        <pt x="441" y="1002" on="1"/>
        <pt x="453" y="1222" on="1"/>
        <pt x="175" y="1212" on="1"/>
        <pt x="85" y="1212" on="1"/>
        <pt x="85" y="1276" on="1"/>
        <pt x="175" y="1276" on="1"/>
        <pt x="453" y="1266" on="1"/>
        <pt x="441" y="1486" on="1"/>
        <pt x="441" y="1616" on="1"/>
        <pt x="509" y="1616" on="1"/>
        <pt x="509" y="1486" on="1"/>
        <pt x="497" y="1266" on="1"/>
        <pt x="779" y="1276" on="1"/>
        <pt x="869" y="1276" on="1"/>
        <pt x="869" y="1212" on="1"/>
        <pt x="779" y="1212" on="1"/>
        <pt x="497" y="1222" on="1"/>
        <pt x="509" y="1002" on="1"/>
        <pt x="509" y="794" on="1"/>
        <pt x="497" y="554" on="1"/>
        <pt x="779" y="564" on="1"/>
        <pt x="869" y="564" on="1"/>
        <pt x="869" y="500" on="1"/>
        <pt x="779" y="500" on="1"/>
        <pt x="497" y="510" on="1"/>
        <pt x="509" y="290" on="1"/>
        <pt x="509" y="160" on="1"/>
      </contour>
    </TTGlyph>
    <TTGlyph name="dcaron" xMin="192" yMin="-8" xMax="1085" yMax="1598">
      <component glyphName="d" x="0" y="0" flags="0x204"/>
      <component glyphName="uni030C" x="-44" y="-290" flags="0x4"/>
    </TTGlyph>
    <TTGlyph name="dcroat" xMin="5" yMin="-8" xMax="1085" yMax="1202">
      <component glyphName="eth" x="0" y="0" flags="0x204"/>
    </TTGlyph>
    <TTGlyph name="degree" xMin="160" yMin="832" xMax="824" yMax="1496">
      <contour>
        <pt x="492" y="832" on="1"/>
        <pt x="395" y="832" on="0"/>
        <pt x="245" y="918" on="0"/>
        <pt x="160" y="1068" on="0"/>
        <pt x="160" y="1164" on="1"/>
        <pt x="160" y="1260" on="0"/>
        <pt x="245" y="1410" on="0"/>
        <pt x="395" y="1496" on="0"/>
        <pt x="492" y="1496" on="1"/>
        <pt x="589" y="1496" on="0"/>
        <pt x="739" y="1410" on="0"/>
        <pt x="824" y="1260" on="0"/>
        <pt x="824" y="1164" on="1"/>
        <pt x="824" y="1068" on="0"/>
        <pt x="739" y="918" on="0"/>
        <pt x="589" y="832" on="0"/>
      </contour>
      <contour>
        <pt x="492" y="896" on="1"/>
        <pt x="608" y="896" on="0"/>
        <pt x="757" y="1041" on="0"/>
        <pt x="757" y="1164" on="1"/>
        <pt x="757" y="1287" on="0"/>
        <pt x="608" y="1432" on="0"/>
        <pt x="492" y="1432" on="1"/>
        <pt x="376" y="1432" on="0"/>
        <pt x="227" y="1287" on="0"/>
        <pt x="227" y="1164" on="1"/>
        <pt x="227" y="1041" on="0"/>
        <pt x="376" y="896" on="0"/>
      </contour>
    </TTGlyph>
    <TTGlyph name="dieresis" xMin="338" yMin="1360" xMax="862" yMax="1486">
      <component glyphName="glyph00823" x="0" y="0" flags="0x4"/>
    </TTGlyph>
    <TTGlyph name="divide" xMin="167" yMin="368" xMax="895" yMax="1152">
      <contour>
        <pt x="167" y="728" on="1"/>
        <pt x="167" y="792" on="1"/>
        <pt x="895" y="792" on="1"/>
        <pt x="895" y="728" on="1"/>
      </contour>
      <contour>
        <pt x="531" y="368" on="1"/>
        <pt x="504" y="368" on="0"/>
        <pt x="469" y="402" on="0"/>
        <pt x="469" y="430" on="1"/>
        <pt x="469" y="459" on="0"/>
        <pt x="504" y="494" on="0"/>
        <pt x="531" y="494" on="1"/>
        <pt x="558" y="494" on="0"/>
        <pt x="593" y="459" on="0"/>
        <pt x="593" y="430" on="1"/>
        <pt x="593" y="402" on="0"/>
        <pt x="558" y="368" on="0"/>
      </contour>
      <contour>
        <pt x="531" y="1026" on="1"/>
        <pt x="504" y="1026" on="0"/>
        <pt x="469" y="1060" on="0"/>
        <pt x="469" y="1088" on="1"/>
        <pt x="469" y="1117" on="0"/>
        <pt x="504" y="1152" on="0"/>
        <pt x="531" y="1152" on="1"/>
        <pt x="558" y="1152" on="0"/>
        <pt x="593" y="1117" on="0"/>
        <pt x="593" y="1088" on="1"/>
        <pt x="593" y="1060" on="0"/>
        <pt x="558" y="1026" on="0"/>
      </contour>
    </TTGlyph>
    <TTGlyph name="dollar" xMin="85" yMin="-240" xMax="925" yMax="1720">
      <contour>
        <pt x="438" y="-18" on="1"/>
        <pt x="361" y="-18" on="0"/>
        <pt x="184" y="10" on="0"/>
        <pt x="101" y="39" on="1"/>
        <pt x="101" y="107" on="1"/>
        <pt x="163" y="86" on="0"/>
        <pt x="280" y="60" on="0"/>
        <pt x="391" y="48" on="0"/>
        <pt x="442" y="48" on="1"/>
        <pt x="646" y="48" on="0"/>
        <pt x="853" y="214" on="0"/>
        <pt x="853" y="377" on="1"/>
        <pt x="853" y="515" on="0"/>
        <pt x="694" y="659" on="0"/>
        <pt x="514" y="706" on="1"/>
        <pt x="452" y="722" on="1"/>
        <pt x="267" y="770" on="0"/>
        <pt x="85" y="958" on="0"/>
        <pt x="85" y="1112" on="1"/>
        <pt x="85" y="1291" on="0"/>
        <pt x="326" y="1498" on="0"/>
        <pt x="561" y="1498" on="1"/>
        <pt x="638" y="1498" on="0"/>
        <pt x="799" y="1476" on="0"/>
        <pt x="867" y="1453" on="1"/>
        <pt x="867" y="1385" on="1"/>
        <pt x="788" y="1410" on="0"/>
        <pt x="635" y="1432" on="0"/>
        <pt x="557" y="1432" on="1"/>
        <pt x="424" y="1432" on="0"/>
        <pt x="246" y="1359" on="0"/>
        <pt x="157" y="1218" on="0"/>
        <pt x="157" y="1116" on="1"/>
        <pt x="157" y="982" on="0"/>
        <pt x="303" y="836" on="0"/>
        <pt x="477" y="790" on="1"/>
        <pt x="539" y="774" on="1"/>
        <pt x="739" y="723" on="0"/>
        <pt x="925" y="535" on="0"/>
        <pt x="925" y="380" on="1"/>
        <pt x="925" y="187" on="0"/>
        <pt x="672" y="-18" on="0"/>
      </contour>
      <contour>
        <pt x="474" y="-240" on="1"/>
        <pt x="474" y="0" on="1"/>
        <pt x="538" y="10" on="1"/>
        <pt x="538" y="-240" on="1"/>
      </contour>
      <contour>
        <pt x="474" y="1480" on="1"/>
        <pt x="474" y="1720" on="1"/>
        <pt x="538" y="1720" on="1"/>
        <pt x="538" y="1480" on="1"/>
      </contour>
    </TTGlyph>
    <TTGlyph name="dong" xMin="108" yMin="-240" xMax="1060" yMax="1616">
      <contour>
        <pt x="523" y="-18" on="1"/>
        <pt x="408" y="-18" on="0"/>
        <pt x="220" y="82" on="0"/>
        <pt x="108" y="317" on="0"/>
        <pt x="108" y="518" on="1"/>
        <pt x="108" y="816" on="0"/>
        <pt x="373" y="1096" on="0"/>
        <pt x="627" y="1096" on="1"/>
        <pt x="680" y="1096" on="0"/>
        <pt x="788" y="1086" on="0"/>
        <pt x="833" y="1079" on="1"/>
        <pt x="833" y="1616" on="1"/>
        <pt x="901" y="1616" on="1"/>
        <pt x="901" y="0" on="1"/>
        <pt x="841" y="0" on="1"/>
        <pt x="835" y="119" on="1"/>
        <pt x="827" y="119" on="1"/>
        <pt x="778" y="59" on="0"/>
        <pt x="621" y="-18" on="0"/>
      </contour>
      <contour>
        <pt x="153" y="-240" on="1"/>
        <pt x="153" y="-180" on="1"/>
        <pt x="901" y="-180" on="1"/>
        <pt x="901" y="-240" on="1"/>
      </contour>
      <contour>
        <pt x="526" y="48" on="1"/>
        <pt x="612" y="48" on="0"/>
        <pt x="778" y="129" on="0"/>
        <pt x="833" y="217" on="1"/>
        <pt x="833" y="1007" on="1"/>
        <pt x="791" y="1018" on="0"/>
        <pt x="678" y="1030" on="0"/>
        <pt x="624" y="1030" on="1"/>
        <pt x="404" y="1030" on="0"/>
        <pt x="180" y="793" on="0"/>
        <pt x="180" y="526" on="1"/>
        <pt x="180" y="340" on="0"/>
        <pt x="271" y="132" on="0"/>
        <pt x="428" y="48" on="0"/>
      </contour>
      <contour>
        <pt x="469" y="1326" on="1"/>
        <pt x="469" y="1386" on="1"/>
        <pt x="1060" y="1386" on="1"/>
        <pt x="1060" y="1326" on="1"/>
      </contour>
    </TTGlyph>
    <TTGlyph name="dotaccent" xMin="538" yMin="1360" xMax="662" yMax="1486">
      <component glyphName="glyph00824" x="0" y="0" flags="0x4"/>
    </TTGlyph>
    <TTGlyph name="dotbelowcomb" xMin="538" yMin="-310" xMax="662" yMax="-184">
      <component glyphName="glyph00883" x="0" y="0" flags="0x204"/>
    </TTGlyph>
    <TTGlyph name="dotlessi" xMin="170" yMin="0" xMax="238" yMax="1080">
      <contour>
        <pt x="170" y="0" on="1"/>
        <pt x="170" y="1080" on="1"/>
        <pt x="238" y="1080" on="1"/>
        <pt x="238" y="0" on="1"/>
      </contour>
    </TTGlyph>
    <TTGlyph name="e" xMin="192" yMin="0" xMax="929" yMax="1190">
      <contour>
        <pt x="192" y="0" on="1"/>
        <pt x="192" y="1190" on="1"/>
        <pt x="920" y="1190" on="1"/>
        <pt x="920" y="1126" on="1"/>
        <pt x="260" y="1126" on="1"/>
        <pt x="260" y="64" on="1"/>
        <pt x="929" y="64" on="1"/>
        <pt x="929" y="0" on="1"/>
      </contour>
      <contour>
        <pt x="240" y="579" on="1"/>
        <pt x="240" y="643" on="1"/>
        <pt x="839" y="643" on="1"/>
        <pt x="839" y="579" on="1"/>
      </contour>
    </TTGlyph>
    <TTGlyph name="eacute" xMin="192" yMin="0" xMax="929" yMax="1598">
      <component glyphName="e" x="0" y="0" flags="0x204"/>
      <component glyphName="acutecomb" x="-26" y="-290" flags="0x4"/>
    </TTGlyph>
    <TTGlyph name="ebreve" xMin="192" yMin="0" xMax="929" yMax="1570">
      <component glyphName="e" x="0" y="0" flags="0x204"/>
      <component glyphName="uni0306" x="-26" y="-290" flags="0x4"/>
    </TTGlyph>
    <TTGlyph name="ecaron" xMin="192" yMin="0" xMax="929" yMax="1598">
      <component glyphName="e" x="0" y="0" flags="0x204"/>
      <component glyphName="uni030C" x="-26" y="-290" flags="0x4"/>
    </TTGlyph>
    <TTGlyph name="ecircumflex" xMin="192" yMin="0" xMax="929" yMax="1598">
      <component glyphName="e" x="0" y="0" flags="0x204"/>
      <component glyphName="uni0302" x="-26" y="-290" flags="0x4"/>
    </TTGlyph>
    <TTGlyph name="edieresis" xMin="192" yMin="0" xMax="929" yMax="1526">
      <component glyphName="e" x="0" y="0" flags="0x204"/>
      <component glyphName="uni0308" x="-26" y="-290" flags="0x4"/>
    </TTGlyph>
    <TTGlyph name="edotaccent" xMin="192" yMin="0" xMax="929" yMax="1526">
      <component glyphName="e" x="0" y="0" flags="0x204"/>
      <component glyphName="uni0307" x="-26" y="-290" flags="0x4"/>
    </TTGlyph>
    <TTGlyph name="egrave" xMin="192" yMin="0" xMax="929" yMax="1598">
      <component glyphName="e" x="0" y="0" flags="0x204"/>
      <component glyphName="gravecomb" x="-26" y="-290" flags="0x4"/>
    </TTGlyph>
    <TTGlyph name="eight" xMin="110" yMin="-18" xMax="1088" yMax="1498">
      <contour>
        <pt x="610" y="-18" on="1"/>
        <pt x="450" y="-18" on="0"/>
        <pt x="227" y="72" on="0"/>
        <pt x="110" y="246" on="0"/>
        <pt x="110" y="372" on="1"/>
        <pt x="110" y="522" on="0"/>
        <pt x="281" y="737" on="0"/>
        <pt x="429" y="786" on="1"/>
        <pt x="500" y="753" on="1"/>
        <pt x="347" y="710" on="0"/>
        <pt x="181" y="511" on="0"/>
        <pt x="181" y="374" on="1"/>
        <pt x="181" y="216" on="0"/>
        <pt x="399" y="48" on="0"/>
        <pt x="611" y="48" on="1"/>
        <pt x="805" y="48" on="0"/>
        <pt x="1016" y="211" on="0"/>
        <pt x="1016" y="362" on="1"/>
        <pt x="1016" y="456" on="0"/>
        <pt x="940" y="584" on="0"/>
        <pt x="766" y="673" on="0"/>
        <pt x="620" y="707" on="1"/>
        <pt x="455" y="746" on="0"/>
        <pt x="253" y="859" on="0"/>
        <pt x="161" y="1019" on="0"/>
        <pt x="161" y="1127" on="1"/>
        <pt x="161" y="1299" on="0"/>
        <pt x="393" y="1498" on="0"/>
        <pt x="594" y="1498" on="1"/>
        <pt x="800" y="1498" on="0"/>
        <pt x="1036" y="1299" on="0"/>
        <pt x="1036" y="1126" on="1"/>
        <pt x="1036" y="984" on="0"/>
        <pt x="882" y="783" on="0"/>
        <pt x="741" y="727" on="1"/>
        <pt x="673" y="758" on="1"/>
        <pt x="828" y="820" on="0"/>
        <pt x="968" y="991" on="0"/>
        <pt x="968" y="1125" on="1"/>
        <pt x="968" y="1275" on="0"/>
        <pt x="769" y="1432" on="0"/>
        <pt x="593" y="1432" on="1"/>
        <pt x="417" y="1432" on="0"/>
        <pt x="233" y="1270" on="0"/>
        <pt x="233" y="1129" on="1"/>
        <pt x="233" y="1036" on="0"/>
        <pt x="307" y="903" on="0"/>
        <pt x="481" y="809" on="0"/>
        <pt x="631" y="774" on="1"/>
        <pt x="796" y="736" on="0"/>
        <pt x="997" y="626" on="0"/>
        <pt x="1088" y="473" on="0"/>
        <pt x="1088" y="367" on="1"/>
        <pt x="1088" y="250" on="0"/>
        <pt x="975" y="77" on="0"/>
        <pt x="761" y="-18" on="0"/>
      </contour>
    </TTGlyph>
    <TTGlyph name="ellipsis" xMin="141" yMin="-10" xMax="1037" yMax="116">
      <component glyphName="period" x="0" y="0" flags="0x4"/>
      <component glyphName="period" x="386" y="0" flags="0x4"/>
      <component glyphName="period" x="772" y="0" flags="0x4"/>
    </TTGlyph>
    <TTGlyph name="emacron" xMin="192" yMin="0" xMax="929" yMax="1492">
      <component glyphName="e" x="0" y="0" flags="0x204"/>
      <component glyphName="uni0304" x="-26" y="-290" flags="0x4"/>
    </TTGlyph>
    <TTGlyph name="emdash" xMin="0" yMin="528" xMax="1800" yMax="592">
      <contour>
        <pt x="0" y="528" on="1"/>
        <pt x="0" y="592" on="1"/>
        <pt x="1800" y="592" on="1"/>
        <pt x="1800" y="528" on="1"/>
      </contour>
    </TTGlyph>
    <TTGlyph name="endash" xMin="0" yMin="528" xMax="900" yMax="592">
      <contour>
        <pt x="0" y="528" on="1"/>
        <pt x="0" y="592" on="1"/>
        <pt x="900" y="592" on="1"/>
        <pt x="900" y="528" on="1"/>
      </contour>
    </TTGlyph>
    <TTGlyph name="eng" xMin="192" yMin="-460" xMax="1095" yMax="1190">
      <contour>
        <pt x="192" y="0" on="1"/>
        <pt x="192" y="1190" on="1"/>
        <pt x="265" y="1190" on="1"/>
        <pt x="1054" y="70" on="1"/>
        <pt x="1041" y="-28" on="1"/>
        <pt x="232" y="1120" on="1"/>
        <pt x="258" y="1120" on="1"/>
        <pt x="258" y="0" on="1"/>
      </contour>
      <contour>
        <pt x="915" y="-460" on="1"/>
        <pt x="867" y="-425" on="1"/>
        <pt x="952" y="-316" on="0"/>
        <pt x="1029" y="-99" on="0"/>
        <pt x="1029" y="44" on="1"/>
        <pt x="1029" y="1190" on="1"/>
        <pt x="1095" y="1190" on="1"/>
        <pt x="1095" y="21" on="1"/>
        <pt x="1095" y="-72" on="0"/>
        <pt x="1057" y="-231" on="0"/>
        <pt x="978" y="-380" on="0"/>
      </contour>
    </TTGlyph>
    <TTGlyph name="eogonek" xMin="192" yMin="0" xMax="929" yMax="1190">
      <component glyphName="e" x="0" y="0" flags="0x204"/>
      <component glyphName="uni0328" x="130" y="0" flags="0x4"/>
    </TTGlyph>
    <TTGlyph name="equal" xMin="167" yMin="546" xMax="895" yMax="974">
      <contour>
        <pt x="167" y="910" on="1"/>
        <pt x="167" y="974" on="1"/>
        <pt x="895" y="974" on="1"/>
        <pt x="895" y="910" on="1"/>
      </contour>
      <contour>
        <pt x="167" y="546" on="1"/>
        <pt x="167" y="610" on="1"/>
        <pt x="895" y="610" on="1"/>
        <pt x="895" y="546" on="1"/>
      </contour>
    </TTGlyph>
    <TTGlyph name="estimated" xMin="118" yMin="-18" xMax="1512" yMax="1498">
      <contour>
        <pt x="814" y="-18" on="1"/>
        <pt x="665" y="-18" on="0"/>
        <pt x="411" y="96" on="0"/>
        <pt x="223" y="300" on="0"/>
        <pt x="118" y="576" on="0"/>
        <pt x="118" y="738" on="1"/>
        <pt x="118" y="962" on="0"/>
        <pt x="295" y="1305" on="0"/>
        <pt x="609" y="1498" on="0"/>
        <pt x="814" y="1498" on="1"/>
        <pt x="1016" y="1498" on="0"/>
        <pt x="1322" y="1311" on="0"/>
        <pt x="1501" y="970" on="0"/>
        <pt x="1512" y="738" on="1"/>
        <pt x="368" y="738" on="1"/>
        <pt x="368" y="263" on="1"/>
        <pt x="439" y="165" on="0"/>
        <pt x="682" y="46" on="0"/>
        <pt x="814" y="46" on="1"/>
        <pt x="991" y="46" on="0"/>
        <pt x="1259" y="209" on="0"/>
        <pt x="1382" y="390" on="1"/>
        <pt x="1438" y="352" on="1"/>
        <pt x="1305" y="157" on="0"/>
        <pt x="1011" y="-18" on="0"/>
      </contour>
      <contour>
        <pt x="368" y="802" on="1"/>
        <pt x="1242" y="802" on="1"/>
        <pt x="1242" y="1224" on="1"/>
        <pt x="1176" y="1326" on="0"/>
        <pt x="952" y="1434" on="0"/>
        <pt x="812" y="1434" on="1"/>
        <pt x="723" y="1434" on="0"/>
        <pt x="547" y="1379" on="0"/>
        <pt x="405" y="1284" on="0"/>
        <pt x="368" y="1224" on="1"/>
      </contour>
    </TTGlyph>
    <TTGlyph name="eth" xMin="5" yMin="-8" xMax="1085" yMax="1202">
      <component glyphName="d" x="0" y="0" flags="0x204"/>
      <component glyphName="glyph00932" x="3" y="-4" flags="0x4"/>
    </TTGlyph>
    <TTGlyph name="exclam" xMin="161" yMin="-10" xMax="285" yMax="1480">
      <contour>
        <pt x="199" y="316" on="1"/>
        <pt x="187" y="890" on="1"/>
        <pt x="187" y="1480" on="1"/>
        <pt x="259" y="1480" on="1"/>
        <pt x="259" y="890" on="1"/>
        <pt x="247" y="316" on="1"/>
      </contour>
      <contour>
        <pt x="223" y="-10" on="1"/>
        <pt x="196" y="-10" on="0"/>
        <pt x="161" y="24" on="0"/>
        <pt x="161" y="52" on="1"/>
        <pt x="161" y="81" on="0"/>
        <pt x="196" y="116" on="0"/>
        <pt x="223" y="116" on="1"/>
        <pt x="250" y="116" on="0"/>
        <pt x="285" y="81" on="0"/>
        <pt x="285" y="52" on="1"/>
        <pt x="285" y="24" on="0"/>
        <pt x="250" y="-10" on="0"/>
      </contour>
    </TTGlyph>
    <TTGlyph name="exclamdown" xMin="161" yMin="-380" xMax="285" yMax="1090">
      <contour>
        <pt x="199" y="764" on="1"/>
        <pt x="247" y="764" on="1"/>
        <pt x="259" y="190" on="1"/>
        <pt x="259" y="-380" on="1"/>
        <pt x="187" y="-380" on="1"/>
        <pt x="187" y="190" on="1"/>
      </contour>
      <contour>
        <pt x="223" y="1090" on="1"/>
        <pt x="250" y="1090" on="0"/>
        <pt x="285" y="1057" on="0"/>
        <pt x="285" y="1028" on="1"/>
        <pt x="285" y="1000" on="0"/>
        <pt x="250" y="964" on="0"/>
        <pt x="223" y="964" on="1"/>
        <pt x="196" y="964" on="0"/>
        <pt x="161" y="1000" on="0"/>
        <pt x="161" y="1028" on="1"/>
        <pt x="161" y="1057" on="0"/>
        <pt x="196" y="1090" on="0"/>
      </contour>
    </TTGlyph>
    <TTGlyph name="f" xMin="192" yMin="0" xMax="911" yMax="1190">
      <contour>
        <pt x="192" y="0" on="1"/>
        <pt x="192" y="1190" on="1"/>
        <pt x="911" y="1190" on="1"/>
        <pt x="911" y="1126" on="1"/>
        <pt x="260" y="1126" on="1"/>
        <pt x="260" y="0" on="1"/>
      </contour>
      <contour>
        <pt x="249" y="577" on="1"/>
        <pt x="249" y="641" on="1"/>
        <pt x="830" y="641" on="1"/>
        <pt x="830" y="577" on="1"/>
      </contour>
    </TTGlyph>
    <TTGlyph name="figuredash" xMin="142" yMin="528" xMax="958" yMax="592">
      <contour>
        <pt x="142" y="528" on="1"/>
        <pt x="142" y="592" on="1"/>
        <pt x="958" y="592" on="1"/>
        <pt x="958" y="528" on="1"/>
      </contour>
    </TTGlyph>
    <TTGlyph name="five" xMin="83" yMin="-18" xMax="917" yMax="1480">
      <contour>
        <pt x="425" y="-18" on="1"/>
        <pt x="337" y="-18" on="0"/>
        <pt x="160" y="13" on="0"/>
        <pt x="83" y="41" on="1"/>
        <pt x="83" y="109" on="1"/>
        <pt x="167" y="79" on="0"/>
        <pt x="342" y="48" on="0"/>
        <pt x="427" y="48" on="1"/>
        <pt x="636" y="48" on="0"/>
        <pt x="847" y="226" on="0"/>
        <pt x="847" y="404" on="1"/>
        <pt x="847" y="518" on="0"/>
        <pt x="744" y="668" on="0"/>
        <pt x="516" y="750" on="0"/>
        <pt x="328" y="761" on="1"/>
        <pt x="143" y="772" on="1"/>
        <pt x="192" y="1480" on="1"/>
        <pt x="855" y="1480" on="1"/>
        <pt x="855" y="1416" on="1"/>
        <pt x="222" y="1416" on="1"/>
        <pt x="257" y="1440" on="1"/>
        <pt x="212" y="792" on="1"/>
        <pt x="160" y="838" on="1"/>
        <pt x="345" y="827" on="1"/>
        <pt x="646" y="809" on="0"/>
        <pt x="917" y="603" on="0"/>
        <pt x="917" y="405" on="1"/>
        <pt x="917" y="199" on="0"/>
        <pt x="666" y="-18" on="0"/>
      </contour>
    </TTGlyph>
    <TTGlyph name="fiveeighths" xMin="84" yMin="-148" xMax="1662" yMax="1616">
      <component glyphName="glyph00563" x="0" y="0" flags="0x4"/>
      <component glyphName="fraction" x="749" y="0" flags="0x4"/>
      <component glyphName="glyph00556" x="972" y="0" flags="0x4"/>
    </TTGlyph>
    <TTGlyph name="florin" xMin="-175" yMin="-460" xMax="713" yMax="1636">
      <contour>
        <pt x="-33" y="-460" on="1"/>
        <pt x="-64" y="-460" on="0"/>
        <pt x="-138" y="-455" on="0"/>
        <pt x="-175" y="-448" on="1"/>
        <pt x="-175" y="-380" on="1"/>
        <pt x="-131" y="-387" on="0"/>
        <pt x="-66" y="-394" on="0"/>
        <pt x="-29" y="-394" on="1"/>
        <pt x="102" y="-394" on="0"/>
        <pt x="235" y="-277" on="0"/>
        <pt x="235" y="-141" on="1"/>
        <pt x="235" y="1310" on="1"/>
        <pt x="235" y="1474" on="0"/>
        <pt x="405" y="1636" on="0"/>
        <pt x="571" y="1636" on="1"/>
        <pt x="603" y="1636" on="0"/>
        <pt x="676" y="1631" on="0"/>
        <pt x="713" y="1624" on="1"/>
        <pt x="713" y="1556" on="1"/>
        <pt x="670" y="1563" on="0"/>
        <pt x="604" y="1570" on="0"/>
        <pt x="567" y="1570" on="1"/>
        <pt x="437" y="1570" on="0"/>
        <pt x="303" y="1453" on="0"/>
        <pt x="303" y="1317" on="1"/>
        <pt x="303" y="-134" on="1"/>
        <pt x="303" y="-298" on="0"/>
        <pt x="134" y="-460" on="0"/>
      </contour>
      <contour>
        <pt x="15" y="1014" on="1"/>
        <pt x="15" y="1080" on="1"/>
        <pt x="674" y="1080" on="1"/>
        <pt x="674" y="1014" on="1"/>
      </contour>
    </TTGlyph>
    <TTGlyph name="four" xMin="54" yMin="0" xMax="1082" yMax="1480">
      <contour>
        <pt x="54" y="384" on="1"/>
        <pt x="54" y="424" on="1"/>
        <pt x="662" y="1480" on="1"/>
        <pt x="738" y="1480" on="1"/>
        <pt x="128" y="422" on="1"/>
        <pt x="112" y="448" on="1"/>
        <pt x="1082" y="448" on="1"/>
        <pt x="1082" y="384" on="1"/>
      </contour>
      <contour>
        <pt x="794" y="0" on="1"/>
        <pt x="794" y="448" on="1"/>
        <pt x="808" y="980" on="1"/>
        <pt x="862" y="980" on="1"/>
        <pt x="862" y="0" on="1"/>
      </contour>
    </TTGlyph>
    <TTGlyph name="fraction" xMin="-315" yMin="-136" xMax="538" yMax="1616">
      <contour>
        <pt x="-315" y="-136" on="1"/>
        <pt x="472" y="1616" on="1"/>
        <pt x="538" y="1616" on="1"/>
        <pt x="-249" y="-136" on="1"/>
      </contour>
    </TTGlyph>
    <TTGlyph name="franc" xMin="80" yMin="0" xMax="1148" yMax="1480">
      <contour>
        <pt x="314" y="0" on="1"/>
        <pt x="314" y="1480" on="1"/>
        <pt x="1148" y="1480" on="1"/>
        <pt x="1148" y="1414" on="1"/>
        <pt x="382" y="1414" on="1"/>
        <pt x="382" y="0" on="1"/>
      </contour>
      <contour>
        <pt x="80" y="362" on="1"/>
        <pt x="80" y="426" on="1"/>
        <pt x="726" y="426" on="1"/>
        <pt x="726" y="362" on="1"/>
      </contour>
      <contour>
        <pt x="374" y="768" on="1"/>
        <pt x="374" y="834" on="1"/>
        <pt x="1053" y="834" on="1"/>
        <pt x="1053" y="768" on="1"/>
      </contour>
    </TTGlyph>
    <TTGlyph name="g" xMin="108" yMin="-8" xMax="985" yMax="1204">
      <contour>
        <pt x="718" y="-8" on="1"/>
        <pt x="420" y="-8" on="0"/>
        <pt x="108" y="275" on="0"/>
        <pt x="108" y="594" on="1"/>
        <pt x="108" y="815" on="0"/>
        <pt x="253" y="1083" on="0"/>
        <pt x="510" y="1204" on="0"/>
        <pt x="678" y="1204" on="1"/>
        <pt x="752" y="1204" on="0"/>
        <pt x="896" y="1185" on="0"/>
        <pt x="960" y="1167" on="1"/>
        <pt x="960" y="1099" on="1"/>
        <pt x="881" y="1122" on="0"/>
        <pt x="745" y="1140" on="0"/>
        <pt x="678" y="1140" on="1"/>
        <pt x="529" y="1140" on="0"/>
        <pt x="305" y="1036" on="0"/>
        <pt x="180" y="797" on="0"/>
        <pt x="180" y="595" on="1"/>
        <pt x="180" y="306" on="0"/>
        <pt x="451" y="55" on="0"/>
        <pt x="718" y="55" on="1"/>
        <pt x="776" y="55" on="0"/>
        <pt x="892" y="65" on="0"/>
        <pt x="941" y="75" on="1"/>
        <pt x="917" y="42" on="1"/>
        <pt x="917" y="578" on="1"/>
        <pt x="985" y="578" on="1"/>
        <pt x="985" y="14" on="1"/>
        <pt x="913" y="2" on="0"/>
        <pt x="781" y="-8" on="0"/>
      </contour>
    </TTGlyph>
    <TTGlyph name="gbreve" xMin="108" yMin="-8" xMax="985" yMax="1570">
      <component glyphName="g" x="0" y="0" flags="0x204"/>
      <component glyphName="uni0306" x="18" y="-290" flags="0x4"/>
    </TTGlyph>
    <TTGlyph name="gcaron" xMin="108" yMin="-8" xMax="985" yMax="1598">
      <component glyphName="g" x="0" y="0" flags="0x204"/>
      <component glyphName="uni030C" x="18" y="-290" flags="0x4"/>
    </TTGlyph>
    <TTGlyph name="gcircumflex" xMin="108" yMin="-8" xMax="985" yMax="1598">
      <component glyphName="g" x="0" y="0" flags="0x204"/>
      <component glyphName="uni0302" x="18" y="-290" flags="0x4"/>
    </TTGlyph>
    <TTGlyph name="gdotaccent" xMin="108" yMin="-8" xMax="985" yMax="1526">
      <component glyphName="g" x="0" y="0" flags="0x204"/>
      <component glyphName="uni0307" x="18" y="-290" flags="0x4"/>
    </TTGlyph>
    <TTGlyph name="germandbls" xMin="149" yMin="-14" xMax="1017" yMax="1204">
      <contour>
        <pt x="919" y="1104" on="1"/>
        <pt x="919" y="1067" on="1"/>
        <pt x="567" y="612" on="1"/>
        <pt x="561" y="629" on="1"/>
        <pt x="585" y="633" on="0"/>
        <pt x="629" y="637" on="0"/>
        <pt x="659" y="637" on="1"/>
        <pt x="759" y="637" on="0"/>
        <pt x="921" y="570" on="0"/>
        <pt x="1017" y="434" on="0"/>
        <pt x="1017" y="329" on="1"/>
        <pt x="1017" y="166" on="0"/>
        <pt x="816" y="-14" on="0"/>
        <pt x="631" y="-14" on="1"/>
        <pt x="570" y="-14" on="0"/>
        <pt x="441" y="8" on="0"/>
        <pt x="374" y="32" on="1"/>
        <pt x="374" y="96" on="1"/>
        <pt x="449" y="70" on="0"/>
        <pt x="574" y="48" on="0"/>
        <pt x="630" y="48" on="1"/>
        <pt x="787" y="48" on="0"/>
        <pt x="946" y="194" on="0"/>
        <pt x="946" y="329" on="1"/>
        <pt x="946" y="449" on="0"/>
        <pt x="785" y="577" on="0"/>
        <pt x="643" y="577" on="1"/>
        <pt x="565" y="577" on="0"/>
        <pt x="485" y="565" on="1"/>
        <pt x="485" y="604" on="1"/>
        <pt x="867" y="1100" on="1"/>
        <pt x="864" y="1066" on="1"/>
        <pt x="802" y="1106" on="0"/>
        <pt x="652" y="1143" on="0"/>
        <pt x="566" y="1143" on="1"/>
        <pt x="377" y="1143" on="0"/>
        <pt x="217" y="950" on="0"/>
        <pt x="217" y="775" on="1"/>
        <pt x="217" y="0" on="1"/>
        <pt x="149" y="0" on="1"/>
        <pt x="149" y="765" on="1"/>
        <pt x="149" y="975" on="0"/>
        <pt x="350" y="1204" on="0"/>
        <pt x="568" y="1204" on="1"/>
        <pt x="674" y="1204" on="0"/>
        <pt x="850" y="1152" on="0"/>
      </contour>
    </TTGlyph>
    <TTGlyph name="glyph00236" xMin="190" yMin="-340" xMax="894" yMax="1888">
      <component glyphName="I" x="0" y="0" flags="0x4"/>
      <component glyphName="glyph00861" x="-376" y="0" flags="0x4"/>
      <component glyphName="J" x="448" y="0" flags="0x4"/>
      <component glyphName="glyph00861" x="72" y="0" flags="0x4"/>
    </TTGlyph>
    <TTGlyph name="glyph00237" xMin="142" yMin="0" xMax="266" yMax="1486">
      <component glyphName="dotlessi" x="0" y="0" flags="0x204"/>
      <component glyphName="glyph00824" x="-396" y="0" flags="0x4"/>
    </TTGlyph>
    <TTGlyph name="glyph00239" xMin="-21" yMin="-460" xMax="266" yMax="1492">
      <component glyphName="uni0237" x="0" y="0" flags="0x204"/>
      <component glyphName="glyph00824" x="-396" y="6" flags="0x4"/>
    </TTGlyph>
    <TTGlyph name="glyph00242" xMin="170" yMin="0" xMax="238" yMax="1616">
      <contour>
        <pt x="170" y="0" on="1"/>
        <pt x="170" y="1616" on="1"/>
        <pt x="238" y="1616" on="1"/>
        <pt x="238" y="0" on="1"/>
      </contour>
    </TTGlyph>
    <TTGlyph name="glyph00243" xMin="170" yMin="0" xMax="931" yMax="1096">
      <contour>
        <pt x="170" y="0" on="1"/>
        <pt x="170" y="1080" on="1"/>
        <pt x="230" y="1080" on="1"/>
        <pt x="236" y="951" on="1"/>
        <pt x="244" y="951" on="1"/>
        <pt x="389" y="1096" on="0"/>
        <pt x="596" y="1096" on="1"/>
        <pt x="695" y="1096" on="0"/>
        <pt x="846" y="1027" on="0"/>
        <pt x="931" y="871" on="0"/>
        <pt x="931" y="738" on="1"/>
        <pt x="931" y="0" on="1"/>
        <pt x="863" y="0" on="1"/>
        <pt x="863" y="738" on="1"/>
        <pt x="863" y="901" on="0"/>
        <pt x="717" y="1030" on="0"/>
        <pt x="594" y="1030" on="1"/>
        <pt x="510" y="1030" on="0"/>
        <pt x="310" y="952" on="0"/>
        <pt x="238" y="853" on="1"/>
        <pt x="238" y="0" on="1"/>
      </contour>
    </TTGlyph>
    <TTGlyph name="glyph00245" xMin="7" yMin="-18" xMax="688" yMax="1480">
      <contour>
        <pt x="542" y="-18" on="1"/>
        <pt x="394" y="-18" on="0"/>
        <pt x="227" y="137" on="0"/>
        <pt x="227" y="310" on="1"/>
        <pt x="227" y="1080" on="1"/>
        <pt x="235" y="1480" on="1"/>
        <pt x="295" y="1480" on="1"/>
        <pt x="295" y="322" on="1"/>
        <pt x="295" y="171" on="0"/>
        <pt x="424" y="48" on="0"/>
        <pt x="546" y="48" on="1"/>
        <pt x="579" y="48" on="0"/>
        <pt x="647" y="57" on="0"/>
        <pt x="688" y="67" on="1"/>
        <pt x="688" y="-1" on="1"/>
        <pt x="649" y="-10" on="0"/>
        <pt x="579" y="-18" on="0"/>
      </contour>
      <contour>
        <pt x="7" y="1016" on="1"/>
        <pt x="7" y="1080" on="1"/>
        <pt x="666" y="1080" on="1"/>
        <pt x="666" y="1016" on="1"/>
      </contour>
    </TTGlyph>
    <TTGlyph name="glyph00247" xMin="61" yMin="0" xMax="808" yMax="1080">
      <contour>
        <pt x="61" y="0" on="1"/>
        <pt x="61" y="40" on="1"/>
        <pt x="719" y="1041" on="1"/>
        <pt x="719" y="1016" on="1"/>
        <pt x="73" y="1016" on="1"/>
        <pt x="73" y="1080" on="1"/>
        <pt x="796" y="1080" on="1"/>
        <pt x="796" y="1040" on="1"/>
        <pt x="138" y="39" on="1"/>
        <pt x="138" y="64" on="1"/>
        <pt x="808" y="64" on="1"/>
        <pt x="808" y="0" on="1"/>
      </contour>
    </TTGlyph>
    <TTGlyph name="glyph00248" xMin="15" yMin="0" xMax="713" yMax="1636">
      <contour>
        <pt x="235" y="0" on="1"/>
        <pt x="235" y="1293" on="1"/>
        <pt x="235" y="1409" on="0"/>
        <pt x="310" y="1561" on="0"/>
        <pt x="461" y="1636" on="0"/>
        <pt x="573" y="1636" on="1"/>
        <pt x="605" y="1636" on="0"/>
        <pt x="679" y="1630" on="0"/>
        <pt x="713" y="1624" on="1"/>
        <pt x="713" y="1556" on="1"/>
        <pt x="677" y="1563" on="0"/>
        <pt x="606" y="1570" on="0"/>
        <pt x="569" y="1570" on="1"/>
        <pt x="436" y="1570" on="0"/>
        <pt x="303" y="1446" on="0"/>
        <pt x="303" y="1296" on="1"/>
        <pt x="303" y="0" on="1"/>
      </contour>
      <contour>
        <pt x="15" y="1016" on="1"/>
        <pt x="15" y="1080" on="1"/>
        <pt x="674" y="1080" on="1"/>
        <pt x="674" y="1016" on="1"/>
      </contour>
    </TTGlyph>
    <TTGlyph name="glyph00249" xMin="15" yMin="0" xMax="933" yMax="1636">
      <component glyphName="glyph00248" x="0" y="0" flags="0x4"/>
      <component glyphName="glyph00237" x="667" y="0" flags="0x4"/>
    </TTGlyph>
    <TTGlyph name="glyph00250" xMin="15" yMin="-460" xMax="933" yMax="1636">
      <component glyphName="glyph00248" x="0" y="0" flags="0x4"/>
      <component glyphName="glyph00239" x="667" y="0" flags="0x4"/>
    </TTGlyph>
    <TTGlyph name="glyph00251" xMin="15" yMin="0" xMax="905" yMax="1636">
      <component glyphName="glyph00248" x="0" y="0" flags="0x4"/>
      <component glyphName="glyph00242" x="667" y="0" flags="0x4"/>
    </TTGlyph>
    <TTGlyph name="glyph00254" xMin="190" yMin="-340" xMax="706" yMax="1480">
      <component glyphName="I" x="0" y="0" flags="0x4"/>
      <component glyphName="J" x="448" y="0" flags="0x4"/>
    </TTGlyph>
    <TTGlyph name="glyph00338" xMin="192" yMin="-274" xMax="900" yMax="1598">
      <component glyphName="i" x="0" y="0" flags="0x4"/>
      <component glyphName="acutecomb" x="-374" y="-290" flags="0x4"/>
      <component glyphName="j" x="452" y="0" flags="0x4"/>
      <component glyphName="acutecomb" x="78" y="-290" flags="0x4"/>
    </TTGlyph>
    <TTGlyph name="glyph00344" xMin="164" yMin="0" xMax="288" yMax="1526">
      <component glyphName="i" x="0" y="0" flags="0x204"/>
      <component glyphName="uni0307" x="-374" y="-290" flags="0x4"/>
    </TTGlyph>
    <TTGlyph name="glyph00364" xMin="192" yMin="-274" xMax="712" yMax="1190">
      <component glyphName="i" x="0" y="0" flags="0x4"/>
      <component glyphName="j" x="452" y="0" flags="0x4"/>
    </TTGlyph>
    <TTGlyph name="glyph00492" xMin="34" yMin="0" xMax="1066" yMax="1480">
      <contour>
        <pt x="34" y="0" on="1"/>
        <pt x="513" y="1480" on="1"/>
        <pt x="587" y="1480" on="1"/>
        <pt x="1066" y="0" on="1"/>
      </contour>
      <contour>
        <pt x="113" y="37" on="1"/>
        <pt x="92" y="66" on="1"/>
        <pt x="1006" y="66" on="1"/>
        <pt x="986" y="37" on="1"/>
        <pt x="536" y="1437" on="1"/>
        <pt x="564" y="1437" on="1"/>
      </contour>
    </TTGlyph>
    <TTGlyph name="glyph00493" xMin="102" yMin="0" xMax="998" yMax="1498">
      <contour>
        <pt x="102" y="0" on="1"/>
        <pt x="102" y="66" on="1"/>
        <pt x="406" y="66" on="1"/>
        <pt x="392" y="56" on="1"/>
        <pt x="248" y="178" on="0"/>
        <pt x="114" y="543" on="0"/>
        <pt x="114" y="790" on="1"/>
        <pt x="114" y="1046" on="0"/>
        <pt x="220" y="1357" on="0"/>
        <pt x="416" y="1498" on="0"/>
        <pt x="550" y="1498" on="1"/>
        <pt x="684" y="1498" on="0"/>
        <pt x="880" y="1357" on="0"/>
        <pt x="986" y="1046" on="0"/>
        <pt x="986" y="790" on="1"/>
        <pt x="986" y="543" on="0"/>
        <pt x="851" y="178" on="0"/>
        <pt x="708" y="56" on="1"/>
        <pt x="694" y="66" on="1"/>
        <pt x="998" y="66" on="1"/>
        <pt x="998" y="0" on="1"/>
        <pt x="632" y="0" on="1"/>
        <pt x="632" y="64" on="1"/>
        <pt x="734" y="148" on="0"/>
        <pt x="858" y="358" on="0"/>
        <pt x="914" y="623" on="0"/>
        <pt x="914" y="790" on="1"/>
        <pt x="914" y="1032" on="0"/>
        <pt x="823" y="1313" on="0"/>
        <pt x="660" y="1432" on="0"/>
        <pt x="550" y="1431" on="1"/>
        <pt x="441" y="1431" on="0"/>
        <pt x="277" y="1312" on="0"/>
        <pt x="186" y="1032" on="0"/>
        <pt x="186" y="790" on="1"/>
        <pt x="186" y="623" on="0"/>
        <pt x="242" y="358" on="0"/>
        <pt x="367" y="148" on="0"/>
        <pt x="468" y="64" on="1"/>
        <pt x="468" y="0" on="1"/>
      </contour>
    </TTGlyph>
    <TTGlyph name="glyph00496" xMin="174" yMin="-440" xMax="925" yMax="1080">
      <contour>
        <pt x="504" y="-18" on="1"/>
        <pt x="360" y="-18" on="0"/>
        <pt x="194" y="140" on="0"/>
        <pt x="194" y="339" on="1"/>
        <pt x="194" y="470" on="1"/>
        <pt x="242" y="470" on="1"/>
        <pt x="242" y="338" on="1"/>
        <pt x="242" y="175" on="0"/>
        <pt x="389" y="48" on="0"/>
        <pt x="506" y="48" on="1"/>
        <pt x="592" y="48" on="0"/>
        <pt x="787" y="129" on="0"/>
        <pt x="857" y="225" on="1"/>
        <pt x="857" y="1080" on="1"/>
        <pt x="925" y="1080" on="1"/>
        <pt x="925" y="0" on="1"/>
        <pt x="865" y="0" on="1"/>
        <pt x="859" y="124" on="1"/>
        <pt x="851" y="124" on="1"/>
        <pt x="781" y="53" on="0"/>
        <pt x="600" y="-18" on="0"/>
      </contour>
      <contour>
        <pt x="174" y="-440" on="1"/>
        <pt x="174" y="1080" on="1"/>
        <pt x="242" y="1080" on="1"/>
        <pt x="242" y="-440" on="1"/>
      </contour>
    </TTGlyph>
    <TTGlyph name="glyph00497" xMin="0" yMin="-18" xMax="1100" yMax="1080">
      <contour>
        <pt x="980" y="-18" on="1"/>
        <pt x="871" y="-18" on="0"/>
        <pt x="742" y="118" on="0"/>
        <pt x="741" y="278" on="1"/>
        <pt x="739" y="1046" on="1"/>
        <pt x="809" y="1046" on="1"/>
        <pt x="809" y="290" on="1"/>
        <pt x="809" y="154" on="0"/>
        <pt x="897" y="48" on="0"/>
        <pt x="984" y="48" on="1"/>
        <pt x="1011" y="48" on="0"/>
        <pt x="1070" y="57" on="0"/>
        <pt x="1100" y="64" on="1"/>
        <pt x="1100" y="-4" on="1"/>
        <pt x="1073" y="-10" on="0"/>
        <pt x="1009" y="-18" on="0"/>
      </contour>
      <contour>
        <pt x="190" y="-2" on="1"/>
        <pt x="190" y="1046" on="1"/>
        <pt x="258" y="1046" on="1"/>
        <pt x="258" y="-2" on="1"/>
      </contour>
      <contour>
        <pt x="0" y="1016" on="1"/>
        <pt x="0" y="1080" on="1"/>
        <pt x="1000" y="1080" on="1"/>
        <pt x="1000" y="1016" on="1"/>
      </contour>
    </TTGlyph>
    <TTGlyph name="glyph00508" xMin="118" yMin="-18" xMax="1068" yMax="1096">
      <contour>
        <pt x="593" y="-18" on="1"/>
        <pt x="452" y="-18" on="0"/>
        <pt x="238" y="104" on="0"/>
        <pt x="118" y="351" on="0"/>
        <pt x="118" y="540" on="1"/>
        <pt x="118" y="729" on="0"/>
        <pt x="238" y="976" on="0"/>
        <pt x="452" y="1096" on="0"/>
        <pt x="593" y="1096" on="1"/>
        <pt x="735" y="1096" on="0"/>
        <pt x="948" y="976" on="0"/>
        <pt x="1068" y="730" on="0"/>
        <pt x="1068" y="540" on="1"/>
        <pt x="1068" y="351" on="0"/>
        <pt x="948" y="103" on="0"/>
        <pt x="735" y="-18" on="0"/>
      </contour>
      <contour>
        <pt x="593" y="48" on="1"/>
        <pt x="778" y="48" on="0"/>
        <pt x="996" y="282" on="0"/>
        <pt x="996" y="540" on="1"/>
        <pt x="996" y="798" on="0"/>
        <pt x="778" y="1030" on="0"/>
        <pt x="593" y="1030" on="1"/>
        <pt x="408" y="1030" on="0"/>
        <pt x="190" y="797" on="0"/>
        <pt x="190" y="540" on="1"/>
        <pt x="190" y="283" on="0"/>
        <pt x="408" y="48" on="0"/>
      </contour>
    </TTGlyph>
    <TTGlyph name="glyph00509" xMin="7" yMin="0" xMax="457" yMax="1086">
      <contour>
        <pt x="389" y="0" on="1"/>
        <pt x="389" y="1004" on="1"/>
        <pt x="415" y="1012" on="1"/>
        <pt x="7" y="741" on="1"/>
        <pt x="7" y="815" on="1"/>
        <pt x="415" y="1086" on="1"/>
        <pt x="457" y="1086" on="1"/>
        <pt x="457" y="0" on="1"/>
      </contour>
    </TTGlyph>
    <TTGlyph name="glyph00510" xMin="73" yMin="0" xMax="896" yMax="1096">
      <contour>
        <pt x="88" y="0" on="1"/>
        <pt x="88" y="40" on="1"/>
        <pt x="400" y="322" on="1"/>
        <pt x="534" y="442" on="0"/>
        <pt x="675" y="608" on="0"/>
        <pt x="726" y="736" on="0"/>
        <pt x="726" y="798" on="1"/>
        <pt x="726" y="909" on="0"/>
        <pt x="573" y="1030" on="0"/>
        <pt x="395" y="1030" on="1"/>
        <pt x="314" y="1030" on="0"/>
        <pt x="157" y="1001" on="0"/>
        <pt x="73" y="969" on="1"/>
        <pt x="73" y="1037" on="1"/>
        <pt x="120" y="1056" on="0"/>
        <pt x="227" y="1082" on="0"/>
        <pt x="340" y="1096" on="0"/>
        <pt x="395" y="1096" on="1"/>
        <pt x="534" y="1096" on="0"/>
        <pt x="711" y="1025" on="0"/>
        <pt x="796" y="892" on="0"/>
        <pt x="796" y="799" on="1"/>
        <pt x="796" y="728" on="0"/>
        <pt x="739" y="582" on="0"/>
        <pt x="589" y="402" on="0"/>
        <pt x="449" y="279" on="1"/>
        <pt x="174" y="33" on="1"/>
        <pt x="151" y="64" on="1"/>
        <pt x="896" y="64" on="1"/>
        <pt x="896" y="0" on="1"/>
      </contour>
    </TTGlyph>
    <TTGlyph name="glyph00511" xMin="6" yMin="-420" xMax="840" yMax="1096">
      <contour>
        <pt x="347" y="-420" on="1"/>
        <pt x="260" y="-420" on="0"/>
        <pt x="85" y="-390" on="0"/>
        <pt x="6" y="-361" on="1"/>
        <pt x="6" y="-293" on="1"/>
        <pt x="92" y="-324" on="0"/>
        <pt x="267" y="-354" on="0"/>
        <pt x="348" y="-354" on="1"/>
        <pt x="556" y="-354" on="0"/>
        <pt x="770" y="-178" on="0"/>
        <pt x="770" y="-9" on="1"/>
        <pt x="770" y="148" on="0"/>
        <pt x="570" y="326" on="0"/>
        <pt x="362" y="326" on="1"/>
        <pt x="208" y="326" on="1"/>
        <pt x="208" y="392" on="1"/>
        <pt x="263" y="392" on="1"/>
        <pt x="485" y="392" on="0"/>
        <pt x="721" y="568" on="0"/>
        <pt x="721" y="733" on="1"/>
        <pt x="721" y="878" on="0"/>
        <pt x="538" y="1030" on="0"/>
        <pt x="365" y="1030" on="1"/>
        <pt x="283" y="1030" on="0"/>
        <pt x="126" y="1003" on="0"/>
        <pt x="46" y="974" on="1"/>
        <pt x="46" y="1042" on="1"/>
        <pt x="115" y="1068" on="0"/>
        <pt x="280" y="1096" on="0"/>
        <pt x="365" y="1096" on="1"/>
        <pt x="570" y="1096" on="0"/>
        <pt x="791" y="906" on="0"/>
        <pt x="791" y="733" on="1"/>
        <pt x="791" y="585" on="0"/>
        <pt x="606" y="386" on="0"/>
        <pt x="445" y="354" on="1"/>
        <pt x="446" y="380" on="1"/>
        <pt x="639" y="357" on="0"/>
        <pt x="840" y="155" on="0"/>
        <pt x="840" y="-9" on="1"/>
        <pt x="840" y="-204" on="0"/>
        <pt x="589" y="-420" on="0"/>
      </contour>
    </TTGlyph>
    <TTGlyph name="glyph00512" xMin="37" yMin="-400" xMax="1045" yMax="1080">
      <contour>
        <pt x="37" y="0" on="1"/>
        <pt x="37" y="40" on="1"/>
        <pt x="645" y="1080" on="1"/>
        <pt x="721" y="1080" on="1"/>
        <pt x="111" y="38" on="1"/>
        <pt x="94" y="64" on="1"/>
        <pt x="1045" y="64" on="1"/>
        <pt x="1045" y="0" on="1"/>
      </contour>
      <contour>
        <pt x="777" y="-400" on="1"/>
        <pt x="777" y="64" on="1"/>
        <pt x="785" y="596" on="1"/>
        <pt x="845" y="596" on="1"/>
        <pt x="845" y="-400" on="1"/>
      </contour>
    </TTGlyph>
    <TTGlyph name="glyph00513" xMin="64" yMin="-418" xMax="898" yMax="1080">
      <contour>
        <pt x="406" y="-418" on="1"/>
        <pt x="318" y="-418" on="0"/>
        <pt x="141" y="-387" on="0"/>
        <pt x="64" y="-359" on="1"/>
        <pt x="64" y="-291" on="1"/>
        <pt x="148" y="-321" on="0"/>
        <pt x="323" y="-352" on="0"/>
        <pt x="408" y="-352" on="1"/>
        <pt x="617" y="-352" on="0"/>
        <pt x="828" y="-174" on="0"/>
        <pt x="828" y="4" on="1"/>
        <pt x="828" y="118" on="0"/>
        <pt x="725" y="268" on="0"/>
        <pt x="497" y="350" on="0"/>
        <pt x="309" y="361" on="1"/>
        <pt x="124" y="372" on="1"/>
        <pt x="173" y="1080" on="1"/>
        <pt x="836" y="1080" on="1"/>
        <pt x="836" y="1016" on="1"/>
        <pt x="203" y="1016" on="1"/>
        <pt x="238" y="1040" on="1"/>
        <pt x="193" y="392" on="1"/>
        <pt x="141" y="438" on="1"/>
        <pt x="326" y="427" on="1"/>
        <pt x="627" y="409" on="0"/>
        <pt x="898" y="203" on="0"/>
        <pt x="898" y="5" on="1"/>
        <pt x="898" y="-201" on="0"/>
        <pt x="647" y="-418" on="0"/>
      </contour>
    </TTGlyph>
    <TTGlyph name="glyph00514" xMin="127" yMin="-18" xMax="1017" yMax="1498">
      <contour>
        <pt x="606" y="-18" on="1"/>
        <pt x="463" y="-18" on="0"/>
        <pt x="247" y="117" on="0"/>
        <pt x="127" y="428" on="0"/>
        <pt x="127" y="692" on="1"/>
        <pt x="127" y="1117" on="0"/>
        <pt x="423" y="1498" on="0"/>
        <pt x="702" y="1498" on="1"/>
        <pt x="766" y="1498" on="0"/>
        <pt x="898" y="1478" on="0"/>
        <pt x="953" y="1455" on="1"/>
        <pt x="953" y="1387" on="1"/>
        <pt x="897" y="1411" on="0"/>
        <pt x="763" y="1432" on="0"/>
        <pt x="701" y="1432" on="1"/>
        <pt x="454" y="1432" on="0"/>
        <pt x="197" y="1093" on="0"/>
        <pt x="197" y="704" on="1"/>
        <pt x="197" y="692" on="1"/>
        <pt x="197" y="447" on="0"/>
        <pt x="299" y="166" on="0"/>
        <pt x="483" y="48" on="0"/>
        <pt x="607" y="48" on="1"/>
        <pt x="704" y="48" on="0"/>
        <pt x="857" y="121" on="0"/>
        <pt x="947" y="278" on="0"/>
        <pt x="947" y="402" on="1"/>
        <pt x="947" y="590" on="0"/>
        <pt x="739" y="762" on="0"/>
        <pt x="566" y="762" on="1"/>
        <pt x="500" y="762" on="0"/>
        <pt x="354" y="729" on="0"/>
        <pt x="222" y="656" on="0"/>
        <pt x="175" y="597" on="1"/>
        <pt x="175" y="680" on="1"/>
        <pt x="241" y="749" on="0"/>
        <pt x="455" y="828" on="0"/>
        <pt x="570" y="828" on="1"/>
        <pt x="704" y="828" on="0"/>
        <pt x="905" y="735" on="0"/>
        <pt x="1017" y="547" on="0"/>
        <pt x="1017" y="405" on="1"/>
        <pt x="1017" y="262" on="0"/>
        <pt x="909" y="74" on="0"/>
        <pt x="723" y="-18" on="0"/>
      </contour>
    </TTGlyph>
    <TTGlyph name="glyph00515" xMin="3" yMin="-400" xMax="824" yMax="1080">
      <contour>
        <pt x="171" y="-400" on="1"/>
        <pt x="753" y="1042" on="1"/>
        <pt x="766" y="1016" on="1"/>
        <pt x="3" y="1016" on="1"/>
        <pt x="3" y="1080" on="1"/>
        <pt x="824" y="1080" on="1"/>
        <pt x="824" y="1040" on="1"/>
        <pt x="244" y="-400" on="1"/>
      </contour>
    </TTGlyph>
    <TTGlyph name="glyph00516" xMin="111" yMin="-18" xMax="1089" yMax="1498">
      <contour>
        <pt x="611" y="-18" on="1"/>
        <pt x="451" y="-18" on="0"/>
        <pt x="228" y="72" on="0"/>
        <pt x="111" y="246" on="0"/>
        <pt x="111" y="372" on="1"/>
        <pt x="111" y="522" on="0"/>
        <pt x="282" y="737" on="0"/>
        <pt x="430" y="786" on="1"/>
        <pt x="501" y="753" on="1"/>
        <pt x="348" y="710" on="0"/>
        <pt x="182" y="511" on="0"/>
        <pt x="182" y="374" on="1"/>
        <pt x="182" y="216" on="0"/>
        <pt x="400" y="48" on="0"/>
        <pt x="612" y="48" on="1"/>
        <pt x="806" y="48" on="0"/>
        <pt x="1017" y="211" on="0"/>
        <pt x="1017" y="362" on="1"/>
        <pt x="1017" y="456" on="0"/>
        <pt x="941" y="584" on="0"/>
        <pt x="767" y="673" on="0"/>
        <pt x="621" y="707" on="1"/>
        <pt x="456" y="746" on="0"/>
        <pt x="254" y="859" on="0"/>
        <pt x="162" y="1019" on="0"/>
        <pt x="162" y="1127" on="1"/>
        <pt x="162" y="1299" on="0"/>
        <pt x="394" y="1498" on="0"/>
        <pt x="595" y="1498" on="1"/>
        <pt x="801" y="1498" on="0"/>
        <pt x="1037" y="1299" on="0"/>
        <pt x="1037" y="1126" on="1"/>
        <pt x="1037" y="984" on="0"/>
        <pt x="883" y="783" on="0"/>
        <pt x="742" y="727" on="1"/>
        <pt x="674" y="758" on="1"/>
        <pt x="829" y="820" on="0"/>
        <pt x="969" y="991" on="0"/>
        <pt x="969" y="1125" on="1"/>
        <pt x="969" y="1275" on="0"/>
        <pt x="770" y="1432" on="0"/>
        <pt x="594" y="1432" on="1"/>
        <pt x="418" y="1432" on="0"/>
        <pt x="234" y="1270" on="0"/>
        <pt x="234" y="1129" on="1"/>
        <pt x="234" y="1036" on="0"/>
        <pt x="308" y="903" on="0"/>
        <pt x="482" y="809" on="0"/>
        <pt x="632" y="774" on="1"/>
        <pt x="797" y="736" on="0"/>
        <pt x="998" y="626" on="0"/>
        <pt x="1089" y="473" on="0"/>
        <pt x="1089" y="367" on="1"/>
        <pt x="1089" y="250" on="0"/>
        <pt x="976" y="77" on="0"/>
        <pt x="762" y="-18" on="0"/>
      </contour>
    </TTGlyph>
    <TTGlyph name="glyph00517" xMin="79" yMin="-418" xMax="969" yMax="1098">
      <contour>
        <pt x="394" y="-418" on="1"/>
        <pt x="330" y="-418" on="0"/>
        <pt x="199" y="-398" on="0"/>
        <pt x="143" y="-375" on="1"/>
        <pt x="143" y="-307" on="1"/>
        <pt x="199" y="-331" on="0"/>
        <pt x="334" y="-352" on="0"/>
        <pt x="395" y="-352" on="1"/>
        <pt x="642" y="-352" on="0"/>
        <pt x="899" y="-13" on="0"/>
        <pt x="899" y="376" on="1"/>
        <pt x="899" y="388" on="1"/>
        <pt x="899" y="633" on="0"/>
        <pt x="797" y="914" on="0"/>
        <pt x="613" y="1032" on="0"/>
        <pt x="489" y="1032" on="1"/>
        <pt x="393" y="1032" on="0"/>
        <pt x="239" y="959" on="0"/>
        <pt x="149" y="803" on="0"/>
        <pt x="149" y="678" on="1"/>
        <pt x="149" y="490" on="0"/>
        <pt x="357" y="318" on="0"/>
        <pt x="530" y="318" on="1"/>
        <pt x="596" y="318" on="0"/>
        <pt x="742" y="351" on="0"/>
        <pt x="875" y="424" on="0"/>
        <pt x="921" y="483" on="1"/>
        <pt x="921" y="400" on="1"/>
        <pt x="855" y="331" on="0"/>
        <pt x="641" y="252" on="0"/>
        <pt x="526" y="252" on="1"/>
        <pt x="393" y="252" on="0"/>
        <pt x="191" y="345" on="0"/>
        <pt x="79" y="533" on="0"/>
        <pt x="79" y="675" on="1"/>
        <pt x="79" y="818" on="0"/>
        <pt x="187" y="1006" on="0"/>
        <pt x="374" y="1098" on="0"/>
        <pt x="490" y="1098" on="1"/>
        <pt x="633" y="1098" on="0"/>
        <pt x="849" y="963" on="0"/>
        <pt x="969" y="652" on="0"/>
        <pt x="969" y="388" on="1"/>
        <pt x="969" y="-36" on="0"/>
        <pt x="673" y="-418" on="0"/>
      </contour>
    </TTGlyph>
    <TTGlyph name="glyph00518" xMin="114" yMin="-18" xMax="986" yMax="1498">
      <contour>
        <pt x="550" y="-18" on="1"/>
        <pt x="418" y="-18" on="0"/>
        <pt x="222" y="127" on="0"/>
        <pt x="114" y="459" on="0"/>
        <pt x="114" y="740" on="1"/>
        <pt x="114" y="1021" on="0"/>
        <pt x="220" y="1353" on="0"/>
        <pt x="416" y="1498" on="0"/>
        <pt x="550" y="1498" on="1"/>
        <pt x="684" y="1498" on="0"/>
        <pt x="880" y="1353" on="0"/>
        <pt x="986" y="1021" on="0"/>
        <pt x="986" y="740" on="1"/>
        <pt x="986" y="459" on="0"/>
        <pt x="878" y="127" on="0"/>
        <pt x="682" y="-18" on="0"/>
      </contour>
      <contour>
        <pt x="550" y="48" on="1"/>
        <pt x="660" y="48" on="0"/>
        <pt x="823" y="171" on="0"/>
        <pt x="914" y="471" on="0"/>
        <pt x="914" y="736" on="1"/>
        <pt x="914" y="1005" on="0"/>
        <pt x="823" y="1308" on="0"/>
        <pt x="660" y="1432" on="0"/>
        <pt x="550" y="1432" on="1"/>
        <pt x="441" y="1432" on="0"/>
        <pt x="277" y="1309" on="0"/>
        <pt x="186" y="1009" on="0"/>
        <pt x="186" y="744" on="1"/>
        <pt x="186" y="475" on="0"/>
        <pt x="277" y="172" on="0"/>
        <pt x="441" y="48" on="0"/>
      </contour>
    </TTGlyph>
    <TTGlyph name="glyph00519" xMin="208" yMin="0" xMax="991" yMax="1484">
      <contour>
        <pt x="578" y="0" on="1"/>
        <pt x="578" y="1410" on="1"/>
        <pt x="604" y="1405" on="1"/>
        <pt x="208" y="1114" on="1"/>
        <pt x="208" y="1191" on="1"/>
        <pt x="604" y="1484" on="1"/>
        <pt x="646" y="1484" on="1"/>
        <pt x="646" y="0" on="1"/>
      </contour>
      <contour>
        <pt x="218" y="0" on="1"/>
        <pt x="218" y="64" on="1"/>
        <pt x="991" y="64" on="1"/>
        <pt x="991" y="0" on="1"/>
      </contour>
    </TTGlyph>
    <TTGlyph name="glyph00520" xMin="125" yMin="0" xMax="961" yMax="1498">
      <contour>
        <pt x="142" y="0" on="1"/>
        <pt x="142" y="40" on="1"/>
        <pt x="592" y="635" on="1"/>
        <pt x="713" y="793" on="0"/>
        <pt x="817" y="1015" on="0"/>
        <pt x="817" y="1121" on="1"/>
        <pt x="817" y="1288" on="0"/>
        <pt x="631" y="1432" on="0"/>
        <pt x="458" y="1432" on="1"/>
        <pt x="364" y="1432" on="0"/>
        <pt x="202" y="1403" on="0"/>
        <pt x="125" y="1373" on="1"/>
        <pt x="125" y="1441" on="1"/>
        <pt x="168" y="1459" on="0"/>
        <pt x="274" y="1485" on="0"/>
        <pt x="394" y="1498" on="0"/>
        <pt x="458" y="1498" on="1"/>
        <pt x="660" y="1498" on="0"/>
        <pt x="889" y="1319" on="0"/>
        <pt x="887" y="1123" on="1"/>
        <pt x="887" y="1042" on="0"/>
        <pt x="838" y="887" on="0"/>
        <pt x="730" y="708" on="0"/>
        <pt x="640" y="591" on="1"/>
        <pt x="221" y="40" on="1"/>
        <pt x="207" y="64" on="1"/>
        <pt x="961" y="64" on="1"/>
        <pt x="961" y="0" on="1"/>
      </contour>
    </TTGlyph>
    <TTGlyph name="glyph00521" xMin="108" yMin="-18" xMax="977" yMax="1498">
      <contour>
        <pt x="463" y="-18" on="1"/>
        <pt x="372" y="-18" on="0"/>
        <pt x="190" y="12" on="0"/>
        <pt x="108" y="41" on="1"/>
        <pt x="108" y="109" on="1"/>
        <pt x="198" y="78" on="0"/>
        <pt x="380" y="48" on="0"/>
        <pt x="464" y="48" on="1"/>
        <pt x="681" y="48" on="0"/>
        <pt x="907" y="224" on="0"/>
        <pt x="907" y="393" on="1"/>
        <pt x="907" y="550" on="0"/>
        <pt x="697" y="728" on="0"/>
        <pt x="479" y="728" on="1"/>
        <pt x="318" y="728" on="1"/>
        <pt x="318" y="794" on="1"/>
        <pt x="376" y="794" on="1"/>
        <pt x="609" y="794" on="0"/>
        <pt x="856" y="970" on="0"/>
        <pt x="856" y="1135" on="1"/>
        <pt x="856" y="1280" on="0"/>
        <pt x="664" y="1432" on="0"/>
        <pt x="482" y="1432" on="1"/>
        <pt x="396" y="1432" on="0"/>
        <pt x="232" y="1405" on="0"/>
        <pt x="149" y="1376" on="1"/>
        <pt x="149" y="1444" on="1"/>
        <pt x="221" y="1470" on="0"/>
        <pt x="394" y="1498" on="0"/>
        <pt x="482" y="1498" on="1"/>
        <pt x="695" y="1498" on="0"/>
        <pt x="926" y="1308" on="0"/>
        <pt x="926" y="1135" on="1"/>
        <pt x="926" y="987" on="0"/>
        <pt x="733" y="789" on="0"/>
        <pt x="565" y="756" on="1"/>
        <pt x="566" y="782" on="1"/>
        <pt x="767" y="760" on="0"/>
        <pt x="977" y="557" on="0"/>
        <pt x="977" y="393" on="1"/>
        <pt x="977" y="198" on="0"/>
        <pt x="715" y="-18" on="0"/>
      </contour>
    </TTGlyph>
    <TTGlyph name="glyph00522" xMin="50" yMin="0" xMax="1058" yMax="1480">
      <contour>
        <pt x="50" y="384" on="1"/>
        <pt x="50" y="424" on="1"/>
        <pt x="638" y="1480" on="1"/>
        <pt x="714" y="1480" on="1"/>
        <pt x="124" y="422" on="1"/>
        <pt x="108" y="448" on="1"/>
        <pt x="1058" y="448" on="1"/>
        <pt x="1058" y="384" on="1"/>
      </contour>
      <contour>
        <pt x="770" y="0" on="1"/>
        <pt x="770" y="448" on="1"/>
        <pt x="784" y="980" on="1"/>
        <pt x="838" y="980" on="1"/>
        <pt x="838" y="0" on="1"/>
      </contour>
    </TTGlyph>
    <TTGlyph name="glyph00523" xMin="126" yMin="-18" xMax="995" yMax="1480">
      <contour>
        <pt x="482" y="-18" on="1"/>
        <pt x="389" y="-18" on="0"/>
        <pt x="205" y="13" on="0"/>
        <pt x="126" y="41" on="1"/>
        <pt x="126" y="109" on="1"/>
        <pt x="213" y="79" on="0"/>
        <pt x="396" y="48" on="0"/>
        <pt x="484" y="48" on="1"/>
        <pt x="702" y="48" on="0"/>
        <pt x="925" y="226" on="0"/>
        <pt x="925" y="404" on="1"/>
        <pt x="925" y="518" on="0"/>
        <pt x="816" y="668" on="0"/>
        <pt x="577" y="750" on="0"/>
        <pt x="381" y="761" on="1"/>
        <pt x="188" y="772" on="1"/>
        <pt x="239" y="1480" on="1"/>
        <pt x="930" y="1480" on="1"/>
        <pt x="930" y="1416" on="1"/>
        <pt x="270" y="1416" on="1"/>
        <pt x="303" y="1440" on="1"/>
        <pt x="256" y="792" on="1"/>
        <pt x="206" y="838" on="1"/>
        <pt x="398" y="827" on="1"/>
        <pt x="607" y="815" on="0"/>
        <pt x="871" y="716" on="0"/>
        <pt x="995" y="537" on="0"/>
        <pt x="995" y="405" on="1"/>
        <pt x="995" y="199" on="0"/>
        <pt x="733" y="-18" on="0"/>
      </contour>
    </TTGlyph>
    <TTGlyph name="glyph00524" xMin="153" yMin="-18" xMax="1023" yMax="1498">
      <contour>
        <pt x="621" y="-18" on="1"/>
        <pt x="482" y="-18" on="0"/>
        <pt x="271" y="117" on="0"/>
        <pt x="153" y="428" on="0"/>
        <pt x="153" y="692" on="1"/>
        <pt x="153" y="1117" on="0"/>
        <pt x="443" y="1498" on="0"/>
        <pt x="715" y="1498" on="1"/>
        <pt x="777" y="1498" on="0"/>
        <pt x="906" y="1478" on="0"/>
        <pt x="960" y="1455" on="1"/>
        <pt x="960" y="1387" on="1"/>
        <pt x="905" y="1411" on="0"/>
        <pt x="774" y="1432" on="0"/>
        <pt x="714" y="1432" on="1"/>
        <pt x="473" y="1432" on="0"/>
        <pt x="223" y="1093" on="0"/>
        <pt x="223" y="704" on="1"/>
        <pt x="223" y="692" on="1"/>
        <pt x="223" y="447" on="0"/>
        <pt x="322" y="166" on="0"/>
        <pt x="501" y="48" on="0"/>
        <pt x="622" y="48" on="1"/>
        <pt x="764" y="48" on="0"/>
        <pt x="953" y="215" on="0"/>
        <pt x="953" y="402" on="1"/>
        <pt x="953" y="590" on="0"/>
        <pt x="752" y="762" on="0"/>
        <pt x="582" y="762" on="1"/>
        <pt x="485" y="762" on="0"/>
        <pt x="268" y="686" on="0"/>
        <pt x="200" y="597" on="1"/>
        <pt x="200" y="680" on="1"/>
        <pt x="265" y="749" on="0"/>
        <pt x="474" y="828" on="0"/>
        <pt x="586" y="828" on="1"/>
        <pt x="717" y="828" on="0"/>
        <pt x="913" y="735" on="0"/>
        <pt x="1023" y="547" on="0"/>
        <pt x="1023" y="405" on="1"/>
        <pt x="1023" y="262" on="0"/>
        <pt x="917" y="74" on="0"/>
        <pt x="735" y="-18" on="0"/>
      </contour>
    </TTGlyph>
    <TTGlyph name="glyph00525" xMin="71" yMin="0" xMax="978" yMax="1480">
      <contour>
        <pt x="253" y="0" on="1"/>
        <pt x="907" y="1442" on="1"/>
        <pt x="918" y="1416" on="1"/>
        <pt x="71" y="1416" on="1"/>
        <pt x="71" y="1480" on="1"/>
        <pt x="978" y="1480" on="1"/>
        <pt x="978" y="1440" on="1"/>
        <pt x="326" y="0" on="1"/>
      </contour>
    </TTGlyph>
    <TTGlyph name="glyph00526" xMin="91" yMin="-18" xMax="1009" yMax="1498">
      <contour>
        <pt x="561" y="-18" on="1"/>
        <pt x="411" y="-18" on="0"/>
        <pt x="201" y="72" on="0"/>
        <pt x="91" y="246" on="0"/>
        <pt x="91" y="372" on="1"/>
        <pt x="91" y="522" on="0"/>
        <pt x="252" y="737" on="0"/>
        <pt x="391" y="786" on="1"/>
        <pt x="458" y="753" on="1"/>
        <pt x="316" y="710" on="0"/>
        <pt x="162" y="511" on="0"/>
        <pt x="162" y="374" on="1"/>
        <pt x="162" y="216" on="0"/>
        <pt x="364" y="48" on="0"/>
        <pt x="562" y="48" on="1"/>
        <pt x="742" y="48" on="0"/>
        <pt x="937" y="211" on="0"/>
        <pt x="937" y="362" on="1"/>
        <pt x="937" y="456" on="0"/>
        <pt x="866" y="585" on="0"/>
        <pt x="705" y="673" on="0"/>
        <pt x="569" y="707" on="1"/>
        <pt x="414" y="746" on="0"/>
        <pt x="224" y="859" on="0"/>
        <pt x="139" y="1019" on="0"/>
        <pt x="139" y="1127" on="1"/>
        <pt x="139" y="1299" on="0"/>
        <pt x="357" y="1498" on="0"/>
        <pt x="545" y="1498" on="1"/>
        <pt x="739" y="1498" on="0"/>
        <pt x="960" y="1299" on="0"/>
        <pt x="960" y="1126" on="1"/>
        <pt x="960" y="984" on="0"/>
        <pt x="815" y="783" on="0"/>
        <pt x="683" y="727" on="1"/>
        <pt x="619" y="758" on="1"/>
        <pt x="763" y="820" on="0"/>
        <pt x="892" y="991" on="0"/>
        <pt x="892" y="1125" on="1"/>
        <pt x="892" y="1275" on="0"/>
        <pt x="708" y="1432" on="0"/>
        <pt x="544" y="1432" on="1"/>
        <pt x="381" y="1432" on="0"/>
        <pt x="211" y="1270" on="0"/>
        <pt x="211" y="1129" on="1"/>
        <pt x="211" y="1036" on="0"/>
        <pt x="279" y="903" on="0"/>
        <pt x="441" y="809" on="0"/>
        <pt x="580" y="774" on="1"/>
        <pt x="735" y="736" on="0"/>
        <pt x="924" y="626" on="0"/>
        <pt x="1009" y="473" on="0"/>
        <pt x="1009" y="367" on="1"/>
        <pt x="1009" y="250" on="0"/>
        <pt x="903" y="77" on="0"/>
        <pt x="703" y="-18" on="0"/>
      </contour>
    </TTGlyph>
    <TTGlyph name="glyph00527" xMin="77" yMin="-18" xMax="947" yMax="1498">
      <contour>
        <pt x="385" y="-18" on="1"/>
        <pt x="323" y="-18" on="0"/>
        <pt x="194" y="2" on="0"/>
        <pt x="140" y="25" on="1"/>
        <pt x="140" y="93" on="1"/>
        <pt x="195" y="69" on="0"/>
        <pt x="326" y="48" on="0"/>
        <pt x="386" y="48" on="1"/>
        <pt x="627" y="48" on="0"/>
        <pt x="877" y="387" on="0"/>
        <pt x="877" y="776" on="1"/>
        <pt x="877" y="788" on="1"/>
        <pt x="877" y="1033" on="0"/>
        <pt x="778" y="1314" on="0"/>
        <pt x="599" y="1432" on="0"/>
        <pt x="478" y="1432" on="1"/>
        <pt x="336" y="1432" on="0"/>
        <pt x="147" y="1265" on="0"/>
        <pt x="147" y="1078" on="1"/>
        <pt x="147" y="890" on="0"/>
        <pt x="349" y="718" on="0"/>
        <pt x="518" y="718" on="1"/>
        <pt x="615" y="718" on="0"/>
        <pt x="832" y="795" on="0"/>
        <pt x="900" y="883" on="1"/>
        <pt x="900" y="800" on="1"/>
        <pt x="836" y="731" on="0"/>
        <pt x="627" y="652" on="0"/>
        <pt x="514" y="652" on="1"/>
        <pt x="384" y="652" on="0"/>
        <pt x="187" y="745" on="0"/>
        <pt x="77" y="933" on="0"/>
        <pt x="77" y="1075" on="1"/>
        <pt x="77" y="1218" on="0"/>
        <pt x="183" y="1406" on="0"/>
        <pt x="365" y="1498" on="0"/>
        <pt x="479" y="1498" on="1"/>
        <pt x="619" y="1498" on="0"/>
        <pt x="829" y="1363" on="0"/>
        <pt x="947" y="1052" on="0"/>
        <pt x="947" y="788" on="1"/>
        <pt x="947" y="364" on="0"/>
        <pt x="657" y="-18" on="0"/>
      </contour>
    </TTGlyph>
    <TTGlyph name="glyph00528" xMin="108" yMin="-18" xMax="992" yMax="1096">
      <contour>
        <pt x="550" y="-18" on="1"/>
        <pt x="415" y="-18" on="0"/>
        <pt x="217" y="106" on="0"/>
        <pt x="108" y="355" on="0"/>
        <pt x="108" y="540" on="1"/>
        <pt x="108" y="726" on="0"/>
        <pt x="217" y="973" on="0"/>
        <pt x="415" y="1096" on="0"/>
        <pt x="550" y="1096" on="1"/>
        <pt x="685" y="1096" on="0"/>
        <pt x="884" y="973" on="0"/>
        <pt x="992" y="726" on="0"/>
        <pt x="992" y="540" on="1"/>
        <pt x="992" y="354" on="0"/>
        <pt x="884" y="106" on="0"/>
        <pt x="685" y="-18" on="0"/>
      </contour>
      <contour>
        <pt x="550" y="48" on="1"/>
        <pt x="723" y="48" on="0"/>
        <pt x="920" y="287" on="0"/>
        <pt x="920" y="540" on="1"/>
        <pt x="920" y="794" on="0"/>
        <pt x="723" y="1030" on="0"/>
        <pt x="550" y="1030" on="1"/>
        <pt x="378" y="1030" on="0"/>
        <pt x="180" y="793" on="0"/>
        <pt x="180" y="540" on="1"/>
        <pt x="180" y="287" on="0"/>
        <pt x="378" y="48" on="0"/>
      </contour>
    </TTGlyph>
    <TTGlyph name="glyph00529" xMin="200" yMin="0" xMax="998" yMax="1086">
      <contour>
        <pt x="570" y="0" on="1"/>
        <pt x="570" y="1012" on="1"/>
        <pt x="596" y="1012" on="1"/>
        <pt x="200" y="747" on="1"/>
        <pt x="200" y="821" on="1"/>
        <pt x="596" y="1086" on="1"/>
        <pt x="638" y="1086" on="1"/>
        <pt x="638" y="0" on="1"/>
      </contour>
      <contour>
        <pt x="210" y="0" on="1"/>
        <pt x="210" y="64" on="1"/>
        <pt x="998" y="64" on="1"/>
        <pt x="998" y="0" on="1"/>
      </contour>
    </TTGlyph>
    <TTGlyph name="glyph00530" xMin="129" yMin="0" xMax="999" yMax="1096">
      <contour>
        <pt x="144" y="0" on="1"/>
        <pt x="144" y="40" on="1"/>
        <pt x="534" y="378" on="1"/>
        <pt x="652" y="474" on="0"/>
        <pt x="781" y="615" on="0"/>
        <pt x="833" y="734" on="0"/>
        <pt x="833" y="797" on="1"/>
        <pt x="833" y="909" on="0"/>
        <pt x="667" y="1030" on="0"/>
        <pt x="473" y="1030" on="1"/>
        <pt x="386" y="1030" on="0"/>
        <pt x="219" y="1001" on="0"/>
        <pt x="129" y="969" on="1"/>
        <pt x="129" y="1037" on="1"/>
        <pt x="179" y="1056" on="0"/>
        <pt x="292" y="1082" on="0"/>
        <pt x="413" y="1096" on="0"/>
        <pt x="473" y="1096" on="1"/>
        <pt x="623" y="1096" on="0"/>
        <pt x="813" y="1026" on="0"/>
        <pt x="902" y="893" on="0"/>
        <pt x="902" y="799" on="1"/>
        <pt x="902" y="727" on="0"/>
        <pt x="845" y="589" on="0"/>
        <pt x="706" y="434" on="0"/>
        <pt x="583" y="336" on="1"/>
        <pt x="231" y="33" on="1"/>
        <pt x="213" y="64" on="1"/>
        <pt x="999" y="64" on="1"/>
        <pt x="999" y="0" on="1"/>
      </contour>
    </TTGlyph>
    <TTGlyph name="glyph00531" xMin="65" yMin="-420" xMax="939" yMax="1096">
      <contour>
        <pt x="422" y="-420" on="1"/>
        <pt x="331" y="-420" on="0"/>
        <pt x="148" y="-390" on="0"/>
        <pt x="65" y="-361" on="1"/>
        <pt x="65" y="-293" on="1"/>
        <pt x="156" y="-324" on="0"/>
        <pt x="339" y="-354" on="0"/>
        <pt x="423" y="-354" on="1"/>
        <pt x="642" y="-354" on="0"/>
        <pt x="870" y="-178" on="0"/>
        <pt x="870" y="-9" on="1"/>
        <pt x="870" y="148" on="0"/>
        <pt x="658" y="326" on="0"/>
        <pt x="438" y="326" on="1"/>
        <pt x="276" y="326" on="1"/>
        <pt x="276" y="392" on="1"/>
        <pt x="334" y="392" on="1"/>
        <pt x="569" y="392" on="0"/>
        <pt x="818" y="568" on="0"/>
        <pt x="818" y="733" on="1"/>
        <pt x="818" y="878" on="0"/>
        <pt x="624" y="1030" on="0"/>
        <pt x="441" y="1030" on="1"/>
        <pt x="354" y="1030" on="0"/>
        <pt x="190" y="1003" on="0"/>
        <pt x="107" y="974" on="1"/>
        <pt x="107" y="1042" on="1"/>
        <pt x="180" y="1068" on="0"/>
        <pt x="352" y="1096" on="0"/>
        <pt x="441" y="1096" on="1"/>
        <pt x="656" y="1096" on="0"/>
        <pt x="888" y="906" on="0"/>
        <pt x="888" y="733" on="1"/>
        <pt x="888" y="585" on="0"/>
        <pt x="695" y="386" on="0"/>
        <pt x="525" y="354" on="1"/>
        <pt x="526" y="380" on="1"/>
        <pt x="729" y="357" on="0"/>
        <pt x="939" y="155" on="0"/>
        <pt x="939" y="-9" on="1"/>
        <pt x="939" y="-204" on="0"/>
        <pt x="676" y="-420" on="0"/>
      </contour>
    </TTGlyph>
    <TTGlyph name="glyph00532" xMin="55" yMin="-400" xMax="1043" yMax="1080">
      <contour>
        <pt x="55" y="0" on="1"/>
        <pt x="55" y="40" on="1"/>
        <pt x="653" y="1080" on="1"/>
        <pt x="729" y="1080" on="1"/>
        <pt x="129" y="38" on="1"/>
        <pt x="112" y="64" on="1"/>
        <pt x="1043" y="64" on="1"/>
        <pt x="1043" y="0" on="1"/>
      </contour>
      <contour>
        <pt x="775" y="-400" on="1"/>
        <pt x="775" y="64" on="1"/>
        <pt x="783" y="596" on="1"/>
        <pt x="843" y="596" on="1"/>
        <pt x="843" y="-400" on="1"/>
      </contour>
    </TTGlyph>
    <TTGlyph name="glyph00533" xMin="117" yMin="-418" xMax="991" yMax="1080">
      <contour>
        <pt x="475" y="-418" on="1"/>
        <pt x="282" y="-418" on="0"/>
        <pt x="117" y="-359" on="1"/>
        <pt x="117" y="-291" on="1"/>
        <pt x="206" y="-321" on="0"/>
        <pt x="389" y="-352" on="0"/>
        <pt x="477" y="-352" on="1"/>
        <pt x="697" y="-352" on="0"/>
        <pt x="921" y="-174" on="0"/>
        <pt x="921" y="4" on="1"/>
        <pt x="921" y="118" on="0"/>
        <pt x="812" y="268" on="0"/>
        <pt x="571" y="350" on="0"/>
        <pt x="374" y="361" on="1"/>
        <pt x="179" y="372" on="1"/>
        <pt x="232" y="1080" on="1"/>
        <pt x="926" y="1080" on="1"/>
        <pt x="926" y="1016" on="1"/>
        <pt x="263" y="1016" on="1"/>
        <pt x="295" y="1040" on="1"/>
        <pt x="248" y="392" on="1"/>
        <pt x="198" y="438" on="1"/>
        <pt x="391" y="427" on="1"/>
        <pt x="706" y="409" on="0"/>
        <pt x="991" y="203" on="0"/>
        <pt x="991" y="5" on="1"/>
        <pt x="991" y="-201" on="0"/>
        <pt x="728" y="-418" on="0"/>
      </contour>
    </TTGlyph>
    <TTGlyph name="glyph00534" xMin="153" yMin="-18" xMax="1023" yMax="1498">
      <contour>
        <pt x="621" y="-18" on="1"/>
        <pt x="482" y="-18" on="0"/>
        <pt x="271" y="117" on="0"/>
        <pt x="153" y="428" on="0"/>
        <pt x="153" y="692" on="1"/>
        <pt x="153" y="1117" on="0"/>
        <pt x="443" y="1498" on="0"/>
        <pt x="715" y="1498" on="1"/>
        <pt x="777" y="1498" on="0"/>
        <pt x="906" y="1478" on="0"/>
        <pt x="960" y="1455" on="1"/>
        <pt x="960" y="1387" on="1"/>
        <pt x="905" y="1411" on="0"/>
        <pt x="774" y="1432" on="0"/>
        <pt x="714" y="1432" on="1"/>
        <pt x="473" y="1432" on="0"/>
        <pt x="223" y="1093" on="0"/>
        <pt x="223" y="704" on="1"/>
        <pt x="223" y="692" on="1"/>
        <pt x="223" y="447" on="0"/>
        <pt x="322" y="166" on="0"/>
        <pt x="501" y="48" on="0"/>
        <pt x="622" y="48" on="1"/>
        <pt x="764" y="48" on="0"/>
        <pt x="953" y="215" on="0"/>
        <pt x="953" y="402" on="1"/>
        <pt x="953" y="590" on="0"/>
        <pt x="752" y="762" on="0"/>
        <pt x="582" y="762" on="1"/>
        <pt x="485" y="762" on="0"/>
        <pt x="268" y="686" on="0"/>
        <pt x="200" y="597" on="1"/>
        <pt x="200" y="680" on="1"/>
        <pt x="265" y="749" on="0"/>
        <pt x="474" y="828" on="0"/>
        <pt x="586" y="828" on="1"/>
        <pt x="717" y="828" on="0"/>
        <pt x="913" y="735" on="0"/>
        <pt x="1023" y="547" on="0"/>
        <pt x="1023" y="405" on="1"/>
        <pt x="1023" y="262" on="0"/>
        <pt x="917" y="74" on="0"/>
        <pt x="735" y="-18" on="0"/>
      </contour>
    </TTGlyph>
    <TTGlyph name="glyph00535" xMin="71" yMin="-400" xMax="978" yMax="1080">
      <contour>
        <pt x="253" y="-400" on="1"/>
        <pt x="907" y="1042" on="1"/>
        <pt x="918" y="1016" on="1"/>
        <pt x="71" y="1016" on="1"/>
        <pt x="71" y="1080" on="1"/>
        <pt x="978" y="1080" on="1"/>
        <pt x="978" y="1040" on="1"/>
        <pt x="326" y="-400" on="1"/>
      </contour>
    </TTGlyph>
    <TTGlyph name="glyph00536" xMin="91" yMin="-18" xMax="1009" yMax="1498">
      <contour>
        <pt x="561" y="-18" on="1"/>
        <pt x="411" y="-18" on="0"/>
        <pt x="201" y="72" on="0"/>
        <pt x="91" y="246" on="0"/>
        <pt x="91" y="372" on="1"/>
        <pt x="91" y="522" on="0"/>
        <pt x="252" y="737" on="0"/>
        <pt x="391" y="786" on="1"/>
        <pt x="458" y="753" on="1"/>
        <pt x="316" y="710" on="0"/>
        <pt x="162" y="511" on="0"/>
        <pt x="162" y="374" on="1"/>
        <pt x="162" y="216" on="0"/>
        <pt x="364" y="48" on="0"/>
        <pt x="562" y="48" on="1"/>
        <pt x="742" y="48" on="0"/>
        <pt x="937" y="211" on="0"/>
        <pt x="937" y="362" on="1"/>
        <pt x="937" y="456" on="0"/>
        <pt x="866" y="585" on="0"/>
        <pt x="705" y="673" on="0"/>
        <pt x="569" y="707" on="1"/>
        <pt x="414" y="746" on="0"/>
        <pt x="224" y="859" on="0"/>
        <pt x="139" y="1019" on="0"/>
        <pt x="139" y="1127" on="1"/>
        <pt x="139" y="1299" on="0"/>
        <pt x="357" y="1498" on="0"/>
        <pt x="545" y="1498" on="1"/>
        <pt x="739" y="1498" on="0"/>
        <pt x="960" y="1299" on="0"/>
        <pt x="960" y="1126" on="1"/>
        <pt x="960" y="984" on="0"/>
        <pt x="815" y="783" on="0"/>
        <pt x="683" y="727" on="1"/>
        <pt x="619" y="758" on="1"/>
        <pt x="763" y="820" on="0"/>
        <pt x="892" y="991" on="0"/>
        <pt x="892" y="1125" on="1"/>
        <pt x="892" y="1275" on="0"/>
        <pt x="708" y="1432" on="0"/>
        <pt x="544" y="1432" on="1"/>
        <pt x="381" y="1432" on="0"/>
        <pt x="211" y="1270" on="0"/>
        <pt x="211" y="1129" on="1"/>
        <pt x="211" y="1036" on="0"/>
        <pt x="279" y="903" on="0"/>
        <pt x="441" y="809" on="0"/>
        <pt x="580" y="774" on="1"/>
        <pt x="735" y="736" on="0"/>
        <pt x="924" y="626" on="0"/>
        <pt x="1009" y="473" on="0"/>
        <pt x="1009" y="367" on="1"/>
        <pt x="1009" y="250" on="0"/>
        <pt x="903" y="77" on="0"/>
        <pt x="703" y="-18" on="0"/>
      </contour>
    </TTGlyph>
    <TTGlyph name="glyph00537" xMin="77" yMin="-418" xMax="947" yMax="1098">
      <contour>
        <pt x="385" y="-418" on="1"/>
        <pt x="323" y="-418" on="0"/>
        <pt x="194" y="-398" on="0"/>
        <pt x="140" y="-375" on="1"/>
        <pt x="140" y="-307" on="1"/>
        <pt x="195" y="-331" on="0"/>
        <pt x="326" y="-352" on="0"/>
        <pt x="386" y="-352" on="1"/>
        <pt x="627" y="-352" on="0"/>
        <pt x="877" y="-13" on="0"/>
        <pt x="877" y="376" on="1"/>
        <pt x="877" y="388" on="1"/>
        <pt x="877" y="633" on="0"/>
        <pt x="778" y="914" on="0"/>
        <pt x="599" y="1032" on="0"/>
        <pt x="478" y="1032" on="1"/>
        <pt x="336" y="1032" on="0"/>
        <pt x="147" y="865" on="0"/>
        <pt x="147" y="678" on="1"/>
        <pt x="147" y="490" on="0"/>
        <pt x="349" y="318" on="0"/>
        <pt x="518" y="318" on="1"/>
        <pt x="615" y="318" on="0"/>
        <pt x="832" y="395" on="0"/>
        <pt x="900" y="483" on="1"/>
        <pt x="900" y="400" on="1"/>
        <pt x="836" y="331" on="0"/>
        <pt x="627" y="252" on="0"/>
        <pt x="514" y="252" on="1"/>
        <pt x="384" y="252" on="0"/>
        <pt x="187" y="345" on="0"/>
        <pt x="77" y="533" on="0"/>
        <pt x="77" y="675" on="1"/>
        <pt x="77" y="818" on="0"/>
        <pt x="183" y="1006" on="0"/>
        <pt x="365" y="1098" on="0"/>
        <pt x="479" y="1098" on="1"/>
        <pt x="619" y="1098" on="0"/>
        <pt x="829" y="963" on="0"/>
        <pt x="947" y="652" on="0"/>
        <pt x="947" y="388" on="1"/>
        <pt x="947" y="-36" on="0"/>
        <pt x="657" y="-418" on="0"/>
      </contour>
    </TTGlyph>
    <TTGlyph name="glyph00548" xMin="74" yMin="-148" xMax="675" yMax="876">
      <contour>
        <pt x="375" y="-148" on="1"/>
        <pt x="284" y="-148" on="0"/>
        <pt x="149" y="-52" on="0"/>
        <pt x="74" y="172" on="0"/>
        <pt x="74" y="364" on="1"/>
        <pt x="74" y="556" on="0"/>
        <pt x="150" y="780" on="0"/>
        <pt x="286" y="876" on="0"/>
        <pt x="375" y="876" on="1"/>
        <pt x="465" y="876" on="0"/>
        <pt x="600" y="780" on="0"/>
        <pt x="675" y="556" on="0"/>
        <pt x="675" y="364" on="1"/>
        <pt x="675" y="172" on="0"/>
        <pt x="601" y="-52" on="0"/>
        <pt x="466" y="-148" on="0"/>
      </contour>
      <contour>
        <pt x="375" y="-86" on="1"/>
        <pt x="446" y="-86" on="0"/>
        <pt x="551" y="-9" on="0"/>
        <pt x="609" y="186" on="0"/>
        <pt x="609" y="363" on="1"/>
        <pt x="609" y="541" on="0"/>
        <pt x="550" y="736" on="0"/>
        <pt x="445" y="814" on="0"/>
        <pt x="375" y="814" on="1"/>
        <pt x="306" y="814" on="0"/>
        <pt x="200" y="737" on="0"/>
        <pt x="140" y="542" on="0"/>
        <pt x="140" y="365" on="1"/>
        <pt x="140" y="189" on="0"/>
        <pt x="198" y="-8" on="0"/>
        <pt x="304" y="-86" on="0"/>
      </contour>
    </TTGlyph>
    <TTGlyph name="glyph00549" xMin="140" yMin="-136" xMax="677" yMax="868">
      <contour>
        <pt x="385" y="-116" on="1"/>
        <pt x="385" y="807" on="1"/>
        <pt x="408" y="796" on="1"/>
        <pt x="140" y="597" on="1"/>
        <pt x="140" y="669" on="1"/>
        <pt x="408" y="868" on="1"/>
        <pt x="449" y="868" on="1"/>
        <pt x="449" y="-116" on="1"/>
      </contour>
      <contour>
        <pt x="145" y="-136" on="1"/>
        <pt x="145" y="-74" on="1"/>
        <pt x="677" y="-74" on="1"/>
        <pt x="677" y="-136" on="1"/>
      </contour>
    </TTGlyph>
    <TTGlyph name="glyph00550" xMin="82" yMin="-136" xMax="657" yMax="876">
      <contour>
        <pt x="94" y="-136" on="1"/>
        <pt x="94" y="-97" on="1"/>
        <pt x="394" y="299" on="1"/>
        <pt x="474" y="402" on="0"/>
        <pt x="543" y="545" on="0"/>
        <pt x="543" y="614" on="1"/>
        <pt x="543" y="721" on="0"/>
        <pt x="422" y="814" on="0"/>
        <pt x="307" y="814" on="1"/>
        <pt x="244" y="814" on="0"/>
        <pt x="134" y="794" on="0"/>
        <pt x="82" y="774" on="1"/>
        <pt x="82" y="838" on="1"/>
        <pt x="127" y="857" on="0"/>
        <pt x="245" y="876" on="0"/>
        <pt x="310" y="876" on="1"/>
        <pt x="451" y="876" on="0"/>
        <pt x="610" y="753" on="0"/>
        <pt x="609" y="618" on="1"/>
        <pt x="608" y="536" on="0"/>
        <pt x="533" y="379" on="0"/>
        <pt x="444" y="263" on="1"/>
        <pt x="169" y="-95" on="1"/>
        <pt x="159" y="-74" on="1"/>
        <pt x="657" y="-74" on="1"/>
        <pt x="657" y="-136" on="1"/>
      </contour>
    </TTGlyph>
    <TTGlyph name="glyph00551" xMin="72" yMin="-148" xMax="667" yMax="876">
      <contour>
        <pt x="314" y="-148" on="1"/>
        <pt x="183" y="-148" on="0"/>
        <pt x="72" y="-109" on="1"/>
        <pt x="72" y="-45" on="1"/>
        <pt x="132" y="-67" on="0"/>
        <pt x="256" y="-87" on="0"/>
        <pt x="314" y="-87" on="1"/>
        <pt x="457" y="-87" on="0"/>
        <pt x="603" y="26" on="0"/>
        <pt x="603" y="134" on="1"/>
        <pt x="603" y="234" on="0"/>
        <pt x="466" y="347" on="0"/>
        <pt x="323" y="347" on="1"/>
        <pt x="210" y="347" on="1"/>
        <pt x="210" y="409" on="1"/>
        <pt x="258" y="409" on="1"/>
        <pt x="410" y="409" on="0"/>
        <pt x="569" y="521" on="0"/>
        <pt x="569" y="625" on="1"/>
        <pt x="569" y="718" on="0"/>
        <pt x="443" y="815" on="0"/>
        <pt x="323" y="815" on="1"/>
        <pt x="266" y="815" on="0"/>
        <pt x="155" y="797" on="0"/>
        <pt x="99" y="776" on="1"/>
        <pt x="99" y="840" on="1"/>
        <pt x="146" y="858" on="0"/>
        <pt x="266" y="876" on="0"/>
        <pt x="326" y="876" on="1"/>
        <pt x="474" y="876" on="0"/>
        <pt x="633" y="747" on="0"/>
        <pt x="633" y="628" on="1"/>
        <pt x="633" y="529" on="0"/>
        <pt x="506" y="399" on="0"/>
        <pt x="398" y="376" on="1"/>
        <pt x="398" y="393" on="1"/>
        <pt x="529" y="377" on="0"/>
        <pt x="667" y="241" on="0"/>
        <pt x="667" y="131" on="1"/>
        <pt x="667" y="-2" on="0"/>
        <pt x="487" y="-148" on="0"/>
      </contour>
    </TTGlyph>
    <TTGlyph name="glyph00552" xMin="33" yMin="-136" xMax="722" yMax="864">
      <contour>
        <pt x="33" y="116" on="1"/>
        <pt x="33" y="156" on="1"/>
        <pt x="421" y="864" on="1"/>
        <pt x="489" y="864" on="1"/>
        <pt x="101" y="155" on="1"/>
        <pt x="87" y="176" on="1"/>
        <pt x="722" y="176" on="1"/>
        <pt x="722" y="116" on="1"/>
      </contour>
      <contour>
        <pt x="514" y="-136" on="1"/>
        <pt x="514" y="176" on="1"/>
        <pt x="526" y="526" on="1"/>
        <pt x="576" y="526" on="1"/>
        <pt x="576" y="-136" on="1"/>
      </contour>
    </TTGlyph>
    <TTGlyph name="glyph00553" xMin="84" yMin="-148" xMax="679" yMax="864">
      <contour>
        <pt x="325" y="-148" on="1"/>
        <pt x="263" y="-148" on="0"/>
        <pt x="137" y="-128" on="0"/>
        <pt x="84" y="-109" on="1"/>
        <pt x="84" y="-45" on="1"/>
        <pt x="143" y="-66" on="0"/>
        <pt x="268" y="-87" on="0"/>
        <pt x="327" y="-87" on="1"/>
        <pt x="470" y="-87" on="0"/>
        <pt x="615" y="27" on="0"/>
        <pt x="615" y="139" on="1"/>
        <pt x="615" y="249" on="0"/>
        <pt x="451" y="359" on="0"/>
        <pt x="254" y="369" on="1"/>
        <pt x="125" y="377" on="1"/>
        <pt x="160" y="864" on="1"/>
        <pt x="636" y="864" on="1"/>
        <pt x="636" y="804" on="1"/>
        <pt x="190" y="804" on="1"/>
        <pt x="219" y="831" on="1"/>
        <pt x="188" y="400" on="1"/>
        <pt x="145" y="437" on="1"/>
        <pt x="274" y="429" on="1"/>
        <pt x="488" y="416" on="0"/>
        <pt x="679" y="276" on="0"/>
        <pt x="679" y="142" on="1"/>
        <pt x="679" y="0" on="0"/>
        <pt x="498" y="-148" on="0"/>
      </contour>
    </TTGlyph>
    <TTGlyph name="glyph00554" xMin="100" yMin="-148" xMax="699" yMax="876">
      <contour>
        <pt x="422" y="-148" on="1"/>
        <pt x="326" y="-148" on="0"/>
        <pt x="181" y="-56" on="0"/>
        <pt x="100" y="155" on="0"/>
        <pt x="100" y="332" on="1"/>
        <pt x="100" y="617" on="0"/>
        <pt x="300" y="876" on="0"/>
        <pt x="487" y="876" on="1"/>
        <pt x="531" y="876" on="0"/>
        <pt x="619" y="863" on="0"/>
        <pt x="655" y="848" on="1"/>
        <pt x="655" y="784" on="1"/>
        <pt x="618" y="801" on="0"/>
        <pt x="529" y="815" on="0"/>
        <pt x="488" y="815" on="1"/>
        <pt x="329" y="815" on="0"/>
        <pt x="164" y="596" on="0"/>
        <pt x="164" y="341" on="1"/>
        <pt x="164" y="318" on="1"/>
        <pt x="164" y="166" on="0"/>
        <pt x="228" y="-12" on="0"/>
        <pt x="345" y="-88" on="0"/>
        <pt x="422" y="-88" on="1"/>
        <pt x="514" y="-88" on="0"/>
        <pt x="636" y="19" on="0"/>
        <pt x="636" y="139" on="1"/>
        <pt x="636" y="259" on="0"/>
        <pt x="506" y="370" on="0"/>
        <pt x="396" y="370" on="1"/>
        <pt x="333" y="370" on="0"/>
        <pt x="192" y="320" on="0"/>
        <pt x="147" y="262" on="1"/>
        <pt x="147" y="333" on="1"/>
        <pt x="190" y="377" on="0"/>
        <pt x="329" y="430" on="0"/>
        <pt x="404" y="430" on="1"/>
        <pt x="492" y="430" on="0"/>
        <pt x="624" y="367" on="0"/>
        <pt x="699" y="239" on="0"/>
        <pt x="699" y="142" on="1"/>
        <pt x="699" y="-3" on="0"/>
        <pt x="541" y="-148" on="0"/>
      </contour>
    </TTGlyph>
    <TTGlyph name="glyph00555" xMin="49" yMin="-136" xMax="667" yMax="864">
      <contour>
        <pt x="170" y="-136" on="1"/>
        <pt x="602" y="826" on="1"/>
        <pt x="617" y="803" on="1"/>
        <pt x="49" y="803" on="1"/>
        <pt x="49" y="864" on="1"/>
        <pt x="667" y="864" on="1"/>
        <pt x="667" y="825" on="1"/>
        <pt x="238" y="-136" on="1"/>
      </contour>
    </TTGlyph>
    <TTGlyph name="glyph00556" xMin="60" yMin="-148" xMax="690" yMax="876">
      <contour>
        <pt x="382" y="-148" on="1"/>
        <pt x="225" y="-148" on="0"/>
        <pt x="60" y="-11" on="0"/>
        <pt x="60" y="115" on="1"/>
        <pt x="60" y="215" on="0"/>
        <pt x="167" y="358" on="0"/>
        <pt x="261" y="392" on="1"/>
        <pt x="316" y="365" on="1"/>
        <pt x="223" y="337" on="0"/>
        <pt x="124" y="208" on="0"/>
        <pt x="124" y="119" on="1"/>
        <pt x="124" y="19" on="0"/>
        <pt x="254" y="-89" on="0"/>
        <pt x="383" y="-89" on="1"/>
        <pt x="499" y="-89" on="0"/>
        <pt x="626" y="15" on="0"/>
        <pt x="626" y="111" on="1"/>
        <pt x="626" y="202" on="0"/>
        <pt x="517" y="301" on="0"/>
        <pt x="382" y="335" on="1"/>
        <pt x="223" y="376" on="0"/>
        <pt x="91" y="513" on="0"/>
        <pt x="91" y="623" on="1"/>
        <pt x="91" y="740" on="0"/>
        <pt x="242" y="876" on="0"/>
        <pt x="373" y="876" on="1"/>
        <pt x="507" y="876" on="0"/>
        <pt x="659" y="742" on="0"/>
        <pt x="659" y="625" on="1"/>
        <pt x="659" y="532" on="0"/>
        <pt x="562" y="396" on="0"/>
        <pt x="472" y="358" on="1"/>
        <pt x="420" y="383" on="1"/>
        <pt x="513" y="425" on="0"/>
        <pt x="597" y="536" on="0"/>
        <pt x="597" y="622" on="1"/>
        <pt x="597" y="717" on="0"/>
        <pt x="478" y="818" on="0"/>
        <pt x="373" y="818" on="1"/>
        <pt x="266" y="818" on="0"/>
        <pt x="155" y="714" on="0"/>
        <pt x="155" y="625" on="1"/>
        <pt x="155" y="566" on="0"/>
        <pt x="200" y="480" on="0"/>
        <pt x="307" y="419" on="0"/>
        <pt x="400" y="395" on="1"/>
        <pt x="505" y="368" on="0"/>
        <pt x="632" y="292" on="0"/>
        <pt x="690" y="187" on="0"/>
        <pt x="690" y="116" on="1"/>
        <pt x="690" y="-5" on="0"/>
        <pt x="529" y="-148" on="0"/>
      </contour>
    </TTGlyph>
    <TTGlyph name="glyph00557" xMin="50" yMin="-148" xMax="649" yMax="876">
      <contour>
        <pt x="262" y="-148" on="1"/>
        <pt x="219" y="-148" on="0"/>
        <pt x="130" y="-135" on="0"/>
        <pt x="94" y="-120" on="1"/>
        <pt x="94" y="-56" on="1"/>
        <pt x="131" y="-73" on="0"/>
        <pt x="220" y="-87" on="0"/>
        <pt x="261" y="-87" on="1"/>
        <pt x="420" y="-87" on="0"/>
        <pt x="585" y="132" on="0"/>
        <pt x="585" y="387" on="1"/>
        <pt x="585" y="410" on="1"/>
        <pt x="585" y="563" on="0"/>
        <pt x="521" y="740" on="0"/>
        <pt x="405" y="816" on="0"/>
        <pt x="327" y="816" on="1"/>
        <pt x="236" y="816" on="0"/>
        <pt x="113" y="709" on="0"/>
        <pt x="113" y="589" on="1"/>
        <pt x="113" y="469" on="0"/>
        <pt x="244" y="358" on="0"/>
        <pt x="353" y="358" on="1"/>
        <pt x="416" y="358" on="0"/>
        <pt x="557" y="408" on="0"/>
        <pt x="602" y="466" on="1"/>
        <pt x="602" y="395" on="1"/>
        <pt x="559" y="351" on="0"/>
        <pt x="420" y="298" on="0"/>
        <pt x="345" y="298" on="1"/>
        <pt x="258" y="298" on="0"/>
        <pt x="125" y="361" on="0"/>
        <pt x="50" y="489" on="0"/>
        <pt x="50" y="586" on="1"/>
        <pt x="50" y="732" on="0"/>
        <pt x="208" y="876" on="0"/>
        <pt x="327" y="876" on="1"/>
        <pt x="423" y="876" on="0"/>
        <pt x="568" y="784" on="0"/>
        <pt x="649" y="574" on="0"/>
        <pt x="649" y="396" on="1"/>
        <pt x="649" y="111" on="0"/>
        <pt x="450" y="-148" on="0"/>
      </contour>
    </TTGlyph>
    <TTGlyph name="glyph00558" xMin="74" yMin="604" xMax="675" yMax="1628">
      <contour>
        <pt x="375" y="604" on="1"/>
        <pt x="284" y="604" on="0"/>
        <pt x="149" y="700" on="0"/>
        <pt x="74" y="924" on="0"/>
        <pt x="74" y="1116" on="1"/>
        <pt x="74" y="1308" on="0"/>
        <pt x="150" y="1532" on="0"/>
        <pt x="286" y="1628" on="0"/>
        <pt x="375" y="1628" on="1"/>
        <pt x="465" y="1628" on="0"/>
        <pt x="600" y="1532" on="0"/>
        <pt x="675" y="1308" on="0"/>
        <pt x="675" y="1116" on="1"/>
        <pt x="675" y="924" on="0"/>
        <pt x="601" y="700" on="0"/>
        <pt x="466" y="604" on="0"/>
      </contour>
      <contour>
        <pt x="375" y="666" on="1"/>
        <pt x="446" y="666" on="0"/>
        <pt x="551" y="743" on="0"/>
        <pt x="609" y="938" on="0"/>
        <pt x="609" y="1115" on="1"/>
        <pt x="609" y="1293" on="0"/>
        <pt x="550" y="1488" on="0"/>
        <pt x="445" y="1566" on="0"/>
        <pt x="375" y="1566" on="1"/>
        <pt x="306" y="1566" on="0"/>
        <pt x="200" y="1489" on="0"/>
        <pt x="140" y="1294" on="0"/>
        <pt x="140" y="1117" on="1"/>
        <pt x="140" y="941" on="0"/>
        <pt x="198" y="744" on="0"/>
        <pt x="304" y="666" on="0"/>
      </contour>
    </TTGlyph>
    <TTGlyph name="glyph00559" xMin="140" yMin="616" xMax="677" yMax="1620">
      <contour>
        <pt x="385" y="636" on="1"/>
        <pt x="385" y="1559" on="1"/>
        <pt x="408" y="1548" on="1"/>
        <pt x="140" y="1349" on="1"/>
        <pt x="140" y="1421" on="1"/>
        <pt x="408" y="1620" on="1"/>
        <pt x="449" y="1620" on="1"/>
        <pt x="449" y="636" on="1"/>
      </contour>
      <contour>
        <pt x="145" y="616" on="1"/>
        <pt x="145" y="678" on="1"/>
        <pt x="677" y="678" on="1"/>
        <pt x="677" y="616" on="1"/>
      </contour>
    </TTGlyph>
    <TTGlyph name="glyph00560" xMin="82" yMin="616" xMax="657" yMax="1628">
      <contour>
        <pt x="94" y="616" on="1"/>
        <pt x="94" y="655" on="1"/>
        <pt x="394" y="1051" on="1"/>
        <pt x="474" y="1154" on="0"/>
        <pt x="543" y="1297" on="0"/>
        <pt x="543" y="1366" on="1"/>
        <pt x="543" y="1473" on="0"/>
        <pt x="422" y="1566" on="0"/>
        <pt x="307" y="1566" on="1"/>
        <pt x="244" y="1566" on="0"/>
        <pt x="134" y="1546" on="0"/>
        <pt x="82" y="1526" on="1"/>
        <pt x="82" y="1590" on="1"/>
        <pt x="127" y="1609" on="0"/>
        <pt x="245" y="1628" on="0"/>
        <pt x="310" y="1628" on="1"/>
        <pt x="451" y="1628" on="0"/>
        <pt x="609" y="1505" on="0"/>
        <pt x="609" y="1370" on="1"/>
        <pt x="609" y="1288" on="0"/>
        <pt x="533" y="1131" on="0"/>
        <pt x="444" y="1015" on="1"/>
        <pt x="169" y="657" on="1"/>
        <pt x="159" y="678" on="1"/>
        <pt x="657" y="678" on="1"/>
        <pt x="657" y="616" on="1"/>
      </contour>
    </TTGlyph>
    <TTGlyph name="glyph00561" xMin="72" yMin="604" xMax="667" yMax="1628">
      <contour>
        <pt x="314" y="604" on="1"/>
        <pt x="183" y="604" on="0"/>
        <pt x="72" y="643" on="1"/>
        <pt x="72" y="707" on="1"/>
        <pt x="132" y="685" on="0"/>
        <pt x="256" y="665" on="0"/>
        <pt x="314" y="665" on="1"/>
        <pt x="457" y="665" on="0"/>
        <pt x="603" y="778" on="0"/>
        <pt x="603" y="886" on="1"/>
        <pt x="603" y="986" on="0"/>
        <pt x="466" y="1099" on="0"/>
        <pt x="323" y="1099" on="1"/>
        <pt x="210" y="1099" on="1"/>
        <pt x="210" y="1161" on="1"/>
        <pt x="258" y="1161" on="1"/>
        <pt x="410" y="1161" on="0"/>
        <pt x="569" y="1273" on="0"/>
        <pt x="569" y="1377" on="1"/>
        <pt x="569" y="1470" on="0"/>
        <pt x="443" y="1567" on="0"/>
        <pt x="323" y="1567" on="1"/>
        <pt x="266" y="1567" on="0"/>
        <pt x="155" y="1549" on="0"/>
        <pt x="99" y="1528" on="1"/>
        <pt x="99" y="1592" on="1"/>
        <pt x="146" y="1610" on="0"/>
        <pt x="266" y="1628" on="0"/>
        <pt x="326" y="1628" on="1"/>
        <pt x="474" y="1628" on="0"/>
        <pt x="633" y="1499" on="0"/>
        <pt x="633" y="1380" on="1"/>
        <pt x="633" y="1281" on="0"/>
        <pt x="506" y="1151" on="0"/>
        <pt x="398" y="1128" on="1"/>
        <pt x="398" y="1145" on="1"/>
        <pt x="529" y="1129" on="0"/>
        <pt x="667" y="993" on="0"/>
        <pt x="667" y="883" on="1"/>
        <pt x="667" y="750" on="0"/>
        <pt x="487" y="604" on="0"/>
      </contour>
    </TTGlyph>
    <TTGlyph name="glyph00562" xMin="33" yMin="616" xMax="722" yMax="1616">
      <contour>
        <pt x="33" y="868" on="1"/>
        <pt x="33" y="908" on="1"/>
        <pt x="421" y="1616" on="1"/>
        <pt x="489" y="1616" on="1"/>
        <pt x="101" y="907" on="1"/>
        <pt x="87" y="928" on="1"/>
        <pt x="722" y="928" on="1"/>
        <pt x="722" y="868" on="1"/>
      </contour>
      <contour>
        <pt x="514" y="616" on="1"/>
        <pt x="514" y="928" on="1"/>
        <pt x="526" y="1278" on="1"/>
        <pt x="576" y="1278" on="1"/>
        <pt x="576" y="616" on="1"/>
      </contour>
    </TTGlyph>
    <TTGlyph name="glyph00563" xMin="84" yMin="604" xMax="679" yMax="1616">
      <contour>
        <pt x="325" y="604" on="1"/>
        <pt x="263" y="604" on="0"/>
        <pt x="137" y="624" on="0"/>
        <pt x="84" y="643" on="1"/>
        <pt x="84" y="707" on="1"/>
        <pt x="143" y="686" on="0"/>
        <pt x="268" y="665" on="0"/>
        <pt x="327" y="665" on="1"/>
        <pt x="470" y="665" on="0"/>
        <pt x="615" y="779" on="0"/>
        <pt x="615" y="891" on="1"/>
        <pt x="615" y="1001" on="0"/>
        <pt x="451" y="1111" on="0"/>
        <pt x="254" y="1121" on="1"/>
        <pt x="125" y="1129" on="1"/>
        <pt x="160" y="1616" on="1"/>
        <pt x="636" y="1616" on="1"/>
        <pt x="636" y="1556" on="1"/>
        <pt x="190" y="1556" on="1"/>
        <pt x="219" y="1583" on="1"/>
        <pt x="188" y="1152" on="1"/>
        <pt x="145" y="1189" on="1"/>
        <pt x="274" y="1181" on="1"/>
        <pt x="488" y="1168" on="0"/>
        <pt x="679" y="1028" on="0"/>
        <pt x="679" y="894" on="1"/>
        <pt x="679" y="752" on="0"/>
        <pt x="498" y="604" on="0"/>
      </contour>
    </TTGlyph>
    <TTGlyph name="glyph00564" xMin="100" yMin="604" xMax="699" yMax="1628">
      <contour>
        <pt x="422" y="604" on="1"/>
        <pt x="326" y="604" on="0"/>
        <pt x="181" y="696" on="0"/>
        <pt x="100" y="907" on="0"/>
        <pt x="100" y="1084" on="1"/>
        <pt x="100" y="1369" on="0"/>
        <pt x="300" y="1628" on="0"/>
        <pt x="487" y="1628" on="1"/>
        <pt x="531" y="1628" on="0"/>
        <pt x="619" y="1615" on="0"/>
        <pt x="655" y="1600" on="1"/>
        <pt x="655" y="1536" on="1"/>
        <pt x="618" y="1553" on="0"/>
        <pt x="529" y="1567" on="0"/>
        <pt x="488" y="1567" on="1"/>
        <pt x="329" y="1567" on="0"/>
        <pt x="164" y="1348" on="0"/>
        <pt x="164" y="1093" on="1"/>
        <pt x="164" y="1070" on="1"/>
        <pt x="164" y="918" on="0"/>
        <pt x="228" y="740" on="0"/>
        <pt x="345" y="664" on="0"/>
        <pt x="422" y="664" on="1"/>
        <pt x="514" y="664" on="0"/>
        <pt x="636" y="771" on="0"/>
        <pt x="636" y="891" on="1"/>
        <pt x="636" y="1011" on="0"/>
        <pt x="506" y="1122" on="0"/>
        <pt x="396" y="1122" on="1"/>
        <pt x="333" y="1122" on="0"/>
        <pt x="192" y="1072" on="0"/>
        <pt x="147" y="1014" on="1"/>
        <pt x="147" y="1085" on="1"/>
        <pt x="190" y="1129" on="0"/>
        <pt x="329" y="1182" on="0"/>
        <pt x="404" y="1182" on="1"/>
        <pt x="492" y="1182" on="0"/>
        <pt x="624" y="1119" on="0"/>
        <pt x="699" y="991" on="0"/>
        <pt x="699" y="894" on="1"/>
        <pt x="699" y="749" on="0"/>
        <pt x="541" y="604" on="0"/>
      </contour>
    </TTGlyph>
    <TTGlyph name="glyph00565" xMin="49" yMin="616" xMax="667" yMax="1616">
      <contour>
        <pt x="170" y="616" on="1"/>
        <pt x="602" y="1578" on="1"/>
        <pt x="617" y="1555" on="1"/>
        <pt x="49" y="1555" on="1"/>
        <pt x="49" y="1616" on="1"/>
        <pt x="667" y="1616" on="1"/>
        <pt x="667" y="1577" on="1"/>
        <pt x="238" y="616" on="1"/>
      </contour>
    </TTGlyph>
    <TTGlyph name="glyph00566" xMin="60" yMin="604" xMax="690" yMax="1628">
      <contour>
        <pt x="382" y="604" on="1"/>
        <pt x="225" y="604" on="0"/>
        <pt x="60" y="741" on="0"/>
        <pt x="60" y="867" on="1"/>
        <pt x="60" y="967" on="0"/>
        <pt x="167" y="1110" on="0"/>
        <pt x="261" y="1144" on="1"/>
        <pt x="316" y="1117" on="1"/>
        <pt x="223" y="1089" on="0"/>
        <pt x="124" y="960" on="0"/>
        <pt x="124" y="871" on="1"/>
        <pt x="124" y="771" on="0"/>
        <pt x="254" y="663" on="0"/>
        <pt x="383" y="663" on="1"/>
        <pt x="499" y="663" on="0"/>
        <pt x="626" y="767" on="0"/>
        <pt x="626" y="863" on="1"/>
        <pt x="626" y="954" on="0"/>
        <pt x="517" y="1053" on="0"/>
        <pt x="382" y="1087" on="1"/>
        <pt x="223" y="1128" on="0"/>
        <pt x="91" y="1265" on="0"/>
        <pt x="91" y="1375" on="1"/>
        <pt x="91" y="1492" on="0"/>
        <pt x="242" y="1628" on="0"/>
        <pt x="373" y="1628" on="1"/>
        <pt x="507" y="1628" on="0"/>
        <pt x="659" y="1494" on="0"/>
        <pt x="659" y="1377" on="1"/>
        <pt x="659" y="1284" on="0"/>
        <pt x="562" y="1148" on="0"/>
        <pt x="472" y="1110" on="1"/>
        <pt x="420" y="1135" on="1"/>
        <pt x="513" y="1177" on="0"/>
        <pt x="597" y="1288" on="0"/>
        <pt x="597" y="1374" on="1"/>
        <pt x="597" y="1469" on="0"/>
        <pt x="478" y="1570" on="0"/>
        <pt x="373" y="1570" on="1"/>
        <pt x="266" y="1570" on="0"/>
        <pt x="155" y="1466" on="0"/>
        <pt x="155" y="1377" on="1"/>
        <pt x="155" y="1318" on="0"/>
        <pt x="200" y="1232" on="0"/>
        <pt x="307" y="1171" on="0"/>
        <pt x="400" y="1147" on="1"/>
        <pt x="505" y="1120" on="0"/>
        <pt x="632" y="1044" on="0"/>
        <pt x="690" y="939" on="0"/>
        <pt x="690" y="868" on="1"/>
        <pt x="690" y="747" on="0"/>
        <pt x="529" y="604" on="0"/>
      </contour>
    </TTGlyph>
    <TTGlyph name="glyph00567" xMin="50" yMin="604" xMax="649" yMax="1628">
      <contour>
        <pt x="262" y="604" on="1"/>
        <pt x="219" y="604" on="0"/>
        <pt x="130" y="617" on="0"/>
        <pt x="94" y="632" on="1"/>
        <pt x="94" y="696" on="1"/>
        <pt x="131" y="679" on="0"/>
        <pt x="220" y="665" on="0"/>
        <pt x="261" y="665" on="1"/>
        <pt x="420" y="665" on="0"/>
        <pt x="585" y="884" on="0"/>
        <pt x="585" y="1139" on="1"/>
        <pt x="585" y="1162" on="1"/>
        <pt x="585" y="1315" on="0"/>
        <pt x="521" y="1492" on="0"/>
        <pt x="405" y="1568" on="0"/>
        <pt x="327" y="1568" on="1"/>
        <pt x="236" y="1568" on="0"/>
        <pt x="113" y="1461" on="0"/>
        <pt x="113" y="1341" on="1"/>
        <pt x="113" y="1221" on="0"/>
        <pt x="244" y="1110" on="0"/>
        <pt x="353" y="1110" on="1"/>
        <pt x="416" y="1110" on="0"/>
        <pt x="557" y="1160" on="0"/>
        <pt x="602" y="1218" on="1"/>
        <pt x="602" y="1147" on="1"/>
        <pt x="559" y="1103" on="0"/>
        <pt x="420" y="1050" on="0"/>
        <pt x="345" y="1050" on="1"/>
        <pt x="258" y="1050" on="0"/>
        <pt x="125" y="1113" on="0"/>
        <pt x="50" y="1241" on="0"/>
        <pt x="50" y="1338" on="1"/>
        <pt x="50" y="1484" on="0"/>
        <pt x="208" y="1628" on="0"/>
        <pt x="327" y="1628" on="1"/>
        <pt x="423" y="1628" on="0"/>
        <pt x="568" y="1536" on="0"/>
        <pt x="649" y="1326" on="0"/>
        <pt x="649" y="1148" on="1"/>
        <pt x="649" y="863" on="0"/>
        <pt x="450" y="604" on="0"/>
      </contour>
    </TTGlyph>
    <TTGlyph name="glyph00603" xMin="141" yMin="496" xMax="265" yMax="622">
      <contour>
        <pt x="203" y="496" on="1"/>
        <pt x="176" y="496" on="0"/>
        <pt x="141" y="530" on="0"/>
        <pt x="141" y="558" on="1"/>
        <pt x="141" y="587" on="0"/>
        <pt x="176" y="622" on="0"/>
        <pt x="203" y="622" on="1"/>
        <pt x="230" y="622" on="0"/>
        <pt x="265" y="587" on="0"/>
        <pt x="265" y="558" on="1"/>
        <pt x="265" y="530" on="0"/>
        <pt x="230" y="496" on="0"/>
      </contour>
    </TTGlyph>
    <TTGlyph name="glyph00604" xMin="213" yMin="-10" xMax="337" yMax="116">
      <contour>
        <pt x="275" y="-10" on="1"/>
        <pt x="248" y="-10" on="0"/>
        <pt x="213" y="24" on="0"/>
        <pt x="213" y="52" on="1"/>
        <pt x="213" y="81" on="0"/>
        <pt x="248" y="116" on="0"/>
        <pt x="275" y="116" on="1"/>
        <pt x="302" y="116" on="0"/>
        <pt x="337" y="81" on="0"/>
        <pt x="337" y="52" on="1"/>
        <pt x="337" y="24" on="0"/>
        <pt x="302" y="-10" on="0"/>
      </contour>
    </TTGlyph>
    <TTGlyph name="glyph00605" xMin="213" yMin="-280" xMax="337" yMax="116">
      <contour>
        <pt x="226" y="-280" on="1"/>
        <pt x="252" y="-202" on="0"/>
        <pt x="283" y="-57" on="0"/>
        <pt x="283" y="12" on="1"/>
        <pt x="287" y="-10" on="1"/>
        <pt x="275" y="-10" on="1"/>
        <pt x="248" y="-10" on="0"/>
        <pt x="213" y="26" on="0"/>
        <pt x="213" y="54" on="1"/>
        <pt x="213" y="81" on="0"/>
        <pt x="246" y="116" on="0"/>
        <pt x="273" y="116" on="1"/>
        <pt x="302" y="116" on="0"/>
        <pt x="337" y="77" on="0"/>
        <pt x="337" y="32" on="1"/>
        <pt x="337" y="-53" on="0"/>
        <pt x="298" y="-217" on="0"/>
        <pt x="270" y="-280" on="1"/>
      </contour>
    </TTGlyph>
    <TTGlyph name="glyph00606" xMin="213" yMin="-10" xMax="337" yMax="1090">
      <contour>
        <pt x="275" y="-10" on="1"/>
        <pt x="248" y="-10" on="0"/>
        <pt x="213" y="24" on="0"/>
        <pt x="213" y="52" on="1"/>
        <pt x="213" y="81" on="0"/>
        <pt x="248" y="116" on="0"/>
        <pt x="275" y="116" on="1"/>
        <pt x="302" y="116" on="0"/>
        <pt x="337" y="81" on="0"/>
        <pt x="337" y="52" on="1"/>
        <pt x="337" y="24" on="0"/>
        <pt x="302" y="-10" on="0"/>
      </contour>
      <contour>
        <pt x="275" y="964" on="1"/>
        <pt x="248" y="964" on="0"/>
        <pt x="213" y="998" on="0"/>
        <pt x="213" y="1026" on="1"/>
        <pt x="213" y="1055" on="0"/>
        <pt x="248" y="1090" on="0"/>
        <pt x="275" y="1090" on="1"/>
        <pt x="302" y="1090" on="0"/>
        <pt x="337" y="1055" on="0"/>
        <pt x="337" y="1026" on="1"/>
        <pt x="337" y="998" on="0"/>
        <pt x="302" y="964" on="0"/>
      </contour>
    </TTGlyph>
    <TTGlyph name="glyph00607" xMin="213" yMin="-280" xMax="337" yMax="1090">
      <contour>
        <pt x="225" y="-280" on="1"/>
        <pt x="251" y="-202" on="0"/>
        <pt x="283" y="-57" on="0"/>
        <pt x="283" y="12" on="1"/>
        <pt x="287" y="-10" on="1"/>
        <pt x="275" y="-10" on="1"/>
        <pt x="248" y="-10" on="0"/>
        <pt x="213" y="26" on="0"/>
        <pt x="213" y="54" on="1"/>
        <pt x="213" y="81" on="0"/>
        <pt x="246" y="116" on="0"/>
        <pt x="273" y="116" on="1"/>
        <pt x="302" y="116" on="0"/>
        <pt x="337" y="77" on="0"/>
        <pt x="337" y="32" on="1"/>
        <pt x="337" y="-53" on="0"/>
        <pt x="298" y="-217" on="0"/>
        <pt x="272" y="-280" on="1"/>
      </contour>
      <contour>
        <pt x="275" y="964" on="1"/>
        <pt x="248" y="964" on="0"/>
        <pt x="213" y="998" on="0"/>
        <pt x="213" y="1026" on="1"/>
        <pt x="213" y="1055" on="0"/>
        <pt x="248" y="1090" on="0"/>
        <pt x="275" y="1090" on="1"/>
        <pt x="302" y="1090" on="0"/>
        <pt x="337" y="1055" on="0"/>
        <pt x="337" y="1026" on="1"/>
        <pt x="337" y="998" on="0"/>
        <pt x="302" y="964" on="0"/>
      </contour>
    </TTGlyph>
    <TTGlyph name="glyph00608" xMin="213" yMin="496" xMax="337" yMax="622">
      <contour>
        <pt x="275" y="496" on="1"/>
        <pt x="248" y="496" on="0"/>
        <pt x="213" y="530" on="0"/>
        <pt x="213" y="558" on="1"/>
        <pt x="213" y="587" on="0"/>
        <pt x="248" y="622" on="0"/>
        <pt x="275" y="622" on="1"/>
        <pt x="302" y="622" on="0"/>
        <pt x="337" y="587" on="0"/>
        <pt x="337" y="558" on="1"/>
        <pt x="337" y="530" on="0"/>
        <pt x="302" y="496" on="0"/>
      </contour>
    </TTGlyph>
    <TTGlyph name="glyph00609" xMin="100" yMin="0" xMax="1000" yMax="1480">
      <component glyphName="numbersign" x="0" y="0" flags="0x204"/>
    </TTGlyph>
    <TTGlyph name="glyph00610" xMin="291" yMin="-240" xMax="808" yMax="1616">
      <contour>
        <pt x="291" y="-240" on="1"/>
        <pt x="739" y="1616" on="1"/>
        <pt x="808" y="1616" on="1"/>
        <pt x="360" y="-240" on="1"/>
      </contour>
    </TTGlyph>
    <TTGlyph name="glyph00619" xMin="95" yMin="-64" xMax="1005" yMax="0">
      <contour>
        <pt x="95" y="-64" on="1"/>
        <pt x="95" y="0" on="1"/>
        <pt x="1005" y="0" on="1"/>
        <pt x="1005" y="-64" on="1"/>
      </contour>
    </TTGlyph>
    <TTGlyph name="glyph00632" xMin="114" yMin="956" xMax="434" yMax="1616">
      <contour>
        <pt x="134" y="956" on="1"/>
        <pt x="114" y="1616" on="1"/>
        <pt x="194" y="1616" on="1"/>
        <pt x="174" y="956" on="1"/>
      </contour>
      <contour>
        <pt x="374" y="956" on="1"/>
        <pt x="354" y="1616" on="1"/>
        <pt x="434" y="1616" on="1"/>
        <pt x="414" y="956" on="1"/>
      </contour>
    </TTGlyph>
    <TTGlyph name="glyph00633" xMin="235" yMin="956" xMax="315" yMax="1616">
      <contour>
        <pt x="255" y="956" on="1"/>
        <pt x="235" y="1616" on="1"/>
        <pt x="315" y="1616" on="1"/>
        <pt x="295" y="956" on="1"/>
      </contour>
    </TTGlyph>
</ttFont>
